<?xml version="1.0" encoding="utf-8"?>
<!-- Generator: Adobe Illustrator 16.0.0, SVG Export Plug-In . SVG Version: 6.00 Build 0)  -->
<!DOCTYPE svg PUBLIC "-//W3C//DTD SVG 1.1//EN" "http://www.w3.org/Graphics/SVG/1.1/DTD/svg11.dtd">
<svg version="1.1" id="Layer_1" xmlns="http://www.w3.org/2000/svg" xmlns:xlink="http://www.w3.org/1999/xlink" x="0px" y="0px"
	 width="1734.173px" height="594.059px" viewBox="0 0 1734.173 594.059" enable-background="new 0 0 1734.173 594.059"
	 xml:space="preserve">
<g>
	<path fill-rule="evenodd" clip-rule="evenodd" fill="#28498E" d="M615.246,244.694c47.304-39.764,109.93-27.012,140.836,9.17
		c32.02,37.483,32.147,92.381,0.817,129.346c-30.62,36.128-92.693,50.819-141.653,10.221c0,2.96,0.001,5.559,0,8.156
		c0,24.333-0.325,48.672,0.146,72.995c0.215,11.078-8.138,18.295-16.289,18.447c-9.157,0.171-16.399-7.937-16.402-18.32
		c-0.021-78.164-0.021-156.328-0.003-234.492c0.002-10.8,6.666-18.244,16.221-18.292c9.733-0.05,16.254,7.155,16.326,18.041
		C615.253,241.285,615.246,242.603,615.246,244.694z M746.741,318.95c0.16-36.834-28.397-65.531-65.412-65.734
		c-37.188-0.203-66.465,28.705-66.65,65.812c-0.186,36.903,28.75,66.154,65.583,66.297
		C717.785,385.47,746.577,356.724,746.741,318.95z"/>
	<path fill-rule="evenodd" clip-rule="evenodd" fill="#27488D" d="M248.417,332.211c5.569,24.781,19.319,41.956,42.591,49.671
		c25.452,8.438,49.289,5.186,69.213-14.726c7.013-7.008,16.541-6.874,23.071-0.068c6.532,6.808,6.055,16.429-1.173,23.595
		c-51.205,50.771-139.919,29.114-162.739-39.728c-19.707-59.45,18.881-120.959,81.238-129.495
		c49.268-6.745,97.459,25.714,108.977,73.59c1.354,5.628,1.837,11.494,2.378,17.282c0.915,9.807-8.336,20.287-19.287,20.141
		c-45.988-0.618-91.99-0.262-137.986-0.262C252.878,332.211,251.058,332.211,248.417,332.211z M375.385,299.036
		c-3.402-23.089-31.849-44.871-59.084-45.787c-37.91-1.275-61.026,25.687-65.598,45.787
		C292.164,299.036,333.592,299.036,375.385,299.036z"/>
	<path fill-rule="evenodd" clip-rule="evenodd" fill="#27488D" d="M837.434,332.211c5.566,24.779,19.308,41.96,42.582,49.672
		c25.449,8.433,49.286,5.19,69.207-14.723c7.012-7.009,16.542-6.881,23.072-0.078c6.548,6.821,6.076,16.426-1.158,23.587
		c-52.456,51.928-143.666,27.717-163.894-43.503c-16.731-58.913,21.504-117.283,82.339-125.699
		c51.137-7.075,100.765,28.435,110.113,79.028c1.012,5.479,1.409,11.353,0.606,16.824c-1.385,9.442-8.672,14.892-18.11,14.892
		c-46.16,0-92.321,0-138.481,0C841.89,332.211,840.07,332.211,837.434,332.211z M964.464,299.065
		c-4.339-24.768-33.313-45.905-62.26-45.851c-29.171,0.055-58.242,21.369-62.403,45.851
		C881.26,299.065,922.699,299.065,964.464,299.065z"/>
	<path fill-rule="evenodd" clip-rule="evenodd" fill="#28488D" d="M1383.349,245.603c0-3.327-0.105-5.778,0.02-8.218
		c0.411-8.035,7.122-14.872,15.02-15.398s15.551,5.287,17.139,13.075c0.264,1.296,0.416,2.639,0.417,3.96
		c0.021,53.487,0.06,106.975-0.017,160.462c-0.017,11.493-9.669,19.325-20.229,16.78c-6.782-1.634-11.89-7.639-12.316-14.628
		c-0.142-2.313-0.022-4.643-0.022-8.078c-23.806,19.516-50.265,28.098-80.217,23.812c-29.913-4.281-53.25-19.333-69.5-44.723
		c-25.869-40.422-18.896-92.886,16.488-125.79C1284.056,215.309,1340.195,209.523,1383.349,245.603z M1317.394,385.328
		c36.931-0.022,65.881-28.935,65.926-65.84c0.045-37.165-29.011-66.311-66.069-66.272c-36.805,0.037-65.935,29.139-65.982,65.919
		C1251.219,356.274,1280.266,385.35,1317.394,385.328z"/>
	<path fill-rule="evenodd" clip-rule="evenodd" fill="#632678" d="M99.255,144.038c11.162-0.002,22.325-0.095,33.486,0.018
		c22.216,0.224,37.612,15.511,37.796,37.787c0.185,22.322,0.18,44.648,0.004,66.971c-0.175,22.102-15.595,37.734-37.729,38.016
		c-22.487,0.285-44.983,0.271-67.471,0.005C43.77,286.578,28.248,271,28.037,249.479c-0.224-22.822-0.241-45.649,0.012-68.471
		c0.233-21.102,16.056-36.651,37.222-36.941C76.597,143.912,87.927,144.04,99.255,144.038z"/>
	<path fill-rule="evenodd" clip-rule="evenodd" fill="#406EB3" d="M260.75,149.428c-9.99,0.001-19.981,0.091-29.97-0.019
		c-18.908-0.208-32.934-13.712-33.25-32.631c-0.343-20.474-0.308-40.961-0.015-61.437c0.269-18.826,14.794-32.887,33.673-32.991
		c19.979-0.111,39.961-0.118,59.94,0.003c18.741,0.112,33.051,13.991,33.304,32.655c0.28,20.642,0.278,41.293,0.006,61.936
		c-0.248,18.776-13.969,32.202-32.72,32.457C281.398,149.542,271.074,149.426,260.75,149.428z"/>
	<path fill-rule="evenodd" clip-rule="evenodd" fill="#27478D" d="M1480.742,236.393c32.608-22.945,75.639-19.668,104.043,3.419
		c18.358,14.922,29.425,33.904,29.646,58.003c0.313,34.147,0.144,68.3,0.085,102.449c-0.015,8.174-5.238,14.44-12.946,16.097
		c-7.178,1.543-14.75-1.989-17.753-8.836c-1.152-2.629-1.536-5.78-1.546-8.697c-0.106-31.317,0.014-62.636-0.093-93.953
		c-0.085-24.962-16.642-46.364-41.016-50.889c-18.836-3.497-37.089-1.166-50.819,14.469c-7.625,8.683-9.895,19.52-9.958,30.702
		c-0.19,33.648-0.076,67.3-0.141,100.949c-0.016,8.246-5.442,14.73-13.37,16.318c-7.368,1.476-14.987-2.442-17.757-9.642
		c-1.039-2.702-1.306-5.84-1.31-8.78c-0.075-52.474-0.063-104.948-0.047-157.423c0.003-9.982,5.176-17.041,13.354-18.396
		c8.652-1.435,15.515,3.304,19.023,13.123C1480.247,235.61,1480.453,235.878,1480.742,236.393z"/>
	<path fill-rule="evenodd" clip-rule="evenodd" fill="#27488D" d="M489.764,350.829c-8.263,12.55-16.306,24.752-24.334,36.965
		c-4.48,6.814-8.89,13.676-13.416,20.46c-5.363,8.038-15.624,10.565-23.154,5.796c-7.55-4.782-9.463-15.059-4.242-23.291
		c14.168-22.347,28.307-44.713,42.648-66.947c1.936-3,1.823-5.026-0.041-7.927c-14.218-22.117-28.28-44.334-42.364-66.537
		c-5.47-8.622-3.812-18.276,3.914-23.196c8.112-5.167,18.528-2.801,23.944,5.686c11.102,17.395,22.067,34.876,33.095,52.317
		c0.967,1.529,1.978,3.031,3.399,5.205c1.25-1.83,2.262-3.235,3.196-4.691c11.51-17.924,23.005-35.858,34.513-53.784
		c3.869-6.028,9.725-7.953,16.416-7.197c6.693,0.756,11.395,4.55,13.388,11.105c1.528,5.029,0.669,9.681-2.26,14.242
		c-14.295,22.265-28.341,44.689-42.662,66.938c-1.919,2.98-1.824,4.965,0.057,7.886c14.144,21.968,28.095,44.059,42.099,66.114
		c5.502,8.665,4.209,18.843-2.975,23.557c-8.409,5.518-18.59,2.974-24.565-6.235c-11.143-17.172-22.23-34.379-33.35-51.565
		C492.083,354.203,491.04,352.715,489.764,350.829z"/>
	<path fill-rule="evenodd" clip-rule="evenodd" fill="#B92F7D" d="M214.772,562.357c-8.496-0.005-16.995,0.132-25.487-0.036
		c-14.697-0.291-25.979-11.236-26.24-25.943c-0.305-17.153-0.308-34.32-0.002-51.474c0.259-14.542,11.252-25.58,25.754-25.848
		c17.152-0.317,34.319-0.321,51.473-0.017c14.914,0.264,25.906,11.701,26.032,26.687c0.14,16.657,0.15,33.319-0.005,49.977
		c-0.144,15.331-11.202,26.362-26.536,26.634C231.434,562.484,223.102,562.363,214.772,562.357z"/>
	<path fill-rule="evenodd" clip-rule="evenodd" fill="#28498E" d="M1061.461,236.488c14.146-9.942,29.493-15.253,46.437-15.628
		c2.632-0.059,5.384,0.068,7.894,0.772c7.495,2.104,12.801,9.329,12.319,16.266c-0.519,7.466-6.372,14.073-14.152,15.352
		c-5.567,0.915-11.276,0.96-16.849,1.854c-22.502,3.606-35.506,18.021-35.824,40.978c-0.469,33.802-0.293,67.614-0.237,101.422
		c0.012,6.867-2.05,12.425-7.961,16.172c-10.318,6.541-23.857-0.39-24.688-12.633c-0.169-2.487-0.047-4.995-0.047-7.493
		c-0.002-50.297-0.002-100.594-0.001-150.891c0-11.836,4.584-18.899,13.284-20.473
		C1050.269,220.624,1056.983,225.336,1061.461,236.488z"/>
	<path fill-rule="evenodd" clip-rule="evenodd" fill="#982981" d="M106.16,342.981c6.993,0.003,13.987-0.105,20.978,0.026
		c12.656,0.239,22.018,9.554,22.151,22.204c0.147,13.983,0.129,27.972,0.01,41.956c-0.104,12.287-8.603,21.795-21.006,22.284
		c-14.791,0.583-29.639,0.543-44.433-0.007c-12.342-0.459-20.991-9.7-21.272-22.112c-0.315-13.979-0.299-27.975-0.01-41.954
		c0.274-13.223,9.817-22.246,23.103-22.388C92.506,342.918,99.333,342.978,106.16,342.981z"/>
	<path fill-rule="evenodd" clip-rule="evenodd" fill="#26478D" d="M1191.311,319.717c0,26.809,0.03,53.617-0.019,80.425
		c-0.015,7.877-5.312,14.337-12.987,16.18c-6.823,1.639-14.609-2.062-17.756-8.883c-1.07-2.318-1.517-5.123-1.521-7.707
		c-0.084-53.617-0.088-107.234-0.041-160.852c0.009-10.129,6.778-17.015,16.279-16.909c9.244,0.103,16.024,7.364,16.035,17.32
		C1191.332,266.1,1191.312,292.909,1191.311,319.717z"/>
	<path fill-rule="evenodd" clip-rule="evenodd" fill="#BA317E" d="M440.082,139.937c0.002,5.166,0.027,10.332-0.003,15.497
		c-0.067,11.353-7.13,19.025-18.44,19.334c-11.489,0.314-23,0.312-34.489,0.001c-10.207-0.276-17.728-7.501-18.107-17.693
		c-0.44-11.813-0.435-23.665-0.031-35.479c0.356-10.466,7.832-17.702,18.35-18.003c11.321-0.323,22.667-0.328,33.988-0.011
		c11.059,0.31,18.499,8.243,18.712,19.358C440.168,128.604,440.08,134.271,440.082,139.937z"/>
	<path fill-rule="evenodd" clip-rule="evenodd" fill="#28498E" d="M1155.074,178.201c-0.025-10.915,9.076-19.836,20.146-19.745
		c10.845,0.089,19.542,8.964,19.449,19.847c-0.092,10.747-8.563,19.293-19.291,19.461
		C1164.293,197.938,1155.098,189.079,1155.074,178.201z"/>
	<path fill-rule="evenodd" clip-rule="evenodd" fill="#2C4C8F" d="M1680.726,406.499c2.604-7.649,4.72-13.923,6.882-20.181
		c0.93-2.688,1.75-5.759,5.559-5.141c3.71,0.603,3.16,3.702,3.167,6.318c0.024,8.153,0.164,16.311-0.123,24.453
		c-0.057,1.615-1.812,3.17-2.782,4.753c-0.903-1.519-2.485-2.993-2.585-4.563c-0.33-5.178-0.124-10.389-1.242-15.742
		c-2.03,5.701-3.997,11.427-6.144,17.084c-0.455,1.197-1.568,2.145-2.379,3.208c-0.972-1.01-2.368-1.853-2.842-3.058
		c-2.064-5.249-3.85-10.607-5.771-15.914c-0.194-0.537-0.616-0.991-1.863-1.335c0,5.238,0.197,10.487-0.119,15.706
		c-0.097,1.58-1.614,3.074-2.481,4.607c-0.969-1.572-2.725-3.119-2.777-4.723c-0.279-8.476-0.309-16.973,0.012-25.445
		c0.069-1.833,1.934-3.597,2.972-5.393c1.731,1.412,4.289,2.481,5.044,4.299C1675.914,391.843,1677.956,398.509,1680.726,406.499z"
		/>
	<path fill-rule="evenodd" clip-rule="evenodd" fill="#305092" d="M1652.222,386.499c0,8.709,0.009,16.851-0.005,24.992
		c-0.004,2.312,0.353,5.321-3.018,4.975c-1.079-0.111-2.592-3.102-2.65-4.817c-0.279-8.131-0.125-16.275-0.125-24.794
		c-2.262-0.148-4.26-0.019-6.097-0.5c-1.035-0.271-2.668-1.788-2.52-2.324c0.316-1.141,1.586-2.813,2.525-2.854
		c5.98-0.259,11.983-0.261,17.965-0.005c0.966,0.041,1.859,1.789,2.787,2.749c-1.044,0.859-1.975,2.17-3.16,2.471
		C1656.243,386.816,1654.372,386.499,1652.222,386.499z"/>
</g>
</svg>
