<?xml version="1.0" encoding="utf-8"?>
<!-- Generator: Adobe Illustrator 16.0.0, SVG Export Plug-In . SVG Version: 6.00 Build 0)  -->
<!DOCTYPE svg PUBLIC "-//W3C//DTD SVG 1.1//EN" "http://www.w3.org/Graphics/SVG/1.1/DTD/svg11.dtd">
<svg version="1.1" id="Layer_1" xmlns="http://www.w3.org/2000/svg" xmlns:xlink="http://www.w3.org/1999/xlink" x="0px" y="0px"
	 width="173.944px" height="94.988px" viewBox="0 0 173.944 94.988" enable-background="new 0 0 173.944 94.988"
	 xml:space="preserve">
<g>
	<path fill-rule="evenodd" clip-rule="evenodd" fill="#FDFCFC" d="M0.966-1C7.17,9.99,13.313,21.014,19.592,31.96
		c11.338,19.768,22.821,39.452,34.07,59.27c1.624,2.859,3.398,3.839,6.66,3.827c36.472-0.12,72.944-0.141,109.417,0.017
		c4.049,0.018,5.33-0.873,5.304-5.144c-0.193-30.31-0.101-60.62-0.099-90.931c1.596-0.342,0.978,0.893,0.979,1.5
		c0.024,30.996-0.007,61.993,0.083,92.989c0.007,2.146-0.415,2.563-2.562,2.56c-57.325-0.076-114.652-0.076-171.978,0
		c-2.146,0.003-2.568-0.413-2.562-2.56C-1.005,62.825-1.033,32.163-1.036,1.5C-1.036,0.118-1.503-1.608,0.966-1z M0.883,26.871
		c-0.296,0.09-0.593,0.181-0.889,0.271c0,21.604,0.035,43.21-0.05,64.814c-0.009,2.385,0.666,3.126,3.066,3.081
		c7.479-0.14,14.966,0.08,22.443-0.098c4.708-0.112,9.467,0.82,14.126-0.544c-2.234-4.03-4.413-8.094-6.711-12.087
		C22.226,63.818,11.548,45.349,0.883,26.871z"/>
	<path fill-rule="evenodd" clip-rule="evenodd" fill="#818285" d="M0.966-1c57.993,0,115.985,0,173.978,0
		c-0.002,30.311-0.095,60.621,0.099,90.931c0,6.117,2.133,5.144-5.304,5.144c-36.473-0.157-72.945-0.137-109.417-0.017
		c-3.261,0.012-5.036-0.968-6.66-3.827c-11.25-19.818-22.732-39.502-34.07-59.27C13.313,21.014,7.17,9.99,0.966-1z M107.338,76.501
		c8.781,0.007,15.733-4.756,17.531-12.008c2.052-8.278-1.141-14.527-9.862-18.985c-3.994-2.042-8.173-3.725-12.126-5.836
		c-2.982-1.592-4.889-4.136-4.139-7.771c0.78-3.789,3.621-5.408,7.14-5.975c3.931-0.633,7.601,0.206,10.974,2.341
		c2.479,1.57,4.597,1.616,6.282-1.258c1.789-3.05,0.085-4.646-2.274-6.001c-7.098-4.077-14.492-4.793-21.983-1.347
		c-7.031,3.236-10.466,10.812-8.428,17.804c1.358,4.661,4.686,7.559,8.798,9.678c4.28,2.206,8.725,4.112,12.923,6.461
		c3.444,1.927,5.579,4.924,4.334,9.114c-1.227,4.13-4.565,5.4-8.528,5.558c-4.358,0.172-8.185-1.257-11.578-3.886
		c-2.343-1.814-4.216-1.396-5.951,0.863c-1.859,2.419-1.115,4.283,1.09,5.917C96.231,74.65,101.494,76.437,107.338,76.501z
		 M57.128,17.593c0-0.026,0-0.053,0-0.079c-2.498,0-4.995-0.016-7.493,0.004c-2.552,0.02-4.113,1.135-4.14,3.87
		c-0.026,2.673,1.372,4.001,3.976,4.05c3.496,0.065,6.993,0.003,10.488,0.087c7.065,0.169,10.456,2.782,10.913,8.318
		c0.496,6.012-2.332,9.591-8.957,10.958c-2.11,0.437-3.939,1.117-2.744,3.45c4.548,8.878,9.188,17.72,14.156,26.365
		c1.399,2.434,4.572,2.174,6.826,1.001c2.791-1.45,1.182-3.663,0.171-5.555c-2.901-5.43-5.729-10.9-8.779-16.244
		c-1.158-2.031-1.377-3.046,0.865-4.713c6.52-4.849,8.792-12.889,6.347-20.469c-2.189-6.787-7.616-10.522-16.139-11.029
		C60.794,17.5,58.958,17.593,57.128,17.593z M143.928,47.479c0-7.978-0.049-15.956,0.026-23.932
		c0.026-2.876-0.676-4.932-4.002-5.056c-3.635-0.135-4.422,2.042-4.414,5.133c0.045,15.622,0.038,31.245,0.009,46.867
		c-0.006,2.813,0.626,5.021,3.985,5.087c3.519,0.067,4.469-1.994,4.429-5.165C143.863,62.769,143.929,55.123,143.928,47.479z"/>
	<path fill-rule="evenodd" clip-rule="evenodd" fill="#FDFCFC" d="M107.338,76.499c-5.845-0.063-11.107-1.849-15.799-5.329
		c-2.205-1.634-2.949-3.498-1.09-5.917c1.735-2.259,3.608-2.678,5.951-0.863c3.394,2.629,7.22,4.058,11.578,3.886
		c3.963-0.157,7.302-1.428,8.528-5.558c1.245-4.19-0.89-7.188-4.334-9.114c-4.198-2.349-8.643-4.255-12.923-6.461
		c-4.112-2.119-7.439-5.017-8.798-9.678c-2.038-6.992,1.396-14.568,8.428-17.804c7.491-3.447,14.886-2.73,21.983,1.347
		c2.359,1.355,4.063,2.951,2.274,6.001c-1.686,2.874-3.803,2.828-6.282,1.258c-3.373-2.135-7.043-2.974-10.974-2.341
		c-3.519,0.566-6.359,2.186-7.14,5.975c-0.75,3.635,1.156,6.179,4.139,7.771c3.953,2.111,8.132,3.794,12.126,5.836
		c8.722,4.458,11.914,10.707,9.862,18.985C123.072,71.745,116.12,76.508,107.338,76.499z"/>
	<path fill-rule="evenodd" clip-rule="evenodd" fill="#FDFCFC" d="M57.128,17.593c1.831,0,3.667-0.093,5.49,0.016
		c8.522,0.507,13.949,4.242,16.139,11.029c2.445,7.58,0.173,15.62-6.347,20.469c-2.242,1.667-2.023,2.682-0.865,4.713
		c3.049,5.344,5.878,10.814,8.779,16.244c1.011,1.892,2.62,4.104-0.171,5.555c-2.254,1.173-5.427,1.433-6.826-1.001
		c-4.969-8.646-9.608-17.487-14.156-26.365c-1.195-2.333,0.634-3.014,2.744-3.45c6.625-1.367,9.453-4.947,8.957-10.958
		c-0.457-5.537-3.847-8.149-10.913-8.318c-3.495-0.084-6.992-0.021-10.488-0.087c-2.604-0.049-4.002-1.377-3.976-4.05
		c0.027-2.735,1.588-3.85,4.14-3.87c2.498-0.02,4.995-0.004,7.493-0.004C57.128,17.541,57.128,17.567,57.128,17.593z"/>
	<path fill-rule="evenodd" clip-rule="evenodd" fill="#FDFCFC" d="M143.929,47.479c0,7.645-0.066,15.29,0.032,22.934
		c0.04,3.171-0.91,5.232-4.429,5.165c-3.359-0.065-3.991-2.273-3.985-5.087c0.029-15.622,0.036-31.245-0.009-46.867
		c-0.008-3.09,0.779-5.268,4.414-5.133c3.326,0.124,4.028,2.179,4.002,5.056C143.879,31.523,143.928,39.5,143.929,47.479z"/>
	<path fill-rule="evenodd" clip-rule="evenodd" fill="#B11318" d="M0.883,26.871c10.665,18.478,21.342,36.947,31.986,55.438
		c2.299,3.993,4.478,8.057,6.711,12.087c-4.66,1.364-9.419,0.432-14.126,0.544c-7.478,0.178-14.964-0.042-22.443,0.098
		c-2.4,0.045-3.076-0.696-3.066-3.081c0.084-21.604,0.05-43.21,0.05-64.814C0.291,27.052,0.587,26.961,0.883,26.871z"/>
</g>
</svg>
