<svg id="Layer_1" data-name="Layer 1" xmlns="http://www.w3.org/2000/svg" width="120" height="120" viewBox="0 0 120 120"><title>help1</title><g id="Layer_1-2" data-name="Layer 1"><path d="M102.81,104.92a6.92,6.92,0,0,1-8.61,4.53L17.88,85.37a6.94,6.94,0,0,1-4.54-8.61L27.11,33.44a6.92,6.92,0,0,1,8.6-4.54L111.88,53a6.92,6.92,0,0,1,4.53,8.6Z" fill="#4057a9" stroke="#fff" stroke-miterlimit="10" stroke-width="5.01"/><g id="MK_Logo" data-name="MK Logo"><path d="M66.05,64.1h0a5.46,5.46,0,0,1,1.41-.63h.31c2.82.94,5.48,1.72,8.29,2.66h.31c4.07-2.19,12.36-6.57,12.36-6.57,1.72,3.44,3.44,6.73,5.32,10,0,0-5.48,2.82-8.14,4.22h-.15c-.94-.31-2-.62-2.82-.94h0c2.82-1.4,5.48-2.81,8.14-4.22-.94-2-2-4.07-3.13-5.94,0,0-10,5.32-11.26,5.94h-.32c-3-.94-6.1-1.88-9.07-2.81-.15,0-.15-.16-.15-.16-.32-.31-.32-.78-.63-1.25-.47-.16-.47-.16-.47-.31Z" fill="#fff"/><path d="M90.45,53.46c0,.16,6.41,12.2,9.38,18.14a.16.16,0,0,0,.16.16h-.16L97,70.82l-.16-.16c-1.72-3.44-6.57-12.82-7.19-14.07v-.16h0a.16.16,0,0,0-.16.16c-4.69,2.34-9.38,4.85-14.07,7.19h-.32l-2.81-.94h-.16s.16,0,.16-.15c3-1.25,18.14-9.23,18.14-9.23Z" fill="#fff"/><path d="M80,86.93c0-.16-7.82-15.17-9.38-18.14a.16.16,0,0,0-.16-.16h.16l2.81.94a.16.16,0,0,1,.16.16c0,.15,7.35,14.07,7.35,14.23.16,0,9.54-5,14.08-7.35h.31l2.81.94h.16s-.16,0-.16.15c-5.78,2.82-18,9.23-18.14,9.23Z" fill="#fff"/><path d="M76.69,70.82S82.16,68,84.82,66.6h.31c.94.31,2.82.94,3,.94-2.81,1.4-5.47,2.81-8.29,4.22.94,2,2.19,4.07,3.13,5.94,0,0,7.51-3.91,11.26-5.94h.32c3,.94,6.1,1.88,9.07,2.81.15,0,.62.94.94,1.57a14.11,14.11,0,0,1-1.57.78c-1.4-.47-6.88-2.19-8.29-2.66h-.31L82,80.83C80.13,77.55,78.41,74.11,76.69,70.82Z" fill="#fff"/></g><line x1="35.08" y1="38.13" x2="69.18" y2="48.92" fill="none" stroke="#fff" stroke-linecap="round" stroke-miterlimit="10" stroke-width="5.01"/><line x1="32.74" y1="45.64" x2="49.78" y2="50.96" fill="none" stroke="#fff" stroke-linecap="round" stroke-miterlimit="10" stroke-width="5.01"/><line x1="22.73" y1="77.39" x2="36.65" y2="81.77" fill="none" stroke="#fff" stroke-linecap="round" stroke-miterlimit="10" stroke-width="5.01"/><line x1="80.91" y1="95.85" x2="94.83" y2="100.23" fill="none" stroke="#fff" stroke-linecap="round" stroke-miterlimit="10" stroke-width="5.01"/><line x1="61.51" y1="89.75" x2="75.44" y2="94.13" fill="none" stroke="#fff" stroke-linecap="round" stroke-miterlimit="10" stroke-width="5.01"/><line x1="42.12" y1="83.49" x2="56.04" y2="87.87" fill="none" stroke="#fff" stroke-linecap="round" stroke-miterlimit="10" stroke-width="5.01"/><path d="M107.81,82.55a7,7,0,0,1-7.19,6.57L20.85,85.68a7,7,0,0,1-6.57-7.19l2-45.36a7,7,0,0,1,7.2-6.57L103.28,30a6.94,6.94,0,0,1,6.56,7.19Z" fill="#4057a9" stroke="#fff" stroke-miterlimit="10" stroke-width="5.01"/><g id="MK_Logo-2" data-name="MK Logo"><path d="M61.67,52.68h0c.31-.31.78-.63,1.1-.94.15,0,.15-.16.31-.16,2.81.16,5.79.32,8.6.32.16,0,.16,0,.31-.16,3.45-3.13,10.33-9.54,10.33-9.54,2.5,2.81,5.16,5.63,7.66,8.44,0,0-4.53,4.07-6.72,6.26l-.16.16c-.94,0-2-.16-3.13-.16h0c2.19-2.19,4.54-4.07,6.73-6.26-1.57-1.56-3-3.28-4.54-4.84,0,0-8.29,7.66-9.38,8.44-.16.16-.16.16-.32.16-3.28-.16-6.41-.31-9.69-.31-.16,0-.16,0-.32-.16L61.51,53c.32-.16.32-.16.16-.31Z" fill="#fff"/><path d="M82.63,35.94c0,.16,9.38,10.33,13.76,15.17l.16.16h-.16c-.93,0-2-.16-3-.16a.15.15,0,0,1-.15-.15c-2.66-2.82-9.7-10.64-10.64-11.58a.15.15,0,0,0-.16-.15h0a.15.15,0,0,1-.15.15C78.41,42.82,74.5,46.58,70.74,50c-.15.16-.15.16-.31.16-.94,0-2-.16-2.82-.16h-.15l.15-.16c2.19-2.19,14.86-13.76,15-13.92Z" fill="#fff"/><path d="M81.07,71.13C80.91,71,69.49,58.62,67.3,56l-.15-.15h.15c.94,0,2,.15,3,.15a.16.16,0,0,1,.16.16c.16.16,10.79,11.73,10.79,11.89,0-.16,7.82-7.2,11.73-10.8.16-.15.16-.15.32-.15.93,0,2,.15,2.81.15h0v.16c-4.85,4.38-15,13.61-15,13.76Z" fill="#fff"/><path d="M73.71,56.43s4.54-4.06,6.73-6.25c.16-.16.16-.16.31-.16.94,0,3,.16,3.13.16-2.19,2.19-4.69,4.22-6.88,6.25,1.56,1.57,3,3.29,4.53,5,0,0,6.26-5.79,9.39-8.61.16-.15.16-.15.31-.15,3.29.15,6.41.31,9.7.31.16,0,.94.94,1.25,1.25a5.86,5.86,0,0,1-1.56,1.1C99.05,55.18,93.42,55,92,55c-.15,0-.15,0-.31.16L81.53,64.72Z" fill="#fff"/></g><line x1="25.07" y1="35.63" x2="60.73" y2="37.19" fill="none" stroke="#fff" stroke-linecap="round" stroke-miterlimit="10" stroke-width="5.01"/><line x1="24.76" y1="43.45" x2="42.75" y2="44.23" fill="none" stroke="#fff" stroke-linecap="round" stroke-miterlimit="10" stroke-width="5.01"/><line x1="23.35" y1="76.76" x2="37.9" y2="77.39" fill="none" stroke="#fff" stroke-linecap="round" stroke-miterlimit="10" stroke-width="5.01"/><line x1="84.19" y1="79.42" x2="98.74" y2="80.21" fill="none" stroke="#fff" stroke-linecap="round" stroke-miterlimit="10" stroke-width="5.01"/><line x1="63.86" y1="78.49" x2="78.56" y2="79.11" fill="none" stroke="#fff" stroke-linecap="round" stroke-miterlimit="10" stroke-width="5.01"/><line x1="43.53" y1="77.7" x2="58.07" y2="78.33" fill="none" stroke="#fff" stroke-linecap="round" stroke-miterlimit="10" stroke-width="5.01"/><path d="M104.84,60a6.93,6.93,0,0,1-5.32,8.29l-78,17.2a6.92,6.92,0,0,1-8.28-5.31L3.49,35.94a6.93,6.93,0,0,1,5.32-8.29L86.7,10.45A6.93,6.93,0,0,1,95,15.77Z" fill="#4057a9" stroke="#fff" stroke-miterlimit="10" stroke-width="5.01"/><g id="MK_Logo-3" data-name="MK Logo"><path d="M52.76,43.14h0c.31-.47.62-.94.78-1.25a.15.15,0,0,1,.15-.16l8.45-1.88c.16,0,.16-.15.31-.15C65,35.79,70,28,70,28c3.29,2,6.41,4.06,9.54,6.1,0,0-3.44,5.31-5,7.82l-.32.15a20.68,20.68,0,0,1-3,.63h0c1.57-2.66,3.29-5.32,5-7.82-1.88-1.25-3.76-2.35-5.63-3.6,0,0-6,9.54-6.73,10.64,0,.15-.16.15-.31.15-3.13.78-6.26,1.41-9.39,2.19h-.31c-.31-.31-.78-.47-1.09-.78v-.31Z" fill="#fff"/><path d="M68.55,21.55c.16,0,11.58,7.51,17.21,11a.15.15,0,0,1,.15.16h-.15c-.94.31-2,.31-3,.62h-.32c-3.28-2-12.2-7.82-13.29-8.44a.16.16,0,0,1-.16-.16h0v.16c-2.81,4.38-5.63,8.91-8.44,13.29,0,.16-.16.16-.32.16-.93.31-1.87.31-2.81.62h-.16a.15.15,0,0,1,.16-.15c1.72-2.66,11-17,11.1-17.21Z" fill="#fff"/><path d="M76.06,56c-.16-.15-14.39-9.07-17.2-11,0,0-.16,0-.16-.15h.16c.93-.32,2-.32,3-.63H62c.16,0,13.46,8.6,13.46,8.6s5.78-9.07,8.44-13.45c0-.15.16-.15.31-.15.94-.32,1.88-.32,2.82-.63h.16a.16.16,0,0,1-.16.16c-3.44,5.47-11,17.05-11,17.2Z" fill="#fff"/><path d="M65.27,43.61s3.44-5.32,5-7.82c0-.16.16-.16.32-.16a26.27,26.27,0,0,1,3-.63c-1.57,2.66-3.44,5.32-5,7.82,1.88,1.26,3.76,2.35,5.63,3.6,0,0,4.54-7.19,6.73-10.63,0-.16.16-.16.31-.16,3.13-.78,6.26-1.41,9.39-2.19a10.68,10.68,0,0,1,1.56.94,10.75,10.75,0,0,0-.94,1.41c-1.56.31-7.19,1.56-8.44,1.87-.16,0-.16,0-.32.16S75,49.55,75,49.55C71.52,47.67,68.4,45.64,65.27,43.61Z" fill="#fff"/></g><line x1="12.87" y1="36.1" x2="47.59" y2="28.43" fill="none" stroke="#fff" stroke-linecap="round" stroke-miterlimit="10" stroke-width="5.01"/><line x1="14.59" y1="43.76" x2="32.11" y2="39.85" fill="none" stroke="#fff" stroke-linecap="round" stroke-miterlimit="10" stroke-width="5.01"/><line x1="21.63" y1="76.3" x2="36.02" y2="73.17" fill="none" stroke="#fff" stroke-linecap="round" stroke-miterlimit="10" stroke-width="5.01"/><line x1="81.22" y1="63.16" x2="95.46" y2="60.03" fill="none" stroke="#fff" stroke-linecap="round" stroke-miterlimit="10" stroke-width="5.01"/><line x1="61.51" y1="67.54" x2="75.59" y2="64.41" fill="none" stroke="#fff" stroke-linecap="round" stroke-miterlimit="10" stroke-width="5.01"/><line x1="41.65" y1="71.92" x2="55.73" y2="68.79" fill="none" stroke="#fff" stroke-linecap="round" stroke-miterlimit="10" stroke-width="5.01"/></g></svg>