<svg id="Layer_1" data-name="Layer 1" xmlns="http://www.w3.org/2000/svg" width="120" height="120" viewBox="0 0 120 120"><title>help4</title><g id="Layer_1-2" data-name="Layer 1"><line x1="38.09" y1="40.69" x2="46.85" y2="80.71" fill="none" stroke="#fff" stroke-linejoin="round" stroke-width="4.67"/><line x1="66.28" y1="61.29" x2="27.72" y2="61.29" fill="none" stroke="#fff" stroke-linejoin="round" stroke-width="4.67"/><line x1="77.52" y1="64.21" x2="74.89" y2="80.71" fill="none" stroke="#fff" stroke-linejoin="round" stroke-width="4.67"/><line x1="61.46" y1="62.75" x2="61.46" y2="80.71" fill="none" stroke="#fff" stroke-linejoin="round" stroke-width="4.67"/><polyline points="20.12 39.09 100.31 39.09 89.06 81.88 32.68 81.88" fill="#4057a9" stroke="#fff" stroke-linejoin="round" stroke-width="4.67"/><line x1="37.79" y1="39.23" x2="47" y2="82.32" fill="none" stroke="#fff" stroke-linejoin="round" stroke-width="4.67"/><line x1="83.36" y1="39.23" x2="74.16" y2="82.32" fill="none" stroke="#fff" stroke-linejoin="round" stroke-width="4.67"/><line x1="61.46" y1="82.47" x2="61.46" y2="39.09" fill="none" stroke="#fff" stroke-linejoin="round" stroke-width="4.67"/><line x1="27.28" y1="61.43" x2="94.17" y2="61.43" fill="none" stroke="#fff" stroke-linejoin="round" stroke-width="4.67"/><polyline points="6.1 25.94 16.32 25.94 37.65 97.51 86.72 97.51" fill="none" stroke="#fff" stroke-linecap="round" stroke-linejoin="round" stroke-width="4.67"/><circle cx="44.66" cy="101.6" r="5.84" fill="#4057a9" stroke="#fff" stroke-linejoin="round" stroke-width="4.67"/><circle cx="82.49" cy="101.6" r="5.84" fill="#4057a9" stroke="#fff" stroke-linejoin="round" stroke-width="4.67"/><circle cx="94.17" cy="38.65" r="18.4" fill="#4057a9" stroke="#fff" stroke-linejoin="round" stroke-width="4.67"/><line x1="83.66" y1="38.65" x2="104.69" y2="38.65" fill="none" stroke="#fff" stroke-linecap="round" stroke-linejoin="round" stroke-width="4.67"/><line x1="94.17" y1="28.13" x2="94.17" y2="49.16" fill="none" stroke="#fff" stroke-linecap="round" stroke-linejoin="round" stroke-width="4.67"/></g></svg>