<svg id="Layer_1" data-name="Layer 1" xmlns="http://www.w3.org/2000/svg" width="120" height="120" viewBox="0 0 120 120"><title>help6</title><g id="Layer_1-2" data-name="Layer 1"><path d="M66.32,32.25H41.74a3.17,3.17,0,1,0,0,6.34H66.32a3.18,3.18,0,0,0,3.17-3.17A3.29,3.29,0,0,0,66.32,32.25Z" fill="#fff"/><path d="M66.32,44.62H41.74a3.17,3.17,0,0,0-3.17,3.17A3,3,0,0,0,41.74,51H66.32a3.18,3.18,0,0,0,3.17-3.17A3.08,3.08,0,0,0,66.32,44.62Z" fill="#fff"/><path d="M84.71,56.83H41.9A3.17,3.17,0,0,0,38.73,60a3.08,3.08,0,0,0,3.17,3.17H84.71A3.08,3.08,0,0,0,87.88,60,3.28,3.28,0,0,0,84.71,56.83Z" fill="#fff"/><path d="M68.38,76.17a2.89,2.89,0,0,0-4.28,0L47.92,92.35l-4-4a2.89,2.89,0,0,0-4.28,0,3,3,0,0,0,0,4.29l6.18,6a2.88,2.88,0,0,0,4.28,0L68.54,80.3A2.84,2.84,0,0,0,68.38,76.17Z" fill="#fff"/><polygon points="84.24 97.58 17 97.58 17 11 67.59 11 84.24 11 84.24 27.65 84.24 97.58" fill="#4057a9" stroke="#fff" stroke-linejoin="round" stroke-width="4.44"/><polygon points="95.34 38.91 95.34 109 28.1 109 28.1 22.42 78.69 22.42 78.69 38.91 95.34 38.91" fill="#4057a9" stroke="#fff" stroke-linejoin="round" stroke-width="4.44"/><polygon points="95.34 38.91 78.69 38.91 78.69 22.42 95.34 38.91" fill="#4057a9" stroke="#fff" stroke-linejoin="round" stroke-width="4.44"/><line x1="34.6" y1="34.63" x2="62.35" y2="34.63" fill="none" stroke="#fff" stroke-linecap="round" stroke-linejoin="round" stroke-width="4.44"/><line x1="34.6" y1="46.52" x2="62.35" y2="46.52" fill="none" stroke="#fff" stroke-linecap="round" stroke-linejoin="round" stroke-width="4.44"/><line x1="34.6" y1="59.05" x2="76.94" y2="59.05" fill="none" stroke="#fff" stroke-linecap="round" stroke-linejoin="round" stroke-width="4.44"/><polyline points="37.93 87.59 43.96 93.3 63.46 75.54" fill="#4057a9" stroke="#fff" stroke-linecap="round" stroke-linejoin="round" stroke-width="4.44"/><path d="M68.85,96l3.81-12.53,30.6-29.18c7-6.66,16,3.33,9.36,9.83l-30.76,29Z" fill="#4057a9" stroke="#fff" stroke-linejoin="round" stroke-width="4.44"/><line x1="98.82" y1="58.41" x2="108.34" y2="68.4" fill="none" stroke="#fff" stroke-linejoin="round" stroke-width="4.44"/><path d="M75.2,80.93s3-.32,6,3a11.06,11.06,0,0,1,3.33,7" fill="#4057a9" stroke="#fff" stroke-linejoin="round" stroke-width="4.44"/></g></svg>