<svg id="Layer_1" data-name="Layer 1" xmlns="http://www.w3.org/2000/svg" width="120" height="120" viewBox="0 0 120 120"><title>help7</title><g id="Layer_1-2" data-name="Layer 1"><path d="M103.67,104.32a8.19,8.19,0,0,1-8.17,8.18H24.41a8.19,8.19,0,0,1-8.18-8.18V15.68A8.2,8.2,0,0,1,24.41,7.5H95.59a8.19,8.19,0,0,1,8.18,8.18C103.67,15.68,103.67,104.32,103.67,104.32Z" fill="#4057a9" stroke="#fff" stroke-linecap="round" stroke-miterlimit="10" stroke-width="4.67"/><rect x="26.83" y="20.14" width="66.35" height="79.54" fill="#4057a9"/><path d="M93.17,98.65A1.17,1.17,0,0,1,92,99.86H28a1.29,1.29,0,0,1-1.21-1.21V21.35A1.29,1.29,0,0,1,28,20.14h64a1.3,1.3,0,0,1,1.21,1.21l-.1,77.3Z" fill="none" stroke="#fff" stroke-linecap="round" stroke-miterlimit="10" stroke-width="4.67"/><path d="M46.06,71.8a1.4,1.4,0,0,1-1.3-1.3V62.32a1.27,1.27,0,0,1,1.3-1.3h2.32a1.27,1.27,0,0,1,1.31,1.3V70.5a1.4,1.4,0,0,1-1.31,1.3Z" fill="#fff"/><path d="M48.38,61.21a1.29,1.29,0,0,1,1.21,1.21v8.17a1.3,1.3,0,0,1-1.21,1.21H46.06a1.29,1.29,0,0,1-1.21-1.21V62.42a1.18,1.18,0,0,1,1.21-1.21h2.32m0-.19H46.06a1.27,1.27,0,0,0-1.3,1.3V70.5a1.26,1.26,0,0,0,1.3,1.3h2.32a1.27,1.27,0,0,0,1.31-1.3V62.32A1.27,1.27,0,0,0,48.38,61Z" fill="#4057a9"/><path d="M51.92,71.8a1.4,1.4,0,0,1-1.3-1.3V54a1.26,1.26,0,0,1,1.3-1.3h2.32a1.4,1.4,0,0,1,1.3,1.3V70.5a1.4,1.4,0,0,1-1.3,1.3Z" fill="#fff"/><path d="M54.24,52.85a1.29,1.29,0,0,1,1.21,1.2V70.59a1.3,1.3,0,0,1-1.21,1.21H51.92a1.29,1.29,0,0,1-1.21-1.21V54a1.17,1.17,0,0,1,1.21-1.21h2.32m0-.28H51.92a1.26,1.26,0,0,0-1.3,1.3V70.31a1.27,1.27,0,0,0,1.3,1.31h2.32a1.27,1.27,0,0,0,1.3-1.31V53.87a1.29,1.29,0,0,0-1.3-1.4Z" fill="#4057a9"/><path d="M57.68,71.8a1.4,1.4,0,0,1-1.3-1.3V56.38a1.26,1.26,0,0,1,1.3-1.3H60a1.4,1.4,0,0,1,1.3,1.3V70.5A1.4,1.4,0,0,1,60,71.8Z" fill="#fff"/><path d="M60,55.17a1.29,1.29,0,0,1,1.21,1.21V70.5A1.3,1.3,0,0,1,60,71.71H57.68a1.3,1.3,0,0,1-1.21-1.21V56.38a1.17,1.17,0,0,1,1.21-1.21H60m0-.37H57.68a1.26,1.26,0,0,0-1.3,1.3V70.22a1.26,1.26,0,0,0,1.3,1.3H60a1.26,1.26,0,0,0,1.3-1.3v-14A1.28,1.28,0,0,0,60,54.8Z" fill="#4057a9"/><path d="M63.53,71.8a1.4,1.4,0,0,1-1.3-1.3V58.33a1.26,1.26,0,0,1,1.3-1.3h2.32a1.4,1.4,0,0,1,1.3,1.3V70.5a1.4,1.4,0,0,1-1.3,1.3Z" fill="#fff"/><path d="M65.85,57a1.29,1.29,0,0,1,1.21,1.2V70.41a1.3,1.3,0,0,1-1.21,1.21H63.53a1.3,1.3,0,0,1-1.21-1.21V58.33a1.18,1.18,0,0,1,1.21-1.21L65.85,57m0-.38H63.53A1.27,1.27,0,0,0,62.23,58V70.31a1.27,1.27,0,0,0,1.3,1.31h2.32a1.27,1.27,0,0,0,1.3-1.31v-12a1.43,1.43,0,0,0-1.3-1.68Z" fill="#4057a9"/><path d="M69.38,71.8a1.4,1.4,0,0,1-1.3-1.3v-21a1.27,1.27,0,0,1,1.3-1.3h2.33A1.4,1.4,0,0,1,73,49.5v21a1.4,1.4,0,0,1-1.3,1.3Z" fill="#fff"/><path d="M71.71,48.29a1.3,1.3,0,0,1,1.21,1.21v21a1.3,1.3,0,0,1-1.21,1.21H69.38a1.29,1.29,0,0,1-1.2-1.21v-21a1.17,1.17,0,0,1,1.2-1.21h2.33m0-.28H69.38a1.27,1.27,0,0,0-1.3,1.3v21a1.27,1.27,0,0,0,1.3,1.31h2.33A1.28,1.28,0,0,0,73,70.31V49.5A1.33,1.33,0,0,0,71.71,48Z" fill="#4057a9"/><path d="M36.4,71.15a1.82,1.82,0,0,1-1.86-1.3,25.85,25.85,0,0,1-1.21-13.29A26.29,26.29,0,0,1,49.5,36.86a1.84,1.84,0,0,1-.65-2.69,2.46,2.46,0,0,1,1.86-1c.37,0,.65.18,1,.18l4,2.32a1.93,1.93,0,0,1,1,1.31,1.46,1.46,0,0,1-.19,1.48l-2.32,4a2,2,0,0,1-1.67,1c-.38,0-.65-.19-1-.19a1.89,1.89,0,0,1-1-1.3,1.11,1.11,0,0,1,.19-1.3A21.92,21.92,0,0,0,37.42,57a20.79,20.79,0,0,0,1,11.15,1.44,1.44,0,0,1-.18,1.48,1.57,1.57,0,0,1-1.21,1A.67.67,0,0,1,36.4,71.15Z" fill="#fff"/><path d="M50.71,33.52c.37,0,.46.18.83.18L55.73,36a1.65,1.65,0,0,1,.65,2.32l-2.33,4.18a2.21,2.21,0,0,1-1.48.84,5.75,5.75,0,0,1-.84-.19,1.61,1.61,0,0,1-.65-2.32l.37-.65a22.06,22.06,0,0,0-14.12,17,21.48,21.48,0,0,0,1,11.34,1.6,1.6,0,0,1-1,2.14.62.62,0,0,1-.47.18,2,2,0,0,1-1.67-1.21A27.42,27.42,0,0,1,34,56.47a25.81,25.81,0,0,1,16.54-19.7l-.46-.19a1.45,1.45,0,0,1-.47-2.32c-.18-.46.47-.74,1.12-.74m0-.56h0a2.31,2.31,0,0,0-2.05,1.21A2.37,2.37,0,0,0,49,37,26.3,26.3,0,0,0,32.87,56.65a24.74,24.74,0,0,0,1.21,13.29,2.16,2.16,0,0,0,2.13,1.49,1.67,1.67,0,0,0,.84-.19,1.7,1.7,0,0,0,1.3-1.2,5.08,5.08,0,0,0,.19-1.68,21.51,21.51,0,0,1-1-11.15A21.22,21.22,0,0,1,50.06,41.42v1a3.54,3.54,0,0,0,1,1.3,2.37,2.37,0,0,0,1.21.37,2.3,2.3,0,0,0,2-1.21l2.32-4.18a1.77,1.77,0,0,0,.19-1.67,2.3,2.3,0,0,0-1-1.3l-4-2.51A1.78,1.78,0,0,0,50.71,33Z" fill="#fff"/><path d="M58.7,86.85a35.29,35.29,0,0,1-4.46-.37,23.75,23.75,0,0,1-11.71-5.29,2,2,0,0,1-4.09,0v-5a1.91,1.91,0,0,1,2-1.77H45a2.06,2.06,0,0,1,2,2,2.18,2.18,0,0,1-1.67,2,22.64,22.64,0,0,0,9.29,4.18,26,26,0,0,0,3.63.37A21.71,21.71,0,0,0,75,75.33a2,2,0,0,1,1.49-.65,2,2,0,0,1,1.3.47,1.86,1.86,0,0,1,.18,2.78A24.63,24.63,0,0,1,58.7,86.85Z" fill="#fff"/><path d="M40.58,74.68h4.83a1.68,1.68,0,0,1,0,3.35h-.65a23.47,23.47,0,0,0,10.13,4.64A25.86,25.86,0,0,0,58.7,83a22,22,0,0,0,16.82-7.8,1.94,1.94,0,0,1,1.3-.65A3,3,0,0,1,78,75a1.83,1.83,0,0,1,.18,2.51A24.77,24.77,0,0,1,58.7,86.76a38.44,38.44,0,0,1-4.46-.37,25.72,25.72,0,0,1-12-5.67v.47a1.71,1.71,0,0,1-1.86,1.67h0a1.66,1.66,0,0,1-1.67-1.67V76.35h0v-.18h0A1.47,1.47,0,0,1,39.37,75a1.68,1.68,0,0,1,1.21-.28m0-.65h0a3.13,3.13,0,0,0-1.49.47,2.79,2.79,0,0,0-.83,1.3h0V81a2.3,2.3,0,0,0,2.32,2.32,2,2,0,0,0,2.14-1.67,25.26,25.26,0,0,0,11.52,5A37.25,37.25,0,0,0,58.7,87a26,26,0,0,0,20-9.29,2.55,2.55,0,0,0-.19-3.35A2.62,2.62,0,0,0,77,73.75a2.24,2.24,0,0,0-1.67.84A21.71,21.71,0,0,1,58.79,82.3a21.2,21.2,0,0,1-3.62-.37,20.57,20.57,0,0,1-8.64-3.62,2.35,2.35,0,0,0-1-4.46L40.58,74Z" fill="#fff"/><path d="M81,71.52c-.19,0-.37,0-.46-.18a2.34,2.34,0,0,1-1.31-1l-2.32-4a2.11,2.11,0,0,1-.18-1.49,2.29,2.29,0,0,1,1-1.3,2,2,0,0,1,1-.18,1.86,1.86,0,0,1,1.67.83,22.71,22.71,0,0,0-3.62-15.33,21.62,21.62,0,0,0-14-9,2.48,2.48,0,0,1-1.3-.84,1.8,1.8,0,0,1-.37-1.49,2,2,0,0,1,2-1.67h.37A24.82,24.82,0,0,1,80.16,46.53a27,27,0,0,1,4.37,19h0a2,2,0,0,1,1-.18,2,2,0,0,1,1.68,1,2.08,2.08,0,0,1-.65,2.79l-4,2.32A6.84,6.84,0,0,0,81,71.52Z" fill="#fff"/><path d="M62.88,36h.37a25.48,25.48,0,0,1,16.54,10.5,26,26,0,0,1,4.18,19c0,.19,0,.19-.18.37l.65-.37c.18-.18.46-.18.83-.18a2.05,2.05,0,0,1,1.49.83,1.82,1.82,0,0,1-.46,2.33l-4,2.32c-.18.18-.65.18-.84.18s-.37,0-.46-.18a1.89,1.89,0,0,1-1-.84l-2.33-4.18a1.69,1.69,0,0,1,.66-2.32c.18-.19.46-.19.83-.19a2,2,0,0,1,1.49.84l.18.46A21.88,21.88,0,0,0,77.19,48a22.56,22.56,0,0,0-14.12-9.2,1.6,1.6,0,0,1-1.3-2c-.56-.28.27-.74,1.11-.74m0-.65h0a2.31,2.31,0,0,0-2.32,1.85,2.28,2.28,0,0,0,.37,1.86,3.86,3.86,0,0,0,1.49,1,22.18,22.18,0,0,1,13.84,8.64,20.69,20.69,0,0,1,3.62,14.68,2.41,2.41,0,0,0-1.39-.65,3,3,0,0,0-1.21.37,5.34,5.34,0,0,0-1,1.49,1.76,1.76,0,0,0,.19,1.67l2.32,4.18c.37.65.84,1,1.3,1,.19,0,.37.19.47.19a3.09,3.09,0,0,0,1.2-.37l4-2.33c.65-.37,1-.83,1-1.3A1.79,1.79,0,0,0,86.58,66a2.67,2.67,0,0,0-2-1.21.88.88,0,0,0-.65.19,25.63,25.63,0,0,0-4.46-18.68A26.18,26.18,0,0,0,62.6,35.65c.47-.27.47-.27.28-.27Z" fill="#fff"/><circle cx="60" cy="106.18" r="2.97" fill="#fff"/><path d="M60,103.3a3,3,0,1,1-3,3,2.88,2.88,0,0,1,3-3m0-.28a3.33,3.33,0,0,0-3.35,3.35A3.22,3.22,0,0,0,60,109.71a3.13,3.13,0,0,0,3.35-3.34A3.33,3.33,0,0,0,60,103Z" fill="#4057a9"/><circle cx="60" cy="13.35" r="2.51" fill="#fff"/><path d="M60,11a2.33,2.33,0,1,1-2.32,2.32A2.3,2.3,0,0,1,60,11m0-.18a2.62,2.62,0,0,0-2.51,2.5,2.51,2.51,0,1,0,5,0A2.56,2.56,0,0,0,60,10.85Z" fill="#4057a9"/></g></svg>