<?xml version="1.0" encoding="utf-8"?>
<!-- Generator: Adobe Illustrator 21.1.0, SVG Export Plug-In . SVG Version: 6.00 Build 0)  -->
<svg version="1.1" id="Layer_1" xmlns="http://www.w3.org/2000/svg" xmlns:xlink="http://www.w3.org/1999/xlink" x="0px" y="0px"
	 viewBox="0 0 100 100" style="enable-background:new 0 0 100 100;" xml:space="preserve">
<style type="text/css">
	.st0{fill:#FFFFFF;}
</style>
<g id="XMLID_153_">
	<g id="XMLID_147_">
		<g id="XMLID_33_">
			<g id="XMLID_44_">
				<path id="XMLID_32_" class="st0" d="M28.2,31.1c-2.7,0-4.8,2.2-4.8,4.8c0,2.7,2.2,4.8,4.8,4.8s4.8-2.2,4.8-4.8
					C33,33.3,30.9,31.1,28.2,31.1z"/>
			</g>
			<g id="XMLID_42_">
				<path id="XMLID_10_" class="st0" d="M63.6,50.3c3.4-3.1,5.1-7.2,5.1-12.1v-0.5h-1.5c-0.4,0-0.7-0.4-0.7-0.8l0-1
					c-0.4,0-0.8,0.1-1.1,0.4c-0.3,0.3-0.4,0.6-0.4,1c0,2.1-0.1,3.9-0.5,5.5c-0.3,1-0.6,1.6-1,1.8l-0.4,0.2l-0.3-0.3
					c-1.5-1.3-2.9-2-3.5-2.2l-1.5,1.5l-1.5-1.5c-1.2,0.5-5.7,2.6-7.7,8.3c-0.7,2.1-1,4.4-0.9,7c0,0.4,0.2,0.8,0.5,1.1l0.2,0.1l0,0.2
					c0.3,1.7,0.1,2.7-0.6,3.2c-1.1,0.7-2.3-0.2-2.7-0.6l-0.1-0.1c-0.2-0.2-0.5-0.4-0.8-0.5l-1,1l-1-1c-0.2,0.1-0.5,0.3-0.8,0.5
					l-0.1,0.1c-0.5,0.4-1.7,1.3-2.7,0.5c-0.6-0.4-0.8-1.5-0.6-3.1l0-0.2l0.2-0.1c0.4-0.4,0.6-0.9,0.5-1.4
					c-1.9-8.5-3.6-11.9-7.4-14.2c-0.4-0.3-1.3-0.7-1.7-0.8l-1,1l1,1l-1.1,6.1c0.5,0.2,0.8,0.6,0.8,1.1c0,0.4-0.2,0.7-0.4,0.9
					c0.3,0.2,0.4,0.5,0.4,0.9c0,0.4-0.2,0.7-0.5,1c0.3,0.2,0.5,0.6,0.5,1c0,0.7-0.5,1.2-1.2,1.2c-0.7,0-1.2-0.5-1.2-1.2
					c0-0.4,0.2-0.7,0.5-1c-0.3-0.2-0.5-0.6-0.5-1c0-0.4,0.2-0.7,0.4-0.9c-0.3-0.2-0.4-0.5-0.4-0.9c0-0.5,0.3-0.8,0.6-1l-0.9-6.2
					l1-0.9l-1-1c-0.4,0.1-0.7,0.3-1.1,0.4c-7.2,3.9-7.2,11.7-6.9,14.8c0.1,0.7,0.7,1.3,1.5,1.3c0.1,0,0.1,0,0.2,0
					c0.8-0.1,1.3-0.8,1.2-1.6c-0.5-4.3,0.7-6.1,0.8-6.2l1.3-2v8.8c0,0.2,0,1.4,0,1.8v20.2c0,0.5,0.2,1,0.6,1.3
					c0.3,0.3,1,0.5,1.5,0.5c1,0,2-0.9,2-1.9v-17h2v17.1c0,1,0.5,1.8,1.5,1.8c1,0,1.7-0.8,1.7-1.8l0-20.3l0-12.1c0,0,1.3,2.2,1.7,3.8
					c0.5,1.8,1.1,3.9,1.7,6.8c0.1,0.3,0.2,0.6,0.4,0.8c0.1,0,0.1,0.1,0.2,0.1l0.4,0.2l0,0.4c-0.2,1.7,0.2,3,1,3.6
					c0.5,0.4,1,0.5,1.7,0.5c0.1,0,0.3,0,0.4,0l0.5,0c0,0,0,0.9,0,1c0,1.2,0,4.9,0,4.9c0,0.3,0.1,0.7,0.2,0.9c0,0,0.1,0.1,0.1,0.1
					l0,0.1c0,0.2,0,6.7,0,10.1c0,0.3,0.1,0.5,0.3,0.7c0.1,0.1,0.4,0.2,0.6,0.2c0.4,0,0.9-0.4,0.9-0.9v-9h2v9c0,0.5,0.4,0.9,0.8,0.9
					c0.7,0,0.7-0.6,0.7-0.9c0-3,0-8.6,0-10.1c0,0,0-0.2,0.1-0.3c0.1-0.1,0.5-0.6,0.5-0.9c0-1.3,0-5.1,0-5.1c0,0,0-0.1,0-0.1v-0.6
					l0.3,0.1c0.1,0,0,0,0.1,0c0.7,0,1.2-0.2,1.7-0.5c0.9-0.7,1.2-1.9,1-3.6L49.7,59l0.3-0.2c0.5-0.3,0.8-0.7,0.7-1.3
					c0-2.2,0.1-4,0.5-5.5c0,0,1-3.6,1.8-4.5l0,3.5l0,3.1c-0.8,3.6-2.9,13-2.9,14.3c0,0.2,0.6,0.7,3.1,1.1l0.5,0.1v10.1
					c0,0.5,0.2,1,0.5,1.4c0.3,0.3,1,0.5,1.4,0.5c1,0,2.1-0.9,2.1-1.9v-9h1.1l0,9.5c0,0.5,0.3,0.8,0.8,1.2c0.5,0.4,1.2,0.4,1.8,0.3
					c0.8-0.2,1.4-1,1.4-1.9V69.6l0.3-0.1c2.3-0.4,2.9-0.9,3-1.1c0-1.4-1.9-10.9-2.8-14.4l0.2-3.5L63.6,50.3z"/>
			</g>
			<g id="XMLID_34_">
				<path id="XMLID_11_" class="st0" d="M43.4,54.6h-0.2c-1.5,0-2.7,1.5-2.7,3c0,1.5,1.2,3,2.6,3h0.2c1.5,0,2.7-1.5,2.7-3
					C46.1,56.2,44.9,54.6,43.4,54.6z"/>
			</g>
			<ellipse id="XMLID_60_" class="st0" cx="57.8" cy="36" rx="4.9" ry="4.9"/>
		</g>
		<g id="XMLID_38_">
			<path id="XMLID_53_" class="st0" d="M81.3,22C81.3,22,81.3,22,81.3,22c0-0.1-0.1-0.1-0.1-0.2c0,0,0,0-0.1-0.1l0,0
				c-0.1-0.1-0.2-0.1-0.3-0.1H78v-2.9c0-0.1,0-0.2-0.1-0.3l0,0c0,0,0,0-0.1-0.1c0,0,0,0,0,0c0,0,0,0-0.1,0c0,0-0.1,0-0.1,0
				c0,0,0,0,0,0c0,0-0.1,0-0.1,0H67.4c-0.2,0-0.4,0.2-0.4,0.4v17.3c0,0.2,0.2,0.4,0.4,0.4h13.5c0.2,0,0.4-0.2,0.4-0.4L81.3,22
				C81.3,22.1,81.3,22.1,81.3,22C81.3,22.1,81.3,22,81.3,22z M80.5,35.7H67.9V19.2h9.2v2.9c0,0.2,0.2,0.4,0.4,0.4h2.9V35.7z"/>
			<path id="XMLID_45_" class="st0" d="M81.3,22C81.3,22,81.3,22,81.3,22c0-0.1-0.1-0.1-0.1-0.2c0,0,0,0-0.1-0.1l0,0l-3.3-3.3l0,0
				c0,0,0,0-0.1-0.1c0,0,0,0,0,0c0,0,0,0-0.1,0c0,0-0.1,0-0.1,0c0,0,0,0,0,0c0,0-0.1,0-0.1,0c-0.1,0-0.1,0-0.2,0
				c-0.2,0.1-0.3,0.2-0.3,0.4v3.3c0,0.2,0.2,0.4,0.4,0.4h3.3c0.2,0,0.3-0.1,0.4-0.3C81.3,22.2,81.3,22.2,81.3,22
				C81.3,22.1,81.3,22.1,81.3,22C81.3,22.1,81.3,22,81.3,22z M78,21.7v-1.8l1.8,1.8H78z"/>
			<path id="XMLID_13_" class="st0" d="M75.3,21.7h-5.6c-0.2,0-0.4-0.2-0.4-0.4s0.2-0.4,0.4-0.4h5.6c0.2,0,0.4,0.2,0.4,0.4
				S75.5,21.7,75.3,21.7z"/>
			<path id="XMLID_12_" class="st0" d="M75.3,24h-5.6c-0.2,0-0.4-0.2-0.4-0.4s0.2-0.4,0.4-0.4h5.6c0.2,0,0.4,0.2,0.4,0.4
				S75.5,24,75.3,24z"/>
			<path id="XMLID_8_" class="st0" d="M78.2,26.4h-8.5c-0.2,0-0.4-0.2-0.4-0.4s0.2-0.4,0.4-0.4h8.5c0.2,0,0.4,0.2,0.4,0.4
				S78.5,26.4,78.2,26.4z"/>
			<path id="XMLID_24_" class="st0" d="M78.2,28.7h-8.5c-0.2,0-0.4-0.2-0.4-0.4s0.2-0.4,0.4-0.4h8.5c0.2,0,0.4,0.2,0.4,0.4
				S78.5,28.7,78.2,28.7z"/>
			<path id="XMLID_26_" class="st0" d="M78.2,31.1h-8.5c-0.2,0-0.4-0.2-0.4-0.4s0.2-0.4,0.4-0.4h8.5c0.2,0,0.4,0.2,0.4,0.4
				S78.5,31.1,78.2,31.1z"/>
		</g>
	</g>
	<g id="XMLID_431_">
		<path id="XMLID_433_" class="st0" d="M75.8,34.8c-0.2,0-0.4-0.1-0.6-0.4c-0.3-0.4-0.1-1,0.1-1.4c0-0.1,0.1-0.3,0.1-0.4
			c0,0,0,0,0,0C75,32.7,75,32.7,75,32.9c0,0.2,0,0.6-0.4,1c0,0-1,1.1-1.6,0.7c-0.2-0.1-0.3-0.4-0.3-0.7c0-0.3,0.1-0.5,0.3-0.7
			c0.4-0.3,0.6-0.7,0.6-1c0-0.1,0-0.2-0.1-0.2C73.5,32,73.4,32,73.3,32c-0.4,0.1-0.9,1.3-1.2,1.9c-0.1,0.2-0.2,0.4-0.2,0.5
			c-0.1,0.1-0.2,0.2-0.3,0.1c-0.1-0.1-0.2-0.2-0.1-0.3c0.1-0.1,0.1-0.3,0.2-0.5c0.3-0.8,0.8-2,1.5-2.2c0.2-0.1,0.4,0,0.6,0.1
			c0.2,0.1,0.3,0.3,0.3,0.6c0,0.5-0.3,1-0.8,1.4c-0.1,0.1-0.1,0.2-0.1,0.3c0,0.1,0.1,0.2,0.1,0.3c0.2,0.1,0.7-0.3,0.9-0.6
			c0.3-0.3,0.3-0.5,0.3-0.7c0-0.4,0.1-0.6,0.7-0.8c0.2-0.1,0.4,0,0.5,0.1c0.2,0.2,0.1,0.5-0.1,0.9c-0.1,0.3-0.3,0.8-0.1,1
			c0.1,0.2,0.2,0.2,0.2,0.2c0.1,0,0.2-0.2,0.2-0.3c0.1-0.1,0.2-0.3,0.3-0.3c0.4-0.3,0.7,0.2,0.9,0.4c0,0,0.1,0.1,0.1,0.1
			c0.3-0.1,0.6-0.5,0.8-0.8l0.1-0.1c0.1-0.1,0.2-0.1,0.3,0c0.1,0.1,0.1,0.2,0,0.4l-0.1,0.1c-0.3,0.4-0.6,0.8-1.1,1
			c-0.2,0.1-0.3-0.1-0.5-0.3c-0.1-0.1-0.3-0.3-0.3-0.3c0,0-0.1,0.1-0.1,0.2C76.2,34.5,76.1,34.8,75.8,34.8L75.8,34.8z"/>
	</g>
	<g id="XMLID_432_">
		<g id="XMLID_435_">
			<path id="XMLID_438_" class="st0" d="M70.4,34.7h-0.3c0,0-0.1,0-0.1-0.1l-0.3-0.4l-0.3,0.4c0,0-0.1,0.1-0.1,0.1h-0.3
				c0,0-0.1,0-0.1-0.1c0,0,0-0.1,0-0.1l0.5-0.7L69,33.1c0,0,0-0.1,0-0.1c0,0,0.1-0.1,0.1-0.1h0.3c0,0,0.1,0,0.1,0.1l0.2,0.4l0.2-0.4
				c0,0,0.1-0.1,0.1-0.1h0.3c0,0,0.1,0,0.1,0.1c0,0,0,0.1,0,0.1L70,33.8l0.5,0.7c0,0,0,0.1,0,0.1C70.5,34.7,70.5,34.7,70.4,34.7z"/>
		</g>
	</g>
</g>
</svg>
