<?xml version="1.0" encoding="utf-8"?>
<!-- Generator: Adobe Illustrator 21.1.0, SVG Export Plug-In . SVG Version: 6.00 Build 0)  -->
<svg version="1.1" id="Layer_1" xmlns="http://www.w3.org/2000/svg" xmlns:xlink="http://www.w3.org/1999/xlink" x="0px" y="0px"
	 viewBox="0 0 100 100" style="enable-background:new 0 0 100 100;" xml:space="preserve">
<style type="text/css">
	.st0{fill:#FFFFFF;}
</style>
<g>
	<path class="st0" d="M50,29.1c-3.2,1.7-6.3,3.1-9,4.1c-2.8,1-5.4,1.7-8,2.2c0,10.8,2.6,19.8,7.5,26.7c2.5,3.5,5.7,6.4,9.5,8.8
		c3.8-2.4,7-5.4,9.5-8.8c5-6.9,7.5-15.8,7.5-26.7c-2.6-0.5-5.3-1.2-8-2.2S53.3,30.8,50,29.1z M50,36.3l8.3,8.3h-1.9L50,38.2
		l-6.4,6.4h-1.9L50,36.3z M38.2,47.7L37.5,47l0.7-0.7h5.6l6.2-6.2l4.9,4.9l-4.1,4h-1.9l4.1-4l-3-3l-5.7,5.7H38.2z M50,57.3L41.7,49
		h1.9l6.4,6.4l6.4-6.4h1.9L50,57.3z M62.5,47l-0.7,0.7h-5.6L50,53.9L45.1,49l4.1-4.1h1.9L47,49l3,3l5.7-5.7h6.1L62.5,47z"/>
	<path class="st0" d="M70.7,33.4c0-0.7-0.5-1.2-1.1-1.3c-3.1-0.4-6.1-1.2-9.1-2.2c-3-1.1-6.3-2.6-9.8-4.6c-0.5-0.2-0.9-0.2-1.3,0
		c-1.3,0.8-2.6,1.4-3.9,2c-0.8,0.4-1.6,0.8-2.4,1.2c-1.2,0.5-2.4,1-3.5,1.4s-2.3,0.8-3.4,1.1c-0.8,0.2-1.5,0.4-2.3,0.6
		c-1.1,0.2-2.3,0.5-3.4,0.6c-0.1,0-0.2,0-0.2,0.1c-0.1,0-0.3,0.1-0.4,0.2c-0.3,0.2-0.5,0.6-0.5,1C29,46,31.7,56.2,37.5,64.2
		c2.3,3.3,5.2,6.1,8.4,8.4c1.1,0.8,2.2,1.5,3.4,2.2c0.4,0.3,0.9,0.2,1.4,0c1-0.6,1.9-1.2,2.8-1.8c0.9-0.6,1.8-1.3,2.6-2
		c0.5-0.5,1.1-0.9,1.6-1.4c0.3-0.3,0.6-0.6,0.9-0.9c1.4-1.4,2.7-2.9,3.9-4.5C68.3,56.2,71,46,70.7,33.4z M68,35.4c0,0.6,0,1.2,0,1.9
		c0,0.6,0,1.2-0.1,1.8c0,0.7-0.1,1.5-0.2,2.2c0,0.4-0.1,0.8-0.1,1.2c0,0.3,0,0.5-0.1,0.8c-0.2,1.2-0.4,2.4-0.6,3.6
		c-0.2,1.2-0.5,2.4-0.8,3.5c-0.2,0.6-0.3,1.1-0.5,1.7c-0.2,0.6-0.4,1.1-0.6,1.6c-0.2,0.6-0.4,1.1-0.6,1.6c-0.4,1-0.9,2-1.4,3
		c-0.3,0.5-0.5,1-0.8,1.5c-0.6,1-1.2,1.9-1.8,2.8l0,0c-0.7,1-1.5,1.9-2.3,2.8c-0.4,0.4-0.7,0.8-1.1,1.2c-0.4,0.4-0.8,0.8-1.2,1.2
		c-0.1,0.1-0.2,0.2-0.3,0.3c-0.3,0.3-0.6,0.6-1,0.8c-0.1,0.1-0.2,0.2-0.3,0.2c-0.4,0.3-0.8,0.6-1.2,0.9s-0.8,0.6-1.2,0.9
		c-0.2,0.2-0.4,0.3-0.6,0.4c-0.1,0.1-0.2,0.2-0.3,0.2c-0.1,0.1-0.2,0.1-0.3,0.2s-0.3,0.1-0.5,0.1s-0.3,0-0.5-0.1
		c-0.1-0.1-0.2-0.1-0.3-0.2s-0.2-0.1-0.3-0.2c-0.2-0.1-0.4-0.3-0.6-0.4c-0.4-0.3-0.8-0.6-1.2-0.9c-0.5-0.3-0.9-0.7-1.4-1.1
		s-0.9-0.8-1.3-1.2c-0.4-0.4-0.9-0.8-1.2-1.2c-0.4-0.4-0.8-0.8-1.1-1.2c-0.4-0.5-0.8-0.9-1.2-1.4c-0.4-0.4-0.7-0.9-1-1.4
		s-0.6-0.9-0.9-1.4c-0.3-0.5-0.6-0.9-0.9-1.4c-0.3-0.5-0.6-1-0.8-1.5c-0.3-0.5-0.5-1-0.8-1.5c-0.6-1.1-1-2.2-1.4-3.3
		c-0.6-1.5-1.1-3.1-1.5-4.8c-0.4-1.5-0.6-3-0.9-4.5c-0.1-0.4-0.1-0.8-0.2-1.1c-0.1-0.8-0.2-1.7-0.2-2.5c0-0.5-0.1-0.9-0.1-1.4
		c0-0.6-0.1-1.2-0.1-1.8c0-0.4,0-0.8,0-1.2c0-0.3,0-0.5,0-0.8l0,0c0-0.5,0.4-0.9,0.8-1c0.1,0,0.2,0,0.3-0.1c0.3-0.1,0.7-0.1,1-0.2
		c0.3-0.1,0.6-0.1,0.9-0.2c1.5-0.4,3-0.8,4.4-1.3c0.4-0.1,0.7-0.2,1.1-0.4c1.5-0.5,3.1-1.2,4.7-2c0.3-0.1,0.6-0.3,1-0.5
		s0.9-0.4,1.3-0.6c0.6-0.3,1.3-0.7,1.9-1c0.1-0.1,0.3-0.1,0.5-0.1s0.3,0,0.5,0.1s0.5,0.3,0.8,0.4c0.4,0.2,0.8,0.4,1.2,0.6
		s0.9,0.5,1.3,0.6c0.3,0.2,0.6,0.3,1,0.5c1.6,0.8,3.2,1.4,4.7,2c0.4,0.1,0.7,0.3,1.1,0.4s0.7,0.2,1.1,0.4c1.9,0.6,3.8,1.1,5.7,1.4
		C67.7,34.5,68,34.9,68,35.4L68,35.4z"/>
</g>
</svg>
