<?xml version="1.0" encoding="utf-8"?>
<!-- Generator: Adobe Illustrator 21.1.0, SVG Export Plug-In . SVG Version: 6.00 Build 0)  -->
<svg version="1.1" id="Layer_1" xmlns="http://www.w3.org/2000/svg" xmlns:xlink="http://www.w3.org/1999/xlink" x="0px" y="0px"
	 viewBox="0 0 100 100" style="enable-background:new 0 0 100 100;" xml:space="preserve">
<style type="text/css">
	.st0{fill:#FFFFFF;}
</style>
<g id="XMLID_28_">
	<path id="XMLID_319_" class="st0" d="M62.2,74.9H37.9c3.6-6,7-5.6,8.5-6.2l3.7,3.1l3.7-2.9C55.2,69.5,58.5,68.9,62.2,74.9z"/>
	<path class="st0" d="M50,40.3c-6.7,0-12,5.4-12,12c0,6.7,5.4,12,12,12s12-5.4,12-12C62.1,45.7,56.7,40.3,50,40.3z M50.8,58.7
		c-0.2,0.2-0.5,0.4-1,0.4c-0.4,0-0.7-0.1-1-0.4c-0.2-0.2-0.3-0.5-0.3-0.9s0.1-0.7,0.3-0.9c0.5-0.5,1.5-0.5,1.9,0
		c0.2,0.2,0.3,0.5,0.3,0.9C51.1,58.2,51,58.5,50.8,58.7z M52.4,52.4l-0.9,0.9c-0.3,0.4-0.5,1-0.5,1.7c0,0.2-0.2,0.4-0.4,0.4H49
		c-0.1,0-0.2,0-0.3-0.1s-0.1-0.2-0.1-0.3c0-0.7,0.1-1.3,0.2-1.7c0.2-0.4,0.5-0.9,1-1.4l1.1-1.2c0.4-0.5,0.6-1,0.6-1.5
		s-0.1-0.9-0.4-1.2c-0.2-0.3-0.6-0.4-1.1-0.4s-0.9,0.1-1.2,0.4c-0.3,0.2-0.4,0.6-0.4,1c0,0.2-0.2,0.4-0.4,0.4h-1.6
		c-0.1,0-0.2,0-0.3-0.1S46,49.1,46,49c0-1,0.4-1.9,1.1-2.5c0.7-0.6,1.7-0.9,2.8-0.9c1.2,0,2.1,0.3,2.8,1c0.7,0.6,1,1.5,1,2.6
		C53.8,50.3,53.3,51.4,52.4,52.4z"/>
	<path id="XMLID_312_" class="st0" d="M50.9,25.2c0,0-0.1-0.1-0.2-0.1h-1.5c-0.1,0-0.1,0-0.2,0.1s0,0.1,0,0.2l0.1,7.9
		c0,0.1,0.1,0.2,0.3,0.2h1.3c0.1,0,0.3-0.1,0.3-0.2l0.1-7.9C51,25.3,51,25.3,50.9,25.2z M50.8,35c-0.2-0.2-0.5-0.3-0.8-0.3
		c-0.4,0-0.6,0.1-0.8,0.3S49,35.4,49,35.7s0.1,0.5,0.3,0.7s0.5,0.3,0.8,0.3s0.6-0.1,0.8-0.3s0.3-0.5,0.3-0.7
		C51.1,35.4,51,35.2,50.8,35z"/>
	<path id="XMLID_155_" class="st0" d="M69.3,32.7c0-0.1,0-0.1-0.1-0.2L68,31.7c-0.1,0-0.1,0-0.2,0s-0.1,0-0.2,0.1l-4.3,6.6
		c-0.1,0.1,0,0.3,0.1,0.4l1,0.7c0.1,0.1,0.3,0,0.4-0.1l4.5-6.5C69.3,32.8,69.3,32.8,69.3,32.7z M63.3,40c-0.3-0.2-0.6-0.3-0.9-0.2
		c-0.3,0.1-0.5,0.2-0.6,0.5c-0.2,0.2-0.2,0.5-0.2,0.8s0.2,0.5,0.5,0.7s0.6,0.3,0.8,0.2s0.5-0.2,0.7-0.5c0.2-0.2,0.2-0.5,0.2-0.8
		C63.8,40.5,63.6,40.2,63.3,40z"/>
	<path id="XMLID_29_" class="st0" d="M36.7,38.5l-4.3-6.6c0-0.1-0.1-0.1-0.2-0.1c-0.1,0-0.1,0-0.2,0l-1.2,0.8
		c-0.1,0-0.1,0.1-0.1,0.2c0,0.1,0,0.1,0,0.2l4.5,6.5c0.1,0.1,0.2,0.1,0.4,0.1l1-0.7C36.7,38.7,36.8,38.6,36.7,38.5z M38.2,40.3
		c-0.2-0.2-0.4-0.4-0.6-0.5c-0.3-0.1-0.6,0-0.9,0.2c-0.3,0.2-0.4,0.4-0.5,0.7c0,0.3,0,0.5,0.2,0.8c0.2,0.2,0.4,0.4,0.6,0.5
		c0.3,0.1,0.6,0,0.8-0.2c0.3-0.2,0.5-0.4,0.5-0.7C38.5,40.8,38.4,40.6,38.2,40.3z"/>
</g>
</svg>
