<?xml version="1.0" encoding="utf-8"?>
<!-- Generator: Adobe Illustrator 21.1.0, SVG Export Plug-In . SVG Version: 6.00 Build 0)  -->
<svg version="1.1" id="Layer_1" xmlns="http://www.w3.org/2000/svg" xmlns:xlink="http://www.w3.org/1999/xlink" x="0px" y="0px"
	 viewBox="0 0 100 100" style="enable-background:new 0 0 100 100;" xml:space="preserve">
<style type="text/css">
	.st0{fill:#FFFFFF;}
</style>
<g id="XMLID_1_">
	<g id="XMLID_8_">
		<path id="XMLID_9_" class="st0" d="M47.1,63.2H29.4c2.7-5,5.2-4.3,6.2-4.7l2.7,2.2l2.7-2C42,59.1,44.5,58.2,47.1,63.2z"/>
		<path class="st0" d="M38.2,37.5c-4.9,0-8.8,4-8.8,8.8s4,8.8,8.8,8.8s8.8-4,8.8-8.8S43.1,37.5,38.2,37.5z M42,43
			c0,0.1-0.1,0.2-0.2,0.3c-0.5,0.6-1.1,1.1-1.6,1.7c-1,1.1-1.8,2.4-2.4,3.8c-0.2,0.4-0.3,0.8-0.5,1.1c0,0.1-0.1,0.2-0.2,0.2
			C37,50.1,37,50,36.9,50c-0.4-0.6-0.8-1.3-1.2-1.9c-0.3-0.5-0.7-0.9-1.2-1.3c-0.1-0.1-0.2-0.2-0.1-0.4c0-0.2,0.1-0.3,0.3-0.3
			c0.1,0,0.3,0,0.5,0c0.5,0.1,0.9,0.3,1.3,0.5c0.1,0,0.2,0.1,0.3,0.2c0.1,0,0.1,0,0.2,0c0.8-1,1.6-1.9,2.5-2.7
			c0.3-0.3,0.7-0.6,1-0.9c0.3-0.2,0.6-0.5,1-0.6h0.2c0,0,0.1,0,0.1,0.1C42.1,42.7,42.2,42.9,42,43z"/>
	</g>
	<g id="XMLID_2_">
		<path id="XMLID_7_" class="st0" d="M72.5,32.1H27.8c-3,0-5.3,2.3-5.3,5.2v25.4c0,2.8,2.3,5.1,5.2,5.1h44.7c2.8,0,5.1-2.3,5.1-5.1
			V37.3C77.5,34.5,75.2,32.1,72.5,32.1z M74.9,62.7c0,1.4-1.1,2.5-2.5,2.5H27.7c-1.4,0-2.5-1.1-2.5-2.5V37.3c0-1.4,1.2-2.5,2.7-2.5
			h44.7c1.3,0,2.3,1.2,2.3,2.5V62.7z"/>
		<path id="XMLID_6_" class="st0" d="M68.7,42.2H54.2c-0.6,0-1-0.4-1-1s0.5-1,1-1h14.5c0.6,0,1,0.4,1,1S69.3,42.2,68.7,42.2z"/>
		<path id="XMLID_5_" class="st0" d="M68.7,48.2H54.2c-0.6,0-1-0.4-1-1s0.5-1,1-1h14.5c0.6,0,1,0.4,1,1S69.3,48.2,68.7,48.2z"/>
		<path id="XMLID_4_" class="st0" d="M68.7,54.2H54.2c-0.6,0-1-0.4-1-1s0.5-1,1-1h14.5c0.6,0,1,0.4,1,1S69.3,54.2,68.7,54.2z"/>
		<path id="XMLID_3_" class="st0" d="M68.7,60.2H54.2c-0.6,0-1-0.4-1-1s0.5-1,1-1h14.5c0.6,0,1,0.4,1,1S69.3,60.2,68.7,60.2z"/>
	</g>
</g>
</svg>
