<?xml version="1.0" encoding="utf-8"?>
<!-- Generator: Adobe Illustrator 21.1.0, SVG Export Plug-In . SVG Version: 6.00 Build 0)  -->
<svg version="1.1" id="Layer_1" xmlns="http://www.w3.org/2000/svg" xmlns:xlink="http://www.w3.org/1999/xlink" x="0px" y="0px"
	 viewBox="0 0 100 100" style="enable-background:new 0 0 100 100;" xml:space="preserve">
<style type="text/css">
	.st0{fill:#FFFFFF;}
</style>
<g id="XMLID_6_">
	<g id="XMLID_100_">
		<path id="XMLID_108_" class="st0" d="M35,24c-0.2,0-0.3,0.1-0.4,0.2l-1.9,1.9c-0.2,0.2-0.3,0.6,0,0.9c0.2,0.2,0.6,0.3,0.9,0
			c0,0,0,0,0,0l0.8-0.8v5.4h-1.3c-0.3,0-0.6,0.3-0.6,0.6c0,0.3,0.3,0.6,0.6,0.6c0,0,0,0,0,0H35c0.1,0,0.1,0,0.2,0h1.2
			c0.3,0,0.6-0.3,0.6-0.6c0-0.3-0.3-0.6-0.6-0.6c0,0,0,0,0,0h-0.6v-6.9C35.7,24.3,35.4,24,35,24C35,24,35,24,35,24L35,24z M42,24
			c-0.2,0-0.3,0.1-0.4,0.2l-1.9,1.9c-0.3,0.2-0.3,0.6,0,0.9c0.2,0.3,0.6,0.3,0.9,0c0,0,0,0,0,0l0.8-0.8v5.4h-1.3
			c-0.3,0-0.6,0.3-0.6,0.6c0,0.3,0.3,0.6,0.6,0.6c0,0,0,0,0,0h1.8c0.1,0,0.1,0,0.2,0h1.2c0.3,0,0.6-0.3,0.6-0.6
			c0-0.3-0.3-0.6-0.6-0.6c0,0,0,0,0,0h-0.6v-6.9C42.6,24.3,42.4,24,42,24C42,24,42,24,42,24L42,24z M27.8,24c-1.2,0-2.2,1-2.2,2.2
			v4.4c0,1.2,1,2.2,2.2,2.2c1.2,0,2.2-1,2.2-2.2v-4.4C30,25,29,24,27.8,24L27.8,24z M48.6,24c-1.2,0-2.2,1-2.2,2.2v4.4
			c0,1.2,1,2.2,2.2,2.2c1.2,0,2.2-1,2.2-2.2v-4.4C50.8,25,49.8,24,48.6,24L48.6,24z M55.6,24c-1.2,0-2.2,1-2.2,2.2v4.4
			c0,1.2,1,2.2,2.2,2.2c1.2,0,2.2-1,2.2-2.2v-4.4C57.8,25,56.8,24,55.6,24L55.6,24z M27.8,25.3c0.5,0,0.9,0.4,0.9,0.9v4.4
			c0,0.5-0.4,0.9-0.9,0.9c-0.5,0-0.9-0.4-0.9-0.9v-4.4C26.8,25.7,27.3,25.3,27.8,25.3L27.8,25.3z M48.6,25.3c0.5,0,0.9,0.4,0.9,0.9
			v4.4c0,0.5-0.4,0.9-0.9,0.9c-0.5,0-0.9-0.4-0.9-0.9v-4.4C47.7,25.7,48.1,25.3,48.6,25.3L48.6,25.3z M55.6,25.3
			c0.5,0,0.9,0.4,0.9,0.9v4.4c0,0.5-0.4,0.9-0.9,0.9c-0.5,0-0.9-0.4-0.9-0.9v-4.4C54.6,25.7,55.1,25.3,55.6,25.3L55.6,25.3z
			 M28.1,35.4c-0.2,0-0.3,0.1-0.4,0.2l-1.9,1.9c-0.2,0.2-0.2,0.6,0,0.9c0.2,0.2,0.6,0.2,0.9,0l0.8-0.8V43h-1.3
			c-0.3,0-0.6,0.3-0.6,0.6c0,0.3,0.3,0.6,0.6,0.6c0,0,0,0,0,0H28c0.1,0,0.1,0,0.2,0h1.2c0.3,0,0.6-0.3,0.6-0.6
			c0-0.3-0.3-0.6-0.6-0.6c0,0,0,0,0,0h-0.6V36C28.7,35.7,28.5,35.4,28.1,35.4C28.1,35.4,28.1,35.4,28.1,35.4L28.1,35.4z M42,35.4
			c-0.2,0-0.3,0.1-0.4,0.2l-1.9,1.9c-0.2,0.2-0.3,0.6,0,0.9c0.2,0.2,0.6,0.3,0.9,0c0,0,0,0,0,0l0.8-0.8V43h-1.3
			c-0.3,0-0.6,0.3-0.6,0.6c0,0.3,0.3,0.6,0.6,0.6c0,0,0,0,0,0h1.8c0.1,0,0.1,0,0.2,0h1.2c0.3,0,0.6-0.3,0.6-0.6
			c0-0.3-0.3-0.6-0.6-0.6c0,0,0,0,0,0h-0.6V36C42.6,35.7,42.4,35.4,42,35.4C42,35.4,42,35.4,42,35.4L42,35.4z M48.9,35.4
			c-0.2,0-0.3,0.1-0.4,0.2l-1.9,1.9c-0.2,0.2-0.3,0.6,0,0.9c0.2,0.2,0.6,0.3,0.9,0c0,0,0,0,0,0l0.8-0.8V43h-1.3
			c-0.3,0-0.6,0.3-0.6,0.6c0,0.3,0.3,0.6,0.6,0.6c0,0,0,0,0,0h1.8c0.1,0,0.1,0,0.2,0h1.2c0.3,0,0.6-0.3,0.6-0.6
			c0-0.3-0.3-0.6-0.6-0.6c0,0,0,0,0,0h-0.6V36C49.6,35.7,49.3,35.4,48.9,35.4C48.9,35.4,48.9,35.4,48.9,35.4L48.9,35.4z M34.7,35.4
			c-1.2,0-2.2,1-2.2,2.2V42c0,1.2,1,2.2,2.2,2.2c1.2,0,2.2-1,2.2-2.2v-4.4C36.9,36.4,35.9,35.4,34.7,35.4L34.7,35.4z M55.6,35.4
			c-1.2,0-2.2,1-2.2,2.2V42c0,1.2,1,2.2,2.2,2.2c1.2,0,2.2-1,2.2-2.2v-4.4C57.8,36.4,56.8,35.4,55.6,35.4L55.6,35.4z M34.7,36.7
			c0.5,0,0.9,0.4,0.9,0.9V42c0,0.5-0.4,0.9-0.9,0.9c-0.5,0-0.9-0.4-0.9-0.9v-4.4C33.8,37.1,34.2,36.7,34.7,36.7L34.7,36.7z
			 M55.6,36.7c0.5,0,0.9,0.4,0.9,0.9V42c0,0.5-0.4,0.9-0.9,0.9c-0.5,0-0.9-0.4-0.9-0.9v-4.4C54.6,37.1,55.1,36.7,55.6,36.7
			L55.6,36.7z M35,58.1c-0.2,0-0.3,0.1-0.4,0.2l-1.9,1.9c-0.2,0.2-0.3,0.6,0,0.9c0.2,0.2,0.6,0.3,0.9,0c0,0,0,0,0,0l0.8-0.8v5.4
			h-1.3c-0.3,0-0.6,0.3-0.6,0.6c0,0.3,0.3,0.6,0.6,0.6c0,0,0,0,0,0H35c0.1,0,0.1,0,0.2,0h1.2c0.3,0,0.6-0.3,0.6-0.6
			c0-0.3-0.3-0.6-0.6-0.6c0,0,0,0,0,0h-0.6v-6.9C35.7,58.4,35.4,58.1,35,58.1C35,58.1,35,58.1,35,58.1L35,58.1z M42,58.1
			c-0.2,0-0.3,0.1-0.4,0.2l-1.9,1.9c-0.3,0.2-0.3,0.6,0,0.9c0.2,0.3,0.6,0.3,0.9,0c0,0,0,0,0,0l0.8-0.8v5.4h-1.3
			c-0.3,0-0.6,0.3-0.6,0.6c0,0.3,0.3,0.6,0.6,0.6c0,0,0,0,0,0h1.8c0.1,0,0.1,0,0.2,0h1.2c0.3,0,0.6-0.3,0.6-0.6
			c0-0.3-0.3-0.6-0.6-0.6c0,0,0,0,0,0h-0.6v-6.9C42.6,58.4,42.4,58.1,42,58.1C42,58.1,42,58.1,42,58.1L42,58.1z M27.8,58.1
			c-1.2,0-2.2,1-2.2,2.2v4.4c0,1.2,1,2.2,2.2,2.2c1.2,0,2.2-1,2.2-2.2v-4.4C30,59.1,29,58.1,27.8,58.1L27.8,58.1z M27.8,59.4
			c0.5,0,0.9,0.4,0.9,0.9v4.4c0,0.5-0.4,0.9-0.9,0.9c-0.5,0-0.9-0.4-0.9-0.9v-4.4C26.8,59.8,27.3,59.4,27.8,59.4L27.8,59.4z
			 M28.1,46.7c-0.2,0-0.3,0.1-0.4,0.2l-1.9,1.9c-0.2,0.2-0.2,0.6,0,0.9c0.2,0.2,0.6,0.2,0.9,0l0.8-0.8v5.4h-1.3
			c-0.3,0-0.6,0.3-0.6,0.6c0,0.3,0.3,0.6,0.6,0.6c0,0,0,0,0,0H28c0.1,0,0.1,0,0.2,0h1.2c0.3,0,0.6-0.3,0.6-0.6
			c0-0.3-0.3-0.6-0.6-0.6c0,0,0,0,0,0h-0.6v-6.9C28.7,47,28.5,46.7,28.1,46.7C28.1,46.7,28.1,46.7,28.1,46.7L28.1,46.7z M35,46.7
			c-0.2,0-0.3,0.1-0.4,0.2l-1.9,1.9c-0.2,0.2-0.2,0.6,0,0.9c0.2,0.2,0.6,0.2,0.9,0l0.8-0.8v5.4h-1.3c-0.3,0-0.6,0.3-0.6,0.6
			c0,0.3,0.3,0.6,0.6,0.6c0,0,0,0,0,0H35c0.1,0,0.1,0,0.2,0h1.2c0.3,0,0.6-0.3,0.6-0.6c0-0.3-0.3-0.6-0.6-0.6c0,0,0,0,0,0h-0.6v-6.9
			C35.7,47,35.4,46.7,35,46.7C35,46.7,35,46.7,35,46.7L35,46.7z M42,46.7c-0.2,0-0.3,0.1-0.4,0.2l-1.9,1.9c-0.2,0.2-0.3,0.6,0,0.9
			c0.2,0.2,0.6,0.3,0.9,0c0,0,0,0,0,0l0.8-0.8v5.4h-1.3c-0.3,0-0.6,0.3-0.6,0.6c0,0.3,0.3,0.6,0.6,0.6c0,0,0,0,0,0h1.8
			c0.1,0,0.1,0,0.2,0h1.2c0.3,0,0.6-0.3,0.6-0.6s-0.3-0.6-0.6-0.6c0,0,0,0,0,0h-0.6v-6.9C42.6,47,42.4,46.7,42,46.7
			C42,46.7,42,46.7,42,46.7L42,46.7z"/>
	</g>
	<path id="XMLID_214_" class="st0" d="M61.4,53.3l-1.1-0.1c-0.2-0.6-0.4-1.2-0.7-1.7l0.7-0.9c0.3-0.3,0.2-0.8-0.1-1.1l-1.4-1.4
		c-0.3-0.3-0.8-0.3-1.1-0.1L57,48.7c-0.6-0.3-1.1-0.6-1.8-0.7l-0.1-1.1c0-0.4-0.4-0.7-0.8-0.7h-1.9c-0.4,0-0.8,0.3-0.8,0.7L51.4,48
		c-0.6,0.2-1.2,0.4-1.8,0.8l-0.9-0.7c-0.3-0.2-0.8-0.2-1.1,0.1l-1.4,1.4c-0.3,0.3-0.3,0.8-0.1,1.1l0.7,0.9c-0.3,0.5-0.5,1.1-0.7,1.7
		l-0.9,0.1c-0.4,0-0.4,0.4-0.4,0.8v1.9c0,0.4,0,0.8,0.4,0.8l1.1,0.1c0.2,0.5,0.3,1.1,0.6,1.6l-0.8,1c-0.3,0.3-0.3,0.8,0,1.1l1.4,1.4
		c0.3,0.3,0.7,0.3,1.1,0.1l1-0.8c0.5,0.3,1,0.5,1.6,0.7l0.1,1.4c0,0.4,0.4,0.9,0.8,0.9h1.9c0.4,0,0.8-0.4,0.8-0.9l0.1-1.3
		c0.6-0.1,1.2-0.4,1.7-0.7l1,0.7c0.3,0.3,0.8,0.2,1.1-0.1l1.4-1.4c0.3-0.3,0.3-0.8,0.1-1.1l-0.7-0.9c0.3-0.5,0.5-1.1,0.7-1.7
		l1.1-0.1c0.4,0,0.6-0.4,0.6-0.8v-1.9C62,53.7,61.8,53.3,61.4,53.3z M53.3,59c-2.2,0-4-1.8-4-4c0-2.2,1.8-4,4-4c2.2,0,4,1.8,4,4
		C57.3,57.2,55.5,59,53.3,59z"/>
	<path id="XMLID_209_" class="st0" d="M74.3,61.3c0-0.4-0.4-0.7-0.8-0.7l-0.8,0c-0.2-0.5-0.4-0.9-0.7-1.3l0.5-0.7
		c0.2-0.4,0.2-0.8-0.2-1.1l-1-0.9c-0.3-0.3-0.8-0.2-1.1,0l-0.6,0.5c-0.5-0.2-1-0.4-1.5-0.5L68,55.9c-0.1-0.4-0.4-0.7-0.9-0.7
		l-1.3,0.1c-0.4,0-0.7,0.4-0.7,0.8l0,0.8c-0.5,0.2-1,0.4-1.4,0.8L63,57.3c-0.3-0.2-0.8-0.2-1.1,0.2l-0.9,1c-0.3,0.3-0.2,0.8,0,1.1
		l0.6,0.6c-0.2,0.5-0.3,0.9-0.4,1.4l-0.8,0.2c-0.4,0.1-0.7,0.5-0.6,0.9l0.1,1.3c0,0.4,0.4,0.7,0.8,0.7l0.9,0
		c0.2,0.4,0.4,0.8,0.6,1.2l-0.5,0.8c-0.2,0.3-0.2,0.8,0.1,1.1l1,0.8c0.3,0.3,0.8,0.3,1.1,0l0.7-0.6c0.4,0.2,0.9,0.4,1.4,0.5l0.2,0.9
		c0.1,0.4,0.5,0.7,0.9,0.6l1.3-0.1c0.4,0,0.7-0.4,0.7-0.8l0-0.9c0.5-0.2,0.9-0.4,1.4-0.7l0.7,0.5c0.3,0.2,0.8,0.2,1.1-0.2l0.9-1
		c0.3-0.3,0.2-0.8,0-1.1l-0.6-0.6c0.2-0.5,0.4-1,0.5-1.4l0.8-0.2c0.4-0.1,0.7-0.5,0.6-0.9L74.3,61.3z M67.4,65.8
		c-1.8,0.2-3.4-1.2-3.5-3c-0.2-1.8,1.2-3.4,3-3.5c1.8-0.2,3.4,1.2,3.5,3C70.5,64.1,69.2,65.7,67.4,65.8z"/>
	<path id="XMLID_204_" class="st0" d="M61.4,68.8l-0.5-0.1c-0.1-0.4-0.2-0.8-0.4-1.1l0.3-0.4c0.3-0.3,0.2-0.8,0-1.1l-0.6-0.6
		c-0.3-0.3-0.7-0.3-1.1-0.1l-0.4,0.3c-0.4-0.2-0.8-0.4-1.2-0.5l-0.1-0.5c0-0.4-0.4-0.7-0.8-0.7l-0.8,0c-0.4,0-0.8,0.3-0.8,0.7
		L55,65.3c-0.4,0.1-0.8,0.3-1.2,0.5l-0.4-0.3c-0.3-0.3-0.8-0.2-1.1,0L51.7,66c-0.3,0.3-0.3,0.7-0.1,1.1l0.3,0.5
		c-0.2,0.3-0.4,0.7-0.5,1.1l-0.6,0c-0.4,0-0.7,0.4-0.7,0.8l0,0.8c0,0.4,0.3,0.8,0.7,0.8l0.6,0.1c0.1,0.4,0.2,0.7,0.4,1l-0.4,0.5
		c-0.3,0.3-0.2,0.8,0,1.1l0.6,0.6c0.3,0.3,0.8,0.3,1.1,0.1l0.5-0.4c0.3,0.2,0.7,0.4,1.1,0.5l0.1,0.6c0,0.4,0.4,0.7,0.8,0.7l0.8,0
		c0.4,0,0.8-0.3,0.8-0.7l0.1-0.6c0.4-0.1,0.8-0.2,1.2-0.5l0.4,0.4c0.3,0.3,0.8,0.2,1.1,0l0.6-0.6c0.3-0.3,0.3-0.8,0.1-1.1l-0.3-0.4
		c0.2-0.4,0.4-0.7,0.5-1.1l0.5-0.1c0.4,0,0.7-0.4,0.7-0.8l0-0.8C62.1,69.2,61.8,68.9,61.4,68.8z M56.2,72.6c-1.5,0-2.6-1.2-2.6-2.7
		c0-1.5,1.2-2.6,2.7-2.6c1.5,0,2.6,1.2,2.6,2.7C58.8,71.4,57.6,72.6,56.2,72.6z"/>
	<path id="XMLID_477_" class="st0" d="M50.9,64.8c0,0,0,0.1,0,0.1c-0.1,1.1-0.8,2-2,2c-1.2,0-1.9-1-1.9-2.2v-2.1l0.1,0.3
		c0.3,0.3,0.9,0.5,0.9,0.6v1.2c0,0.5,0.5,1,1,1c0.5,0,1-0.4,1-1V63l0-0.2c0.1,0,0.1,0.1,0.2,0.2l0,0.6c0,0.4,0.2,0.8,0.5,1.1
		C50.8,64.7,50.8,64.8,50.9,64.8z"/>
</g>
</svg>
