<?xml version="1.0" encoding="utf-8"?>
<!-- Generator: Adobe Illustrator 21.1.0, SVG Export Plug-In . SVG Version: 6.00 Build 0)  -->
<svg version="1.1" id="Layer_1" xmlns="http://www.w3.org/2000/svg" xmlns:xlink="http://www.w3.org/1999/xlink" x="0px" y="0px"
	 viewBox="0 0 100 100" style="enable-background:new 0 0 100 100;" xml:space="preserve">
<style type="text/css">
	.st0{fill:#FFFFFF;}
</style>
<g id="XMLID_632_">
	<path id="XMLID_645_" class="st0" d="M70.5,45.3c0-0.1,0-0.2-0.1-0.2c-0.1-0.2-0.2-0.4-0.4-0.6l-5.9-4.1v-4.4c0-0.6-0.5-1-1-1h-6.7
		l-5.7-4c-0.4-0.2-0.8-0.3-1.2,0l-5.8,4h-6.7c-0.6,0-1,0.5-1,1v4.3L30,44.5c-0.3,0.2-0.4,0.5-0.4,0.8c0,0,0,0,0,0l0,22.7
		c0,0.3,0.1,0.5,0.3,0.7c0.2,0.2,0.5,0.3,0.7,0.3h0h38.8c0.6,0,1-0.5,1-1.1L70.5,45.3z M44.3,56.1l-12.7,9.8l0-18.6L44.3,56.1z
		 M50,54.4L66.3,67l-32.6,0L50,54.4z M55.7,56.1l12.7-8.8l0,18.6L55.7,56.1z M67.5,45.3l-3.3,2.3V43L67.5,45.3z M50,33.2l2.7,1.9
		h-5.3L50,33.2z M62,37.2v12L54,54.8l-3.3-2.6c0,0,0,0,0,0c-0.4-0.3-0.9-0.3-1.3,0l-3.3,2.6L38,49.2v-12H62z M35.9,47.7l-3.4-2.4
		l3.4-2.4V47.7z"/>
	<g id="XMLID_633_">
		<g id="XMLID_641_">
			<path id="XMLID_642_" class="st0" d="M46.3,48h-1.4c-0.1,0-0.2-0.1-0.2-0.2l-0.6-1.7h-2.7l-0.6,1.7c0,0.1-0.1,0.2-0.2,0.2h-1.4
				c-0.1,0-0.2,0-0.2-0.1c0-0.1-0.1-0.2,0-0.2l3-7.8c0-0.1,0.1-0.2,0.2-0.2h1.2c0.1,0,0.2,0.1,0.2,0.2l3,7.8c0,0.1,0,0.2,0,0.2
				C46.5,47.9,46.4,48,46.3,48z M42,44.6h1.6l-0.8-2.2L42,44.6z"/>
		</g>
		<g id="XMLID_637_">
			<path id="XMLID_638_" class="st0" d="M54.7,48h-1.4c-0.1,0-0.2-0.1-0.2-0.2l-0.6-1.7h-2.7l-0.6,1.7c0,0.1-0.1,0.2-0.2,0.2h-1.4
				c-0.1,0-0.2,0-0.2-0.1c0-0.1-0.1-0.2,0-0.2l3-7.8c0-0.1,0.1-0.2,0.2-0.2h1.2c0.1,0,0.2,0.1,0.2,0.2l3,7.8c0,0.1,0,0.2,0,0.2
				C54.8,47.9,54.7,48,54.7,48z M50.3,44.6h1.6l-0.8-2.2L50.3,44.6z"/>
		</g>
		<g id="XMLID_634_">
			<path id="XMLID_635_" class="st0" d="M60.8,48h-4.9c-0.1,0-0.2-0.1-0.2-0.2v-7.8c0-0.1,0.1-0.2,0.2-0.2h1.4
				c0.1,0,0.2,0.1,0.2,0.2v6.5h3.3c0.1,0,0.2,0.1,0.2,0.2v1.1C61,47.9,60.9,48,60.8,48z"/>
		</g>
	</g>
</g>
</svg>
