<?xml version="1.0" encoding="utf-8"?>
<!-- Generator: Adobe Illustrator 21.1.0, SVG Export Plug-In . SVG Version: 6.00 Build 0)  -->
<svg version="1.1" id="Layer_1" xmlns="http://www.w3.org/2000/svg" xmlns:xlink="http://www.w3.org/1999/xlink" x="0px" y="0px"
	 viewBox="0 0 100 100" style="enable-background:new 0 0 100 100;" xml:space="preserve">
<style type="text/css">
	.st0{fill:#FFFFFF;}
</style>
<g id="XMLID_98_">
	<g id="XMLID_143_">
		<path id="XMLID_203_" class="st0" d="M73.4,46.2c0.6,0,1.2-1,1.2-1.6v-5.2c0-0.4-0.3-0.7-0.6-0.9L50.1,24.9c-0.3-0.2-0.7-0.2-1,0
			L25.6,38.6c-0.3,0.2,0,0.5,0,0.9v5.2c0,0.5-0.5,1.6,0,1.6h4v21h-1.3c-2,0-2.7,1.3-2.7,3.4v3.5c0,0.5-0.5,1.1,0,1.1h47.8
			c0.6,0,1.2-0.6,1.2-1.1v-3.5c0-2.1-1.8-3.4-3.8-3.4h-0.2v-21H73.4z M70.8,69.2c0.9,0,1.8,0.4,1.8,1.4v2.6h-45v-2.6
			c0-1-0.2-1.4,0.7-1.4H70.8z M31.6,67.2v-21h5v21H31.6z M38.6,67.2v-21h7v21H38.6z M47.6,67.2v-21h5v21H47.6z M54.6,67.2v-21h7v21
			H54.6z M63.6,67.2v-21h5v21H63.6z M27.6,44.2V40l22.5-13.1L72.6,40v4.2H27.6z"/>
	</g>
	<path id="XMLID_99_" class="st0" d="M51.3,32.9L51.3,32.9L51.3,32.9L51.3,32.9 M46.9,39L46.9,39L46.9,39 M49.7,29.5h-0.9
		c-0.3,0-0.5,0.2-0.5,0.5v1.1c-1.4,0.4-2.2,1.4-2.2,2.8c0,1.7,1.4,2.5,2.8,3c1.2,0.5,1.3,0.9,1.3,1.3c0,0.6-0.5,1-1.2,1
		c-0.6,0-1.3-0.2-1.9-0.5c-0.1-0.1-0.2-0.1-0.3-0.1c-0.1,0-0.1,0-0.2,0.1c-0.2,0.1-0.3,0.2-0.3,0.3l-0.3,1c-0.1,0.2,0,0.4,0.2,0.6
		c0.5,0.4,1.3,0.6,2.1,0.7v1c0,0.3,0.2,0.5,0.5,0.5h1c0.3,0,0.5-0.2,0.5-0.5v-1.1c1.4-0.4,2.3-1.5,2.3-2.9c0-1.9-1.4-2.7-2.6-3.2
		c-1.3-0.5-1.5-0.8-1.5-1.2c0-0.2,0.1-0.7,1.1-0.7c0.8,0,1.4,0.3,1.6,0.4c0.1,0.1,0.2,0.1,0.3,0.1c0.1,0,0.1,0,0.2-0.1
		c0.2-0.1,0.3-0.2,0.3-0.3l0.4-1c0.1-0.2,0-0.5-0.2-0.6c-0.5-0.3-1.1-0.5-1.7-0.5v-1C50.4,29.7,50.1,29.5,49.7,29.5L49.7,29.5z"/>
</g>
</svg>
