<?xml version="1.0" encoding="utf-8"?>
<!-- Generator: Adobe Illustrator 19.0.0, SVG Export Plug-In . SVG Version: 6.00 Build 0)  -->
<svg version="1.1" id="Layer_1" xmlns="http://www.w3.org/2000/svg" xmlns:xlink="http://www.w3.org/1999/xlink" x="0px" y="0px"
	 viewBox="-292 384 27 25" style="enable-background:new -292 384 27 25;" xml:space="preserve">
<style type="text/css">
	.st0{fill:#DBB512;}
</style>
<path class="st0" d="M-277.2,408.4l5.8-7.1c0.2-0.3,0.4-0.7,0.3-1.1s-0.3-0.8-0.7-1.1c-0.8-0.5-1.6-0.4-2.2,0.3l-3,3.6v-17.7
	c0-0.7-0.8-1.3-1.5-1.3s-1.5,0.6-1.5,1.3v17.8l-3-3.6c-0.6-0.7-1.5-0.9-2.2-0.3c-0.6,0.4-0.7,0.9-0.7,1.2c0,0.3,0.1,0.6,0.3,0.9
	l5.8,7.1c0.3,0.4,0.8,0.6,1.3,0.6S-277.5,408.8-277.2,408.4z"/>
</svg>
