<?xml version="1.0" encoding="utf-8"?>
<!-- Generator: Adobe Illustrator 19.0.0, SVG Export Plug-In . SVG Version: 6.00 Build 0)  -->
<svg version="1.1" id="Layer_1" xmlns="http://www.w3.org/2000/svg" xmlns:xlink="http://www.w3.org/1999/xlink" x="0px" y="0px"
	 viewBox="-271 374 69 46" style="enable-background:new -271 374 69 46;" xml:space="preserve">
<style type="text/css">
	.st0{fill:#DBB512;}
</style>
<g id="XMLID_408_">
	<g id="XMLID_417_">
		<path id="XMLID_418_" class="st0" d="M-211.4,408.5c-0.2,0.5-0.8,0.7-1.3,0.4l-4.5-2.3c-0.5-0.2-0.7-0.8-0.4-1.3
			c0.2-0.5,0.8-0.7,1.3-0.4l4.5,2.3C-211.3,407.4-211.2,408-211.4,408.5z M-220.3,403.9c-0.2,0.5-0.8,0.7-1.3,0.4l-4.5-2.3
			c-0.5-0.2-0.6-0.8-0.4-1.3s0.8-0.7,1.3-0.4l4.5,2.3C-220.2,402.9-220,403.5-220.3,403.9z M-229.2,399.4c-0.2,0.5-0.8,0.7-1.3,0.4
			l-4.5-2.3c-0.5-0.2-0.6-0.8-0.4-1.3s0.8-0.7,1.3-0.4l4.5,2.3C-229.1,398.3-228.9,398.9-229.2,399.4z M-238.1,394.9
			c-0.2,0.5-0.8,0.7-1.3,0.4l-4.5-2.3c-0.5-0.2-0.7-0.8-0.4-1.3c0.2-0.5,0.8-0.7,1.3-0.4l4.5,2.3
			C-238,393.8-237.8,394.4-238.1,394.9z M-247,390.3c-0.2,0.5-0.8,0.7-1.3,0.4l-4.5-2.3c-0.5-0.2-0.7-0.8-0.4-1.3
			c0.2-0.5,0.8-0.7,1.3-0.4l4.5,2.3C-246.9,389.3-246.8,389.8-247,390.3z M-255.9,385.8c-0.2,0.5-0.8,0.7-1.3,0.4l-4.5-2.3
			c-0.5-0.2-0.6-0.8-0.4-1.3s0.8-0.7,1.3-0.4l4.5,2.3C-255.8,384.8-255.6,385.4-255.9,385.8z"/>
	</g>
	<g id="XMLID_413_">
		<path id="XMLID_414_" class="st0" d="M-211.3,408.5c-0.1,0.2-0.3,0.4-0.6,0.5c-0.6,0.2-1.1-0.1-1.3-0.6l-0.9-2.9
			c-0.2-0.6,0.1-1.1,0.6-1.3c0.6-0.2,1.1,0.1,1.3,0.6l0.9,2.9C-211.2,408-211.2,408.3-211.3,408.5z M-213.7,400.9
			c-0.1,0.2-0.3,0.4-0.6,0.5c-0.6,0.2-1.1-0.1-1.3-0.6l-0.9-2.9c-0.2-0.6,0.1-1.1,0.6-1.3c0.6-0.2,1.1,0.1,1.3,0.6l0.9,2.9
			C-213.7,400.4-213.7,400.7-213.7,400.9z"/>
	</g>
	<g id="XMLID_409_">
		<path id="XMLID_410_" class="st0" d="M-211.2,408.5c-0.1,0.2-0.3,0.4-0.6,0.5l-2.9,0.9c-0.6,0.2-1.1-0.1-1.3-0.6
			c-0.2-0.6,0.1-1.1,0.6-1.3l2.8-0.9c0.6-0.2,1.1,0.1,1.3,0.6C-211.2,408-211.2,408.3-211.2,408.5z M-218.9,411
			c-0.1,0.2-0.3,0.4-0.6,0.5l-2.9,0.9c-0.6,0.2-1.1,0-1.3-0.6c-0.2-0.6,0.1-1.1,0.6-1.3l2.9-0.9c0.6-0.2,1.1,0.1,1.3,0.6
			C-218.8,410.5-218.8,410.8-218.9,411z"/>
	</g>
</g>
</svg>
