<?xml version="1.0" encoding="utf-8"?>
<!-- Generator: Adobe Illustrator 21.1.0, SVG Export Plug-In . SVG Version: 6.00 Build 0)  -->
<svg version="1.1" id="Layer_1" xmlns="http://www.w3.org/2000/svg" xmlns:xlink="http://www.w3.org/1999/xlink" x="0px" y="0px"
	 viewBox="0 0 69 46" style="enable-background:new 0 0 69 46;" xml:space="preserve">
<style type="text/css">
	.st0{fill:#DBB512;}
</style>
<g id="XMLID_408_">
	<g id="XMLID_417_">
		<path id="XMLID_418_" class="st0" d="M8.4,31.2l4.5-2.3c0.5-0.3,1.1-0.1,1.3,0.4c0.3,0.5,0.1,1.1-0.4,1.3l-4.5,2.3
			C8.8,33.2,8.2,33,8,32.5S7.9,31.4,8.4,31.2z M17.3,26.6l4.5-2.3c0.5-0.3,1.1-0.1,1.3,0.4s0.1,1.1-0.4,1.3l-4.5,2.3
			c-0.5,0.3-1.1,0.1-1.3-0.4C16.6,27.5,16.8,26.9,17.3,26.6z M26.2,22.1l4.5-2.3c0.5-0.3,1.1-0.1,1.3,0.4s0.1,1.1-0.4,1.3l-4.5,2.3
			c-0.5,0.3-1.1,0.1-1.3-0.4C25.5,22.9,25.7,22.3,26.2,22.1z M35.1,17.6l4.5-2.3c0.5-0.3,1.1-0.1,1.3,0.4c0.3,0.5,0.1,1.1-0.4,1.3
			L36,19.3c-0.5,0.3-1.1,0.1-1.3-0.4C34.4,18.4,34.6,17.8,35.1,17.6z M44,13l4.5-2.3c0.5-0.3,1.1-0.1,1.3,0.4
			c0.3,0.5,0.1,1.1-0.4,1.3l-4.5,2.3c-0.5,0.3-1.1,0.1-1.3-0.4S43.5,13.3,44,13z M52.9,8.5l4.5-2.3c0.5-0.3,1.1-0.1,1.3,0.4
			s0.1,1.1-0.4,1.3l-4.5,2.3c-0.5,0.3-1.1,0.1-1.3-0.4C52.2,9.4,52.4,8.8,52.9,8.5z"/>
	</g>
	<g id="XMLID_413_">
		<path id="XMLID_414_" class="st0" d="M7.9,31.7l0.9-2.9c0.2-0.5,0.7-0.8,1.3-0.6c0.5,0.2,0.8,0.7,0.6,1.3l-0.9,2.9
			c-0.2,0.5-0.7,0.8-1.3,0.6c-0.3-0.1-0.5-0.3-0.6-0.5C7.8,32.3,7.8,32,7.9,31.7z M10.3,24.1l0.9-2.9c0.2-0.5,0.7-0.8,1.3-0.6
			c0.5,0.2,0.8,0.7,0.6,1.3l-0.9,2.9c-0.2,0.5-0.7,0.8-1.3,0.6c-0.3-0.1-0.5-0.3-0.6-0.5C10.3,24.7,10.3,24.4,10.3,24.1z"/>
	</g>
	<g id="XMLID_409_">
		<path id="XMLID_410_" class="st0" d="M7.9,31.7c0.2-0.5,0.7-0.8,1.3-0.6L12,32c0.5,0.2,0.8,0.7,0.6,1.3c-0.2,0.5-0.7,0.8-1.3,0.6
			L8.4,33c-0.3-0.1-0.5-0.3-0.6-0.5C7.8,32.3,7.8,32,7.9,31.7z M15.5,34.2c0.2-0.5,0.7-0.8,1.3-0.6l2.9,0.9c0.5,0.2,0.8,0.7,0.6,1.3
			s-0.7,0.8-1.3,0.6l-2.9-0.9c-0.3-0.1-0.5-0.3-0.6-0.5C15.4,34.8,15.4,34.5,15.5,34.2z"/>
	</g>
</g>
</svg>
