<?xml version="1.0" encoding="utf-8"?>
<!-- Generator: Adobe Illustrator 21.1.0, SVG Export Plug-In . SVG Version: 6.00 Build 0)  -->
<svg version="1.1" id="Layer_1" xmlns="http://www.w3.org/2000/svg" xmlns:xlink="http://www.w3.org/1999/xlink" x="0px" y="0px"
	 viewBox="0 0 50 25" style="enable-background:new 0 0 50 25;" xml:space="preserve">
<style type="text/css">
	.st0{fill:#DBB512;}
</style>
<path class="st0" d="M48.4,11.2l-7.1-5.8c-0.3-0.2-0.7-0.4-1.1-0.3c-0.4,0.1-0.8,0.3-1.1,0.7c-0.5,0.8-0.4,1.6,0.3,2.2l3.6,3H2.3
	C1.6,11,1,11.8,1,12.5C1,13.2,1.6,14,2.3,14h40.8l-3.6,3c-0.7,0.6-0.9,1.5-0.3,2.2c0.4,0.6,0.9,0.7,1.2,0.7c0.3,0,0.6-0.1,0.9-0.3
	l7.1-5.8c0.4-0.3,0.6-0.8,0.6-1.3C49,12,48.8,11.5,48.4,11.2z"/>
</svg>
