<?xml version="1.0" encoding="utf-8"?>
<!-- Generator: Adobe Illustrator 19.0.0, SVG Export Plug-In . SVG Version: 6.00 Build 0)  -->
<svg version="1.1" id="Layer_1" xmlns="http://www.w3.org/2000/svg" xmlns:xlink="http://www.w3.org/1999/xlink" x="0px" y="0px"
	 viewBox="-298 347.3 14.8 98.7" style="enable-background:new -298 347.3 14.8 98.7;" xml:space="preserve">
<style type="text/css">
	.st0{fill:#DBB512;}
</style>
<path class="st0" d="M-290.6,446c-0.5,0-1-0.2-1.3-0.6l-5.8-7.1c-0.2-0.3-0.3-0.6-0.3-0.9s0.1-0.8,0.7-1.2c0.7-0.6,1.6-0.4,2.2,0.3
	l3,3.6v-92.9h3V440l3-3.6c0.6-0.7,1.4-0.8,2.2-0.3c0.4,0.3,0.6,0.7,0.7,1.1c0.1,0.4-0.1,0.8-0.3,1.1l-5.8,7.1
	C-289.6,445.8-290.1,446-290.6,446z"/>
</svg>
