<?xml version="1.0" encoding="utf-8"?>
<!-- Generator: Adobe Illustrator 16.0.0, SVG Export Plug-In . SVG Version: 6.00 Build 0)  -->
<!DOCTYPE svg PUBLIC "-//W3C//DTD SVG 1.1//EN" "http://www.w3.org/Graphics/SVG/1.1/DTD/svg11.dtd">
<svg version="1.1"
	 id="svg2" xmlns:dc="http://purl.org/dc/elements/1.1/" xmlns:cc="http://creativecommons.org/ns#" xmlns:rdf="http://www.w3.org/1999/02/22-rdf-syntax-ns#" xmlns:svg="http://www.w3.org/2000/svg"
	 xmlns="http://www.w3.org/2000/svg" xmlns:xlink="http://www.w3.org/1999/xlink" x="0px" y="0px" width="580px" height="217.5px"
	 viewBox="0 0 580 217.5" enable-background="new 0 0 580 217.5" xml:space="preserve">
<g id="g10" transform="matrix(1.25,0,0,-1.25,0,217.5)">
	<g id="g12" transform="scale(0.1,0.1)">
		<path id="path14" fill="#F68D11" d="M1289.672,1140L1020,1230v390l270-80L1289.672,1140"/>
		<path id="path16" fill="#F68D11" d="M1360,1540l270,80l-0.941-389.73L1360,1140V1540"/>
		<path id="path18" fill="#F68D11" d="M1575,1662.23L1323.359,1740L1075,1662.23l248.719-66.672L1575,1662.23"/>
		<path id="path20" fill="#F68D11" d="M1969.672,1140L1700,1230v390l270-80L1969.672,1140"/>
		<path id="path22" fill="#F68D11" d="M2040,1540l270,80l-0.941-389.73L2040,1140V1540"/>
		<path id="path24" fill="#F68D11" d="M2255,1662.23L2003.359,1740L1755,1662.23l248.719-66.672L2255,1662.23"/>
		<path id="path26" fill="#F68D11" d="M270,970L0,1050V660l269.672-90L270,970"/>
		<path id="path28" fill="#F68D11" d="M340,970l270,80l-0.938-389.734L340,570V970"/>
		<path id="path30" fill="#F68D11" d="M555,1092.23L303.359,1170L55,1092.23l248.723-66.672L555,1092.23"/>
		<path id="path32" fill="#F68D11" d="M949.672,570L680,660v390l270-80L949.672,570"/>
		<path id="path34" fill="#F68D11" d="M1020,970l270,80l-0.941-389.734L1020,570V970"/>
		<path id="path36" fill="#F68D11" d="M1235,1092.23L983.359,1170L735,1092.23l248.723-66.672L1235,1092.23"/>
		<path id="path38" fill="#F68D11" d="M609.672,0L340,90v390l270-80L609.672,0"/>
		<path id="path40" fill="#F68D11" d="M680,400l270,80l-0.938-389.734L680,0V400"/>
		<path id="path42" fill="#F68D11" d="M895,522.234L643.359,600L395,522.234l248.723-66.672L895,522.234"/>
		<path id="path44" fill="#100F0D" d="M1803.898,344.75l-19.84-0.07c-7.277,0-16.559-4.914-18.84-12.891l-60.188-212.055
			L1645.5,331.328c-1.789,6.633-8.039,13.352-16.539,13.352h-23.492c-8.457,0-14.629-6.805-16.34-13.492l-55.379-209.391
			l-57.219,210.047c-2.262,7.672-11.77,12.836-19.23,12.836l-28.551,0.055c-6.102,0-11.77-2.625-14.809-6.844
			c-2.063-2.859-2.633-6.102-1.68-8.922l88.398-312.953c1.949-6.586,7.648-13.219,15.988-13.219h28.391
			c7.672,0,14.391,5.594,16.332,13.523l54.41,208.469l59.207-208.711c1.781-6.391,7.512-13.281,15.891-13.281h27.93
			c7.77,0,14.313,5.406,16.23,13.313l85.09,312.734c1,3.008,0.422,6.359-1.609,9.172
			C1815.531,342.172,1809.93,344.75,1803.898,344.75"/>
		<path id="path46" fill="#100F0D" d="M2049.379,211.875h-149.98c3.453,42.094,30.781,85.734,77.082,87.414
			C2025.75,297.679,2048.289,255.039,2049.379,211.875z M1976.371,346.984c-101.312,0-147.449-89.563-147.449-172.773
			c0-103.852,57.359-170.945,146.129-170.945c63.527,0,111.961,32.094,132.879,88.172c1.121,3.211,0.77,6.688-0.98,9.813
			c-2.129,3.789-6.168,6.648-10.949,7.703l-28.121,5.375c-7.551,1.188-16.199-3.289-19.059-9.781
			c-13.66-31.156-38.563-48.836-69.813-49.758c-30.066,0.93-57.68,18.789-70.328,45.477c-10.281,21.805-11.801,43.297-11.969,65.141
			l203.609,0.078c4.27,0,8.688,1.875,11.809,5.031c2.609,2.625,4.031,5.883,4,9.141
			C2115.629,260.562,2078.66,346.984,1976.371,346.984"/>
		<path id="path48" fill="#100F0D" d="M2366.625,173.711c0-19.164-3.477-114.836-71.445-117.281
			c-22.781,0.867-45.801,14.258-58.66,34.055c-9.469,14.977-15,35.672-16.418,61.281v56.297
			c1.109,43.117,31.457,90.438,74.859,92.266C2363.156,297.64,2366.625,194.39,2366.625,173.711L2366.625,173.711z M2305.84,349.89
			h-5.391c-33.629,0-60.059-13.969-80.348-42.602l-0.031,131.93c0,7.406-7.648,14.156-16.102,14.156h-29.277
			c-7.652,0-16.211-6.055-16.23-14.156V27.375c0.027-7.477,7.68-14.273,16.117-14.273l8.602,0.047
			c8.121,0,13.898,6.539,15.852,12.617l9.16,29.078c21.277-30.219,53.328-47.969,87.629-47.969h5.25
			c90.352,0,130.789,87.875,130.789,174.969c0,43.344-10.688,84.797-29.32,113.719C2381.015,329.07,2343.953,349.89,2305.84,349.89"
			/>
		<path id="path50" fill="#100F0D" d="M2752.469,182.984c-19.039,13.672-41.93,18.25-64.859,22.828l-43.969,8.148
			c-31.547,5.188-49.813,13.648-49.813,41.492c0,29.422,30.5,40.672,56.359,41.375c31.586-0.797,55.336-14.891,66.859-39.672
			c2.742-5.836,8.813-9.766,15.125-9.766c1.078,0,2.18,0.125,3.219,0.344l27.438,6.063c4.484,0.992,8.664,4.063,10.898,8.055
			c1.797,3.164,2.18,6.633,1.117,9.719c-16.797,48.914-59.422,74.758-123.914,74.758c-58.273-0.125-120.539-26.039-120.539-98.406
			c0-49.461,31.078-80.875,92.438-93.375l49.219-9.375c27.023-5.172,54.656-14.375,54.656-43.383
			c0-42.945-49.984-47.328-65.094-47.641c-33.898,0.727-72.281,15.852-81.602,47.867c-1.867,7.047-10.727,12.023-18.5,10.406
			l-28.695-5.922c-4.32-0.906-8.273-3.719-10.57-7.516c-1.93-3.156-2.484-6.695-1.594-9.922
			c14.813-53.133,66.102-85.172,137.203-85.711l1.578-0.008c63.5,0,131.352,27.188,131.352,103.469
			C2790.781,137.859,2776.812,165.625,2752.469,182.984"/>
		<path id="path52" fill="#100F0D" d="M3042.75,211.57h-150.023c3.43,42.133,30.766,85.789,77.063,87.391
			C3019.039,297.398,3041.609,254.765,3042.75,211.57z M2969.711,346.703c-101.328,0-147.484-89.578-147.484-172.781
			c0-103.844,57.375-170.938,146.156-170.938c63.539,0,111.969,32.109,132.906,88.172c1.109,3.219,0.758,6.703-1,9.828
			c-2.133,3.797-6.18,6.656-10.945,7.688l-28.164,5.375c-6.586,1.078-15.781-2.336-19.023-9.781
			c-13.664-31.141-38.578-48.828-69.797-49.781c-30.102,0.953-57.703,18.813-70.297,45.5c-10.305,21.75-11.836,43.25-11.984,65.156
			l203.594,0.047c4.234,0,8.625,1.875,11.75,5.016c2.617,2.625,4.039,5.891,4.008,9.172
			C3108.961,260.265,3072.023,346.703,2969.711,346.703"/>
		<path id="path54" fill="#100F0D" d="M3301.687,342.89c-3.969,0.438-7.789,0.648-11.5,0.648c-34.164,0-61.914-18.578-81.18-54.07
			l0.07,31.078c-0.031,7.531-7.539,14.141-16.07,14.141h-25.43c-8.336,0-15.695-6.641-15.758-14.258l-0.039-301.93
			c0-7.578,7.359-14.234,15.758-14.234l29.672,0.016c7.719,0,16.406,6.063,16.477,14.219l0.023,152.219
			c0,25.102,2.336,44.016,14.328,66.383c17.133,31.867,41.055,47.5,73.133,47.75c8.039,0.055,15.102,7.078,15.102,15.023v28.25
			C3316.273,335.515,3309.859,342,3301.687,342.89"/>
		<path id="path56" fill="#100F0D" d="M3613.203,348.82l-23.43-0.008c-7.344,0-16.75-5.273-19.031-13l-75.953-238.711
			l-77.563,238.469c-2.289,7.914-11.719,13.242-19.094,13.242l-33.461,0.031c-6.141,0-12.078-2.742-15.125-6.969
			c-2.039-2.836-2.594-6.047-1.586-9.047l106.148-314.891c2.039-6.227,7.453-13.508,16.008-13.508h40.492
			c7.43,0,13.523,5.055,16.313,13.539l102.961,314.766c1.023,2.984,0.477,6.203-1.555,9.047
			C3625.273,346.047,3619.344,348.82,3613.203,348.82"/>
		<path id="path58" fill="#100F0D" d="M3690.179,469.859c-21.578,0-39.133-17.594-39.133-39.25
			c0-21.648,17.555-39.234,39.133-39.234c21.594,0,39.164,17.586,39.164,39.234C3729.344,452.265,3711.773,469.859,3690.179,469.859
			"/>
		<path id="path60" fill="#100F0D" d="M3706.289,350.734l-32.133,0.031c-8.734,0-16.695-7.063-16.695-14.813l-0.164-320.594
			c0-3.875,2-7.734,5.461-10.594c3.172-2.594,7.219-4.094,11.289-4.094l32.359-0.047h0.023c8.867,0.078,16.664,6.953,16.664,14.719
			v320.609C3723.094,343.828,3715.226,350.734,3706.289,350.734"/>
		<path id="path62" fill="#100F0D" d="M4006.562,133.344l-26.836-0.109c-7.484,0-13.765-4.5-16.554-12.313
			c-9.805-42.281-32-64.188-65.664-65.156c-65.555,1.945-70.648,93.328-70.648,121.281c0,55.766,19.313,115.938,73.219,117.523
			c32.539-1,56.211-24.336,63.313-62.352c1.336-7.758,7.297-13.625,15.437-14.648l28.711-0.281
			c8.578,0.93,15.313,7.422,15.25,15.477c-10.156,68.703-57.765,113.109-121.398,113.109l-2.203-0.055l-2.484,0.055
			c-92.547,0-133.977-86.359-133.977-171.953c0-78.469,34.93-170.102,133.453-170.102h4.719c62.039,0,108.875,43.492,122.281,114
			c0.297,3.359-0.859,6.719-3.242,9.445C4016.859,130.812,4011.953,133.078,4006.562,133.344"/>
		<path id="path64" fill="#100F0D" d="M4271.539,211.57H4121.5c3.43,42.141,30.773,85.789,77.102,87.391
			C4247.859,297.398,4270.421,254.765,4271.539,211.57z M4198.5,346.703c-101.32,0-147.461-89.578-147.461-172.781
			c0-103.844,57.367-170.938,146.148-170.938c63.516,0,111.922,32.086,132.883,88.164c1.086,3.227,0.727,6.727-1.023,9.836
			c-2.156,3.828-6.086,6.617-10.938,7.688l-28.117,5.375c-6.625,1.078-15.781-2.336-19.023-9.781
			c-13.711-31.141-38.625-48.828-69.836-49.797c-30.094,0.969-57.68,18.828-70.281,45.516c-10.313,21.781-11.844,43.281-12,65.156
			l203.609,0.031c4.281,0,8.695,1.891,11.828,5.063c2.602,2.641,4,5.906,3.953,9.141
			C4337.773,260.265,4300.82,346.703,4198.5,346.703"/>
		<path id="path66" fill="#100F0D" d="M4593.312,182.984c-19.07,13.688-41.992,18.25-64.883,22.828l-43.969,8.148
			c-31.523,5.188-49.773,13.648-49.773,41.492c0,37.953,47.109,41.125,56.305,41.375c31.609-0.797,55.359-14.891,66.867-39.68
			c2.758-5.836,8.852-9.758,15.172-9.758c1.086,0,2.18,0.125,3.242,0.344l27.414,6.063c4.484,0.992,8.656,4.078,10.891,8.063
			c1.781,3.172,2.172,6.625,1.102,9.711c-16.773,48.914-59.406,74.758-123.93,74.758c-58.25-0.125-120.5-26.039-120.5-98.406
			c0-49.469,31.07-80.883,92.422-93.375l49.234-9.375c27.023-5.172,54.656-14.375,54.656-43.383
			c0-42.945-49.984-47.328-65.094-47.641c-31.43,0.672-71.656,13.648-81.586,47.836c-1.82,7.078-10.672,12.047-18.586,10.438
			l-28.648-5.922c-4.336-0.922-8.297-3.75-10.602-7.547c-1.906-3.172-2.453-6.688-1.555-9.891
			c14.766-53.133,66.047-85.172,137.156-85.711l1.586-0.008c63.508,0,131.367,27.188,131.367,103.469
			C4631.601,137.875,4617.64,165.648,4593.312,182.984"/>
		<path id="path68" fill="#100F0D" d="M3287.148,967.98v72.801c0.039,11.039,8.422,18.449,18.484,18.438l326.148,0.012
			c10.406,0,18.813-7.59,18.813-18.371v-62.43c-0.102-10.449-8.938-24.113-24.57-45.813l-168.93-241.211
			c62.68,1.492,129.039-7.891,186-39.922c12.867-7.219,16.289-17.922,17.336-28.383v-77.68c0-10.711-11.719-23.094-24.023-16.641
			c-100.383,52.594-233.617,58.344-344.648-0.609c-11.328-6.047-23.211,6.141-23.211,16.844v73.813
			c0,11.781,0.242,32.016,12.133,50.031l195.75,280.781l-170.406,0.039C3295.594,949.679,3287.25,957.101,3287.148,967.98"/>
		<path id="path70" fill="#100F0D" d="M2097.449,513.461h-99.25c-9.43,0.617-16.98,7.727-17.73,16.805l0.07,509.273
			c0,10.191,8.582,18.332,19.141,18.332l92.41,0.051c9.68-0.543,17.418-7.844,18.082-17.102v-66.543h1.84
			c24.059,64.332,69.449,94.293,130.566,94.293c62.051,0,100.961-29.961,128.75-94.293c24.102,64.332,78.734,94.293,137.133,94.293
			c41.68,0,87.008-17.121,114.797-55.68c31.492-42.891,25-105.008,25-159.688l-0.055-321.391c0-10.164-8.57-18.352-19.125-18.352
			h-99.102c-9.977,0.617-17.828,8.578-17.828,18.305v270c0,21.422,1.828,75.031-2.789,95.375
			c-7.43,34.324-29.672,43.914-58.344,43.914c-24.109,0-49.125-16.074-59.313-41.738c-10.188-25.762-9.242-68.629-9.242-97.551
			V531.812c0-10.164-8.57-18.352-19.141-18.352h-99.121c-9.93,0.617-17.801,8.578-17.801,18.305l-0.129,270
			c0,56.813,9.289,140.363-61.09,140.363c-71.32,0-68.539-81.426-68.539-140.363l-0.063-269.953
			C2116.621,521.648,2108.039,513.461,2097.449,513.461"/>
		<path id="path72" fill="#100F0D" d="M3932.289,964.656c-73.211,0-77.82-99.656-77.82-161.836
			c0-62.148-0.922-195.023,76.922-195.023c76.89,0,80.578,107.172,80.578,172.531c0,42.859-1.828,94.289-14.797,135.016
			C3986.023,950.722,3963.812,964.656,3932.289,964.656z M3931.39,1068.57c147.258,0,226.929-126.441,226.929-287.133
			c0-155.422-88.031-278.672-226.929-278.672c-144.508,0-223.258,126.469-223.258,284
			C3708.133,945.371,3787.773,1068.57,3931.39,1068.57"/>
		<path id="path74" fill="#100F0D" d="M4349.32,513.461h-98.867c-9.961,0.617-17.813,8.578-17.813,18.305l-0.141,509.504
			c0.82,9.281,9.063,16.602,19.016,16.602l92.07,0.051c8.68-0.48,15.805-6.383,17.625-14.273v-77.926h1.875
			c27.75,69.668,66.68,102.848,135.195,102.848c44.469,0,88.031-16.031,115.797-59.98C4640,967.883,4640,899.316,4640,850.015
			v-320.5c-1.109-9.031-9.156-16.055-18.961-16.055h-99.516c-9.18,0.602-16.563,7.383-17.672,16.055v276.539
			c0,55.727,6.5,137.188-62.07,137.188c-24.07,0-46.273-16.113-57.398-40.73c-13.914-31.066-15.75-62.137-15.75-96.457V531.812
			C4368.46,521.648,4359.882,513.461,4349.32,513.461"/>
		<path id="path76" fill="#100F0D" d="M3203.922,606.797c-18.242,25.047-37.523,45.523-37.523,92v154.563
			c0,65.52,4.641,125.68-43.602,170.801c-38.078,36.48-101.195,49.359-149.438,49.359c-94.477,0-199.836-35.199-221.922-151.918
			c-2.32-12.402,6.641-18.883,14.805-20.723l96.156-10.398c8.961,0.398,15.523,9.281,17.203,18.16
			c8.32,40.238,41.922,59.598,79.758,59.598c20.484,0,43.68-7.438,55.68-25.758c14-20.402,12.164-48.32,12.164-71.922v-12.879
			c-57.602-6.477-132.805-10.719-186.641-34.398c-62.164-26.883-105.766-81.602-105.766-162.164
			c0-103.117,64.961-154.641,148.563-154.641c70.484,0,109.039,16.641,163.523,72.086c18-26,23.914-38.719,56.875-66.164
			c7.445-3.922,16.883-3.516,23.445,2.32l0.234-0.156c19.844,17.68,55.844,48.875,76.086,65.836
			C3211.601,587.039,3210.156,597.758,3203.922,606.797z M3008.562,651.437c-15.766-27.914-40.805-45.117-68.641-45.117
			c-38.078,0-60.32,29.039-60.32,72c0,84.477,75.836,99.836,147.602,99.836v-21.438C3027.203,718,3028.078,685.758,3008.562,651.437
			z"/>
		<path id="path78" fill="#100F0D" d="M1903.039,606.797c-18.078,25.047-37.438,45.523-37.438,92v154.563
			c0,65.52,4.719,125.68-43.602,170.801c-38.078,36.48-101.199,49.359-149.441,49.359c-94.398,0-199.84-35.199-221.918-151.918
			c-2.32-12.402,6.719-18.883,14.801-20.723l96.238-10.398c8.961,0.398,15.52,9.281,17.199,18.16
			c8.242,40.238,41.922,59.598,79.762,59.598c20.398,0,43.598-7.438,55.68-25.758c13.918-20.402,12.078-48.32,12.078-71.922v-12.879
			c-57.52-6.477-132.719-10.719-186.559-34.398C1477.601,796.398,1434,741.679,1434,661.117
			c0-103.117,64.961-154.641,148.48-154.641c70.559,0,109.199,16.641,163.598,72.086c18.082-26,23.922-38.719,56.883-66.164
			c7.438-3.922,16.961-3.516,23.52,2.32l0.16-0.156c19.84,17.68,55.84,48.875,76.16,65.836
			C1910.801,587.039,1909.359,597.758,1903.039,606.797z M1707.84,651.437c-15.762-27.914-40.879-45.117-68.641-45.117
			c-38.16,0-60.398,29.039-60.398,72c0,84.477,75.84,99.836,147.598,99.836v-21.438C1726.398,718,1727.281,685.758,1707.84,651.437z
			"/>
	</g>
</g>
</svg>
