<?xml version="1.0" encoding="utf-8"?>
<!-- Generator: Adobe Illustrator 19.0.0, SVG Export Plug-In . SVG Version: 6.00 Build 0)  -->
<svg version="1.1" id="Layer_1" xmlns="http://www.w3.org/2000/svg" xmlns:xlink="http://www.w3.org/1999/xlink" x="0px" y="0px"
	 viewBox="0 0 75 75" style="enable-background:new 0 0 75 75;" xml:space="preserve">
<metadata><?xpacket begin="﻿" id="W5M0MpCehiHzreSzNTczkc9d"?>
<x:xmpmeta xmlns:x="adobe:ns:meta/" x:xmptk="Adobe XMP Core 5.6-c067 79.157747, 2015/03/30-23:40:42        ">
   <rdf:RDF xmlns:rdf="http://www.w3.org/1999/02/22-rdf-syntax-ns#">
      <rdf:Description rdf:about=""/>
   </rdf:RDF>
</x:xmpmeta>
                                                                                                    
                                                                                                    
                                                                                                    
                                                                                                    
                                                                                                    
                                                                                                    
                                                                                                    
                                                                                                    
                                                                                                    
                                                                                                    
                                                                                                    
                                                                                                    
                                                                                                    
                                                                                                    
                                                                                                    
                                                                                                    
                                                                                                    
                                                                                                    
                                                                                                    
                                                                                                    
                           
<?xpacket end="w"?></metadata>
<style type="text/css">
	.st0{display:none;fill:#4057A9;stroke:#FFFFFF;stroke-miterlimit:10;}
	.st1{fill:#FFFFFF;}
</style>
<g>
	<g>
		<path class="st0" d="M71.3,36.2l-8.4-22.6c-0.3-0.8-0.9-1.5-1.7-1.8c-0.8-0.4-1.7-0.4-2.5-0.1L17.9,26.8c-0.8,0.3-1.5,0.9-1.8,1.7
			c-0.4,0.8-0.4,1.7-0.1,2.5l8.4,22.6c0.3,0.8,0.9,1.5,1.7,1.8c0.4,0.2,0.9,0.3,1.4,0.3c0.4,0,0.8-0.1,1.1-0.2l40.8-15.1
			c1.3-0.5,2.1-1.7,2.1-3.1C71.5,37,71.4,36.6,71.3,36.2z M56.5,16L43.8,34.1l-21.4-5.5L56.5,16z M26.8,50.9l-7.2-19.6l16.8,4.3
			L26.8,50.9z M30.4,51.4l9.3-14.9l4.4,1.1c0.1,0,0.3,0.1,0.4,0.1c0.5,0,1-0.3,1.3-0.7l2.6-3.7l16.8,5.3L30.4,51.4z M50.4,30.4
			l9.9-14.2l7.3,19.6L50.4,30.4z"/>
	</g>
</g>
<path class="st1" d="M66.8,33c-6.3-0.7-12.5,1.2-18.9,5.9c-0.6-1.1-1.3-2.2-2-3.2l19.9-14.1c0.6-0.4,0.7-1.2,0.3-1.7
	c-0.4-0.6-1.2-0.7-1.7-0.3L44.5,33.7c-0.7-1-1.5-2-2.3-3C48.7,26.2,52.6,21,54,14.8c0.2-0.7-0.3-1.3-0.9-1.5
	c-0.7-0.2-1.4,0.3-1.5,0.9c-1.3,5.6-4.9,10.4-11.1,14.6c-4.8-5-10-8.2-13.1-6.1c-0.5,0.4-0.9,0.9-1.2,1.5v0.1L7,59.9L6.9,60l0,0
	c-0.1,0.3-0.2,0.5-0.1,0.8c0,0.1,0,0.1,0,0.2s0.1,0.2,0.2,0.3c0,0.1,0.1,0.1,0.2,0.2l0.1,0.1c0.1,0,0.1,0.1,0.2,0.1
	c0.1,0.1,0.2,0.1,0.4,0.1c0.1,0,0.3,0,0.4,0l40.5-6.3h0.1c0.1,0,0.1,0,0.2,0c0.5-0.1,0.9-0.3,1.3-0.6c3-2.1,1.8-7.9-1.1-13.8l0,0
	c6-4.4,11.8-6.2,17.5-5.6c0.7,0.1,1.3-0.4,1.4-1.1C68,33.7,67.5,33.1,66.8,33z M10.2,59.1L26,29.8c0.9,4.1,3.4,9.1,6.5,13.5
	s7,8.4,10.6,10.6L10.2,59.1z M48.7,52.9c-0.1,0.1-0.3,0.2-0.5,0.2h-0.1c-2.3,0.3-8.1-3.5-13.6-11.3c-5.4-7.6-7.1-14.2-6.2-16.5
	c0,0,0-0.1,0.1-0.2c0.1-0.2,0.2-0.4,0.4-0.5c0.3-0.2,0.8-0.3,1.4-0.2c1.8,0.3,4.8,2.2,8.1,5.6c-1.6,0.9-3.3,1.9-5.1,2.7
	c-0.6,0.3-0.9,1-0.6,1.7c0.2,0.4,0.5,0.6,0.9,0.7c0.2,0,0.5,0,0.8-0.1c2.1-1,4-2,5.7-3.1c0.8,0.9,1.6,1.9,2.4,3l-3.1,2.2
	c-0.6,0.4-0.7,1.2-0.3,1.7c0.2,0.3,0.5,0.5,0.8,0.5s0.7,0,0.9-0.2l3.1-2.2c0.7,1.1,1.4,2.2,2,3.3c-1.6,1.3-3.2,2.7-4.8,4.3
	c-0.5,0.5-0.5,1.3,0,1.8c0.2,0.2,0.4,0.3,0.7,0.3c0.4,0.1,0.8-0.1,1.1-0.3c1.4-1.4,2.8-2.7,4.2-3.8C49.6,48.1,50,52.1,48.7,52.9z"/>
</svg>
