<?xml version="1.0" encoding="utf-8"?>
<!-- Generator: Adobe Illustrator 19.0.0, SVG Export Plug-In . SVG Version: 6.00 Build 0)  -->
<svg version="1.1" id="Layer_1" xmlns="http://www.w3.org/2000/svg" xmlns:xlink="http://www.w3.org/1999/xlink" x="0px" y="0px"
	 viewBox="0 0 75 75" style="enable-background:new 0 0 75 75;" xml:space="preserve">
<metadata><?xpacket begin="﻿" id="W5M0MpCehiHzreSzNTczkc9d"?>
<x:xmpmeta xmlns:x="adobe:ns:meta/" x:xmptk="Adobe XMP Core 5.6-c067 79.157747, 2015/03/30-23:40:42        ">
   <rdf:RDF xmlns:rdf="http://www.w3.org/1999/02/22-rdf-syntax-ns#">
      <rdf:Description rdf:about=""/>
   </rdf:RDF>
</x:xmpmeta>
                                                                                                    
                                                                                                    
                                                                                                    
                                                                                                    
                                                                                                    
                                                                                                    
                                                                                                    
                                                                                                    
                                                                                                    
                                                                                                    
                                                                                                    
                                                                                                    
                                                                                                    
                                                                                                    
                                                                                                    
                                                                                                    
                                                                                                    
                                                                                                    
                                                                                                    
                                                                                                    
                           
<?xpacket end="w"?></metadata>
<style type="text/css">
	.st0{display:none;fill:#4057A9;stroke:#FFFFFF;stroke-miterlimit:10;}
	.st1{fill:#FFFFFF;}
</style>
<g>
	<g>
		<path class="st0" d="M71.3,36.2l-8.4-22.6c-0.3-0.8-0.9-1.5-1.7-1.8c-0.8-0.4-1.7-0.4-2.5-0.1L17.9,26.8c-0.8,0.3-1.5,0.9-1.8,1.7
			c-0.4,0.8-0.4,1.7-0.1,2.5l8.4,22.6c0.3,0.8,0.9,1.5,1.7,1.8c0.4,0.2,0.9,0.3,1.4,0.3c0.4,0,0.8-0.1,1.1-0.2l40.8-15.1
			c1.3-0.5,2.1-1.7,2.1-3.1C71.5,37,71.4,36.6,71.3,36.2z M56.5,16L43.8,34.1l-21.4-5.5L56.5,16z M26.8,50.9l-7.2-19.6l16.8,4.3
			L26.8,50.9z M30.4,51.4l9.3-14.9l4.4,1.1c0.1,0,0.3,0.1,0.4,0.1c0.5,0,1-0.3,1.3-0.7l2.6-3.7l16.8,5.3L30.4,51.4z M50.4,30.4
			l9.9-14.2l7.3,19.6L50.4,30.4z"/>
	</g>
</g>
<g>
	<path class="st1" d="M36.6,22.5c0,0.7-0.6,1.3-1.3,1.3H19c-0.7,0-1.3-0.6-1.3-1.3c0-0.7,0.6-1.3,1.3-1.3h16.3
		C36.1,21.2,36.6,21.8,36.6,22.5z"/>
	<path class="st1" d="M36.6,29.5c0,0.7-0.6,1.3-1.3,1.3H19c-0.7,0-1.3-0.6-1.3-1.3c0-0.7,0.6-1.3,1.3-1.3h16.3
		C36.1,28.2,36.6,28.8,36.6,29.5z"/>
	<path class="st1" d="M45.2,36.8c0,0.7-0.6,1.3-1.3,1.3H19c-0.7,0-1.3-0.6-1.3-1.3c0-0.7,0.6-1.3,1.3-1.3h24.9
		C44.7,35.5,45.2,36.1,45.2,36.8z"/>
	<path class="st1" d="M66,33c-1.8-1.9-4.9-2.4-7.5,0L56,35.4V25l0,0c0-0.1,0-0.2,0-0.2c0-0.1,0-0.2-0.1-0.2c0-0.1-0.1-0.2-0.1-0.2
		c0-0.1-0.1-0.1-0.1-0.2l0,0l-0.1-0.1l-6-6V8.8c0-0.7-0.6-1.3-1.3-1.3H8.8c-0.7,0-1.3,0.6-1.3,1.3v50.8c0,0.7,0.6,1.3,1.3,1.3H14
		v5.3c0,0.7,0.6,1.3,1.3,1.3h39.4c0.7,0,1.3-0.6,1.3-1.3V50l9.8-9.3C68.3,38.2,67.8,34.9,66,33z M49.5,21.7l2.1,2h-5.3v-5.3L47,19
		l1.3,1.3L49.5,21.7z M14,15.3v42.8h-3.9V9.9h36.8v5.4l-1-1l0,0l0,0c-0.1-0.1-0.1-0.1-0.2-0.2l0,0c-0.1,0-0.1-0.1-0.2-0.1l0,0
		c-0.1,0-0.1-0.1-0.2-0.1l0,0c-0.1,0-0.2,0-0.3,0H15.4C14.6,14,14,14.6,14,15.3z M53.4,64.8H16.6V16.6h27V25c0,0.7,0.6,1.3,1.3,1.3
		h8.5v11.6l-3.9,3.7l-1.3,1.2L46.9,44l-6.4,6.1c-0.2,0.2-0.3,0.4-0.4,0.6l-2.2,7.4c0,0,0,0,0,0.1c-0.1,0.4,0,0.9,0.3,1.2l0.1,0.1
		c0.2,0.2,0.5,0.3,0.9,0.3c0.1,0,0.2,0,0.3,0l1.4-0.3l6.2-1.3c0.2-0.1,0.5-0.2,0.6-0.3l0.5-0.4l1.3-1.2l3.9-3.7L53.4,64.8L53.4,64.8
		z M44.7,51.7c0.3,0.2,0.5,0.4,0.8,0.7c0.3,0.3,0.6,0.6,0.8,0.9c0.3,0.4,0.4,0.8,0.6,1.1c0.1,0.2,0.1,0.3,0.1,0.5L46.9,55l-0.7,0.7
		l-5.1,1.1l1.5-4.9l0.8-0.8C43.7,51.1,44.2,51.2,44.7,51.7z M56,46.4l-1.3,1.2l-1.3,1.2l-3.9,3.7l-0.4,0.4c-0.2-0.5-0.5-1-0.9-1.5
		c-0.2-0.3-0.5-0.6-0.7-0.9c-0.2-0.2-0.4-0.4-0.6-0.5c-0.5-0.4-1-0.7-1.4-1l1.4-1.3l1.3-1.2l1.3-1.2l3.9-3.7l1.3-1.2l1.3-1.2
		l0.7-0.7l3.6,3.9L56,46.4z M63.9,38.8l-1.7,1.6l-3.6-3.9l1.7-1.6c1.5-1.5,3-1,3.9-0.1C65,35.8,65.4,37.4,63.9,38.8z"/>
	<path class="st1" d="M36.9,47.5L25.5,57.9c-0.1,0.1-0.3,0.2-0.5,0.3c-0.1,0-0.3,0.1-0.4,0.1c-0.1,0-0.3,0-0.4-0.1
		c-0.2-0.1-0.4-0.1-0.5-0.3l-3.6-3.4c-0.5-0.5-0.5-1.3-0.1-1.8c0.5-0.5,1.3-0.5,1.8-0.1l0.4,0.4l2.3,2.2l7.4-6.8l3.1-2.8
		c0.5-0.5,1.4-0.4,1.8,0.1C37.4,46.2,37.4,47,36.9,47.5z"/>
</g>
</svg>
