<?xml version="1.0" encoding="utf-8"?>
<!-- Generator: Adobe Illustrator 19.0.0, SVG Export Plug-In . SVG Version: 6.00 Build 0)  -->
<svg version="1.1" id="Layer_1" xmlns="http://www.w3.org/2000/svg" xmlns:xlink="http://www.w3.org/1999/xlink" x="0px" y="0px"
	 viewBox="0 0 75 75" style="enable-background:new 0 0 75 75;" xml:space="preserve">
<metadata><?xpacket begin="﻿" id="W5M0MpCehiHzreSzNTczkc9d"?>
<x:xmpmeta xmlns:x="adobe:ns:meta/" x:xmptk="Adobe XMP Core 5.6-c067 79.157747, 2015/03/30-23:40:42        ">
   <rdf:RDF xmlns:rdf="http://www.w3.org/1999/02/22-rdf-syntax-ns#">
      <rdf:Description rdf:about=""/>
   </rdf:RDF>
</x:xmpmeta>
                                                                                                    
                                                                                                    
                                                                                                    
                                                                                                    
                                                                                                    
                                                                                                    
                                                                                                    
                                                                                                    
                                                                                                    
                                                                                                    
                                                                                                    
                                                                                                    
                                                                                                    
                                                                                                    
                                                                                                    
                                                                                                    
                                                                                                    
                                                                                                    
                                                                                                    
                                                                                                    
                           
<?xpacket end="w"?></metadata>
<style type="text/css">
	.st0{display:none;fill:#4057A9;stroke:#FFFFFF;stroke-miterlimit:10;}
	.st1{fill:#FFFFFF;}
</style>
<g>
	<g>
		<path class="st0" d="M71.3,36.2l-8.4-22.6c-0.3-0.8-0.9-1.5-1.7-1.8c-0.8-0.4-1.7-0.4-2.5-0.1L17.9,26.8c-0.8,0.3-1.5,0.9-1.8,1.7
			c-0.4,0.8-0.4,1.7-0.1,2.5l8.4,22.6c0.3,0.8,0.9,1.5,1.7,1.8c0.4,0.2,0.9,0.3,1.4,0.3c0.4,0,0.8-0.1,1.1-0.2l40.8-15.1
			c1.3-0.5,2.1-1.7,2.1-3.1C71.5,37,71.4,36.6,71.3,36.2z M56.5,16L43.8,34.1l-21.4-5.5L56.5,16z M26.8,50.9l-7.2-19.6l16.8,4.3
			L26.8,50.9z M30.4,51.4l9.3-14.9l4.4,1.1c0.1,0,0.3,0.1,0.4,0.1c0.5,0,1-0.3,1.3-0.7l2.6-3.7l16.8,5.3L30.4,51.4z M50.4,30.4
			l9.9-14.2l7.3,19.6L50.4,30.4z"/>
	</g>
</g>
<g>
	<path class="st1" d="M22.4,47.6c-0.6,0-1.1-0.5-1.1-1.1v-7c0-0.6,0.5-1.1,1.1-1.1h2c0.6,0,1.1,0.5,1.1,1.1v7c0,0.6-0.5,1.1-1.1,1.1
		H22.4z"/>
	<path class="st1" d="M28.4,47.6c-0.6,0-1.1-0.5-1.1-1.1V32.2c0-0.6,0.5-1.1,1.1-1.1h2c0.6,0,1.1,0.5,1.1,1.1v14.2
		c0,0.6-0.5,1.1-1.1,1.1H28.4z"/>
	<path class="st1" d="M34.4,47.6c-0.6,0-1.1-0.5-1.1-1.1V34.3c0-0.6,0.5-1.1,1.1-1.1h2c0.6,0,1.1,0.5,1.1,1.1v12.1
		c0,0.6-0.5,1.1-1.1,1.1H34.4z"/>
	<path class="st1" d="M40.4,47.6c-0.6,0-1.1-0.5-1.1-1.1V35.9c0-0.6,0.5-1.1,1.1-1.1h2c0.6,0,1.1,0.5,1.1,1.1v10.5
		c0,0.6-0.5,1.1-1.1,1.1H40.4z"/>
	<path class="st1" d="M46.4,47.6c-0.6,0-1.1-0.5-1.1-1.1v-18c0-0.6,0.5-1.1,1.1-1.1h2c0.6,0,1.1,0.5,1.1,1.1v18
		c0,0.6-0.5,1.1-1.1,1.1H46.4z"/>
	<path class="st1" d="M34.2,18.9l-2,3.5c-0.3,0.5-0.8,0.7-1.3,0.7c-0.3,0-0.5-0.1-0.7-0.2c-0.7-0.4-1-1.3-0.5-2l0.3-0.5
		c-6.3,2.3-11,7.8-12.2,14.5c-0.6,3.3-0.3,6.6,0.8,9.7c0.3,0.8-0.1,1.6-0.9,1.9c-0.2,0.1-0.3,0.1-0.5,0.1c-0.6,0-1.2-0.4-1.4-1
		c-1.3-3.6-1.6-7.5-1-11.3c1.4-7.8,6.9-14.2,14.2-16.8l-0.4-0.2c-0.7-0.4-1-1.3-0.5-2c0.2-0.3,0.7-0.6,1.3-0.6
		c0.3,0,0.5,0.1,0.7,0.2l3.5,2c0.3,0.2,0.6,0.5,0.7,0.9C34.4,18.2,34.3,18.7,34.2,18.9z"/>
	<path class="st1" d="M53.1,52.4c-4.2,5-10.4,7.8-16.8,7.8c-1.2,0-2.5-0.1-3.8-0.3c-3.8-0.7-7.4-2.4-10.3-4.8v0.5
		c0,0.8-0.7,1.5-1.5,1.5s-1.5-0.7-1.5-1.5v-4.2c0-0.4,0.2-0.7,0.5-1c0.3-0.4,0.6-0.5,1-0.5h4.1c0.8,0,1.5,0.7,1.5,1.5
		s-0.7,1.5-1.5,1.5h-0.5c2.5,2,5.5,3.4,8.7,4c1.1,0.2,2.2,0.3,3.3,0.3c5.5,0,10.9-2.4,14.5-6.7c0.3-0.3,0.7-0.5,1.1-0.5
		c0.3,0,0.7,0.1,1,0.3C53.5,50.8,53.6,51.8,53.1,52.4z"/>
	<path class="st1" d="M59.7,44.7l-3.5,2c-0.2,0.1-0.5,0.2-0.7,0.2c-0.1,0-0.3,0-0.4-0.1c-0.4-0.1-0.7-0.4-0.9-0.7l-2-3.5
		c-0.4-0.7-0.2-1.6,0.5-2c0.2-0.1,0.5-0.2,0.7-0.2c0.5,0,1,0.3,1.3,0.7l0.2,0.4c0.9-5-0.2-9.9-3.1-14.1c-2.9-4.1-7.2-6.9-12.2-7.8
		c-0.8-0.1-1.3-0.9-1.2-1.7c0-0.5,0.7-1,1.4-1h0.3c5.7,1,10.7,4.2,14.1,9c3.3,4.8,4.6,10.6,3.6,16.3c0,0.1,0,0.2-0.1,0.3l0.5-0.3
		c0.2-0.1,0.5-0.2,0.7-0.2c0.5,0,1,0.3,1.3,0.7C60.6,43.3,60.4,44.2,59.7,44.7z"/>
</g>
</svg>
