<?xml version="1.0" encoding="utf-8"?>
<!-- Generator: Adobe Illustrator 19.0.0, SVG Export Plug-In . SVG Version: 6.00 Build 0)  -->
<svg version="1.1" id="Layer_1" xmlns="http://www.w3.org/2000/svg" xmlns:xlink="http://www.w3.org/1999/xlink" x="0px" y="0px"
	 viewBox="0 0 75 75" style="enable-background:new 0 0 75 75;" xml:space="preserve">
<metadata><?xpacket begin="﻿" id="W5M0MpCehiHzreSzNTczkc9d"?>
<x:xmpmeta xmlns:x="adobe:ns:meta/" x:xmptk="Adobe XMP Core 5.6-c067 79.157747, 2015/03/30-23:40:42        ">
   <rdf:RDF xmlns:rdf="http://www.w3.org/1999/02/22-rdf-syntax-ns#">
      <rdf:Description rdf:about=""/>
   </rdf:RDF>
</x:xmpmeta>
                                                                                                    
                                                                                                    
                                                                                                    
                                                                                                    
                                                                                                    
                                                                                                    
                                                                                                    
                                                                                                    
                                                                                                    
                                                                                                    
                                                                                                    
                                                                                                    
                                                                                                    
                                                                                                    
                                                                                                    
                                                                                                    
                                                                                                    
                                                                                                    
                                                                                                    
                                                                                                    
                           
<?xpacket end="w"?></metadata>
<style type="text/css">
	.st0{display:none;fill:#4057A9;stroke:#FFFFFF;stroke-miterlimit:10;}
	.st1{fill:#FFFFFF;}
</style>
<g>
	<g>
		<path class="st0" d="M71.3,36.2l-8.4-22.6c-0.3-0.8-0.9-1.5-1.7-1.8c-0.8-0.4-1.7-0.4-2.5-0.1L17.9,26.8c-0.8,0.3-1.5,0.9-1.8,1.7
			c-0.4,0.8-0.4,1.7-0.1,2.5l8.4,22.6c0.3,0.8,0.9,1.5,1.7,1.8c0.4,0.2,0.9,0.3,1.4,0.3c0.4,0,0.8-0.1,1.1-0.2l40.8-15.1
			c1.3-0.5,2.1-1.7,2.1-3.1C71.5,37,71.4,36.6,71.3,36.2z M56.5,16L43.8,34.1l-21.4-5.5L56.5,16z M26.8,50.9l-7.2-19.6l16.8,4.3
			L26.8,50.9z M30.4,51.4l9.3-14.9l4.4,1.1c0.1,0,0.3,0.1,0.4,0.1c0.5,0,1-0.3,1.3-0.7l2.6-3.7l16.8,5.3L30.4,51.4z M50.4,30.4
			l9.9-14.2l7.3,19.6L50.4,30.4z"/>
	</g>
</g>
<g>
	<g>
		<path class="st1" d="M41,45.1c0,1.5-0.9,2.8-2.2,3.3V55c0,0.8-0.7,1.5-1.5,1.5s-1.5-0.7-1.5-1.5v-6.6c-1.3-0.6-2.2-1.8-2.2-3.3
			c0-2,1.6-3.7,3.7-3.7S41,43.1,41,45.1z"/>
	</g>
	<g>
		<path class="st1" d="M60.5,30h-4.6v-7.1c0-9.7-7.9-17.5-17.5-17.5c-9.7,0-17.5,7.9-17.5,17.5V30h-6.6c-2.8,0-5.1,2.3-5.1,5.1v29.4
			c0,2.8,2.3,5.1,5.1,5.1h46.3c2.8,0,5.1-2.3,5.1-5.1V35.1C65.6,32.3,63.3,30,60.5,30z M24.2,22.9c0-7.8,6.3-14.1,14.1-14.1
			s14.1,6.3,14.1,14.1V30H24.2L24.2,22.9L24.2,22.9z M62.1,64.5c0,0.9-0.8,1.7-1.7,1.7H14.1c-0.9,0-1.7-0.8-1.7-1.7V35.1
			c0-0.9,0.8-1.7,1.7-1.7h46.3c0.9,0,1.7,0.8,1.7,1.7V64.5z"/>
	</g>
</g>
</svg>
