<?xml version="1.0" encoding="utf-8"?>
<!-- Generator: Adobe Illustrator 19.0.0, SVG Export Plug-In . SVG Version: 6.00 Build 0)  -->
<svg version="1.1" id="Layer_1" xmlns="http://www.w3.org/2000/svg" xmlns:xlink="http://www.w3.org/1999/xlink" x="0px" y="0px"
	 viewBox="0 0 75 75" style="enable-background:new 0 0 75 75;" xml:space="preserve">
<metadata><?xpacket begin="﻿" id="W5M0MpCehiHzreSzNTczkc9d"?>
<x:xmpmeta xmlns:x="adobe:ns:meta/" x:xmptk="Adobe XMP Core 5.6-c067 79.157747, 2015/03/30-23:40:42        ">
   <rdf:RDF xmlns:rdf="http://www.w3.org/1999/02/22-rdf-syntax-ns#">
      <rdf:Description rdf:about=""/>
   </rdf:RDF>
</x:xmpmeta>
                                                                                                    
                                                                                                    
                                                                                                    
                                                                                                    
                                                                                                    
                                                                                                    
                                                                                                    
                                                                                                    
                                                                                                    
                                                                                                    
                                                                                                    
                                                                                                    
                                                                                                    
                                                                                                    
                                                                                                    
                                                                                                    
                                                                                                    
                                                                                                    
                                                                                                    
                                                                                                    
                           
<?xpacket end="w"?></metadata>
<style type="text/css">
	.st0{fill:#FFFFFF;}
</style>
<g>
	<circle id="XMLID_10_" class="st0" cx="34.8" cy="65.9" r="1.2"/>
	<circle id="XMLID_9_" class="st0" cx="34.8" cy="19.4" r="0.8"/>
	<path class="st0" d="M56.5,5.4h-17c-2,0-3.5,1.5-3.5,3.5v0c1.4,0.8,2.7,1.6,3.8,2.3H58v25H38V20.4c-0.3-0.2-0.7-0.5-1.2-0.8
		c-0.2-0.2-0.5-0.4-0.8-0.6v2.4H21c-0.8,0-1.5,0.7-1.5,1.5v39.8c0,0.8,0.7,1.5,1.5,1.5h27.4c0.9,0,1.5-0.7,1.5-1.5v-16h2.5v18.5
		c0,1.4-1.1,2.5-2.5,2.5H19.5c-1.4,0-2.5-1.1-2.5-2.5V20.4c0-1.4,1.1-2.5,2.5-2.5h15.2c-0.7-0.6-1.5-1.3-2.3-2H19.5
		c-2.5,0-4.5,2-4.5,4.5v44.7c0,2.5,2,4.5,4.5,4.5H50c2.4,0,4.5-2.1,4.5-4.5V46.6h2c2,0,3.5-1.5,3.5-3.5V8.9
		C60,6.9,58.5,5.4,56.5,5.4z M48,62.2H21.5V23.3H36v19.8c0,2,1.5,3.5,3.5,3.5H48V62.2z M58,43.1c0,0.8-0.7,1.5-1.5,1.5h-17
		c-0.8,0-1.5-0.7-1.5-1.5v-5.4h20V43.1z M58,9.7H38V8.9c0-0.8,0.7-1.5,1.5-1.5h17c0.8,0,1.5,0.7,1.5,1.5V9.7z"/>
	<path id="XMLID_4_" class="st0" d="M50.5,9h-5C45.2,9,45,8.8,45,8.5S45.2,8,45.5,8h5C50.8,8,51,8.3,51,8.5S50.8,9,50.5,9z"/>
	<path id="XMLID_3_" class="st0" d="M50.5,41.2c0,0.6-0.2,1.1-0.5,1.5c-0.5,0.6-1.2,1-2,1c-1.4,0-2.5-1.1-2.5-2.5s1.1-2.5,2.5-2.5
		c0.8,0,1.5,0.4,2,1C50.3,40.2,50.5,40.7,50.5,41.2z"/>
	<path id="XMLID_2_" class="st0" d="M43.9,16.6c0,0.3-0.3,0.5-0.4,0.6c-0.5,0.3-0.8,0.6-1.1,1.1c-0.4,0.5-0.5,0.8-0.7,1.4
		c-0.1,0.5-0.4,0.6-0.6,0.6h0c-0.1,0-0.2,0-0.4-0.1c-0.1-0.1-0.2-0.1-0.3-0.2c-0.5-0.3-1.2-0.6-2.3-1.4c-0.1-0.1-0.2-0.1-0.3-0.2
		c-0.7-0.5-1.8-1.4-3.1-2.5c-3.4-2.9-7.9-7.1-8.1-8.5c0-0.3,0-0.5,0.1-0.6c0.1-0.1,0.3-0.3,0.7-0.3c0,0,0,0,0,0
		c1.3,0,5.3,2.1,8.7,4.1c0.7,0.4,1.4,0.8,2,1.2c1.3,0.8,2.4,1.5,3,2c1.3,0.9,1.9,1.5,2.3,2c0.1,0.1,0.2,0.2,0.3,0.3
		C43.9,16.3,43.9,16.5,43.9,16.6z"/>
	<path id="XMLID_1_" class="st0" d="M49,24.4h-0.2c-1.4,0-3.5-0.4-4.9-1.4c-1.2-0.8-1.1-2.3-0.2-3.6c0.6-0.8,1.4-1.3,2.2-1.3H46
		c0.4,0,0.9,0.1,1.2,0.4c1.8,1.3,0.7,3.1,3.2,5.1C50.9,24,50.2,24.4,49,24.4z"/>
</g>
</svg>
