<svg id="Layer_1" data-name="Layer 1" xmlns="http://www.w3.org/2000/svg" width="120" height="120" viewBox="0 0 120 120"><title>help9</title><g id="Layer_1-2" data-name="Layer 1"><path d="M100.91,104.34a8.29,8.29,0,0,1-8.16,8.16H27.35a8.23,8.23,0,0,1-8.16-8.16V15.66A8.12,8.12,0,0,1,27.35,7.5h65.4a8.17,8.17,0,0,1,8.16,8.16Z" fill="#4057a9" stroke="#fff" stroke-miterlimit="10" stroke-width="4.67"/><path d="M90.8,39.13a1.07,1.07,0,0,1-1.11,1.11H31a1.19,1.19,0,0,1-1.11-1.11V17.05A1.19,1.19,0,0,1,31,15.94H89.5a1.07,1.07,0,0,1,1.11,1.11V39.13Z" fill="#4057a9"/><path d="M90.8,39.13a1.07,1.07,0,0,1-1.11,1.11H31a1.19,1.19,0,0,1-1.11-1.11V17.05A1.19,1.19,0,0,1,31,15.94H89.5a1.07,1.07,0,0,1,1.11,1.11V39.13Z" fill="none" stroke="#fff" stroke-miterlimit="10" stroke-width="4.67"/><path d="M38.67,35.88a.58.58,0,0,1-.65-.65V34.12a8,8,0,0,1-2.41-.83,1,1,0,0,1-.19-.84l.28-1.11c.19-.19.19-.28.47-.47h.18c.19,0,.19,0,.28.19a5.77,5.77,0,0,0,2,.65c.83,0,1.3-.28,1.3-.93,0-.28-.19-.83-1.58-1.3-1.58-.65-3.34-1.57-3.34-3.61a3.37,3.37,0,0,1,2.51-3.34V21.41a.7.7,0,0,1,.65-.65h1.11a.59.59,0,0,1,.65.65v.65a6.35,6.35,0,0,1,1.85.65.82.82,0,0,1,.65.93L42,24.75c-.19.19-.19.28-.46.47h-.19c-.19,0-.19,0-.28-.19a2.87,2.87,0,0,0-1.76-.46c-.93,0-1.11.46-1.11.65s.18.65,1.57,1.3,3,1.57,3,3.8a3.74,3.74,0,0,1-2.69,3.43v1.11a.7.7,0,0,1-.65.65h-.93C38.67,35.51,38.67,35.88,38.67,35.88Z" fill="#fff"/><path d="M40,20.58a.63.63,0,0,1,.65.65v1.11c.65.19,1.39.19,1.85.65a.62.62,0,0,1,.19.65l-.47,1.11-.27.28h-.19a.34.34,0,0,1-.28-.18,3.16,3.16,0,0,0-1.85-.47c-1.12,0-1.12.65-1.12.93,0,.46.19.83,1.77,1.39,1.39.65,3,1.58,3,3.62a3.46,3.46,0,0,1-2.69,3.34V35a.63.63,0,0,1-.64.65H38.67A.63.63,0,0,1,38,35V33.84A5,5,0,0,1,35.61,33a.88.88,0,0,1-.19-.65l.47-1.11c0-.19.18-.19.28-.28h.18a.33.33,0,0,1,.28.18,5.77,5.77,0,0,0,2,.65c.83,0,1.39-.46,1.39-1.11,0-.46-.18-.93-1.58-1.58-1.57-.65-3.15-1.57-3.15-3.43a3.37,3.37,0,0,1,2.5-3.34V21a.63.63,0,0,1,.65-.65l1.49.19m0-.37H38.86a.87.87,0,0,0-.93.93v1.11a3.62,3.62,0,0,0-2.51,3.34c0,2,1.58,3.15,3.34,3.8,1.39.65,1.39.93,1.39,1.11,0,.47-.46.84-1.11.84a3.56,3.56,0,0,1-2-.65.51.51,0,0,0-.46-.19h-.19c-.18.19-.46.19-.65.65l-.28,1.12a1.06,1.06,0,0,0,.28,1.11,11.8,11.8,0,0,0,2.23.83v.93a.87.87,0,0,0,.93.93H40a.88.88,0,0,0,.93-.93V34a3.89,3.89,0,0,0,2.69-3.62c0-2.41-1.86-3.34-3.16-4-1.57-.65-1.57-.93-1.57-1.11s.18-.65.92-.65a2.94,2.94,0,0,1,1.77.46.49.49,0,0,0,.46.19h.18c.19-.19.47-.19.65-.65l.47-1.11A1.07,1.07,0,0,0,43,22.43a4.67,4.67,0,0,0-1.76-.65V21c-.37-.37-.84-.83-1.3-.83Z" fill="#4057a9"/><path d="M80.5,35.88a.58.58,0,0,1-.65-.65V34.12a8.12,8.12,0,0,1-2.41-.83,1,1,0,0,1-.18-.84l.27-1.11c.19-.19.19-.28.47-.47h.18a.33.33,0,0,1,.28.19,5.77,5.77,0,0,0,2,.65c.84,0,1.3-.28,1.3-.93,0-.28-.18-.83-1.58-1.3-1.57-.65-3.33-1.57-3.33-3.61a3.36,3.36,0,0,1,2.5-3.34V21.41a.71.71,0,0,1,.65-.65h1.3a.59.59,0,0,1,.65.65v.65a6.35,6.35,0,0,1,1.85.65.75.75,0,0,1,.28.93l-.46,1.11c-.19.19-.19.28-.47.47H83c-.19,0-.19,0-.28-.19A2.92,2.92,0,0,0,81,24.57c-.93,0-1.12.46-1.12.65s.19.65,1.58,1.3,3,1.57,3,3.8a3.74,3.74,0,0,1-2.69,3.43v1.11a.7.7,0,0,1-.65.65h-.65v.37Z" fill="#fff"/><path d="M81.8,20.58a.63.63,0,0,1,.65.65v1.11c.65.19,1.39.19,1.86.65a.63.63,0,0,1,.18.65L84,24.75l-.28.28h-.19a.32.32,0,0,1-.27-.18,3.2,3.2,0,0,0-1.86-.47c-1.11,0-1.11.65-1.11.93,0,.46.18.83,1.76,1.39,1.39.65,3,1.58,3,3.62a3.47,3.47,0,0,1-2.69,3.34V35a.64.64,0,0,1-.65.65H80.6A.63.63,0,0,1,80,35V33.84A5,5,0,0,1,77.53,33c-.18,0-.18-.28-.18-.65l.28-1.11c0-.19.18-.19.28-.28h.18c.19,0,.19,0,.28.18a5.77,5.77,0,0,0,2,.65c.83,0,1.39-.46,1.39-1.11,0-.46-.18-.93-1.58-1.58-1.57-.65-3.15-1.57-3.15-3.43a3.37,3.37,0,0,1,2.51-3.34V21a.62.62,0,0,1,.64-.65l1.58.19m0-.37H80.69a.87.87,0,0,0-.93.93v1.11a3.61,3.61,0,0,0-2.5,3.34c0,2,1.57,3.15,3.34,3.8C82,30,82,30.32,82,30.5c0,.47-.47.84-1.12.84a3.56,3.56,0,0,1-2-.65.5.5,0,0,0-.46-.19h-.19c-.18.19-.46.19-.65.65l-.27,1.12c-.19.27,0,.83.27,1.11a12.07,12.07,0,0,0,2.23.83v.93a.87.87,0,0,0,.93.93H81.8a.87.87,0,0,0,.93-.93V34a3.87,3.87,0,0,0,2.69-3.62c0-2.41-1.86-3.34-3.15-4-1.58-.65-1.58-.93-1.58-1.11s.18-.65.93-.65a2.92,2.92,0,0,1,1.76.46.5.5,0,0,0,.46.19H84c.18-.19.46-.19.65-.65l.46-1.11c.19-.28,0-.84-.28-1.12a4.67,4.67,0,0,0-1.76-.65V21c-.37-.37-.83-.83-1.3-.83Z" fill="#4057a9"/><path d="M72.34,35.88a.58.58,0,0,1-.65-.65V34.12a8,8,0,0,1-2.41-.83,1,1,0,0,1-.19-.84l.28-1.11c.19-.19.19-.28.47-.47H70c.19,0,.19,0,.28.19a5.77,5.77,0,0,0,2,.65c.84,0,1.3-.28,1.3-.93,0-.18,0-.65-1.58-1.3s-3.34-1.57-3.34-3.61a3.37,3.37,0,0,1,2.51-3.34V21.41a.71.71,0,0,1,.65-.65H73a.59.59,0,0,1,.65.65v.65a6.35,6.35,0,0,1,1.85.65.75.75,0,0,1,.28.93l-.46,1.11c-.19.19-.19.28-.47.47h-.18c-.19,0-.19,0-.28-.19a2.87,2.87,0,0,0-1.76-.46c-.93,0-1.11.46-1.11.65s.18.65,1.57,1.3,3,1.57,3,3.8a3.74,3.74,0,0,1-2.69,3.43v1.11a.7.7,0,0,1-.65.65h-.65C72.34,35.51,72.34,35.88,72.34,35.88Z" fill="#fff"/><path d="M73.45,20.58a.63.63,0,0,1,.65.65v1.11c.65.19,1.39.19,1.86.65a.61.61,0,0,1,.18.65l-.46,1.11L75.4,25h-.18c-.19,0-.19,0-.28-.18a3.2,3.2,0,0,0-1.86-.47C72,24.38,72,25,72,25.31c0,.46.18.83,1.76,1.39,1.39.65,3,1.58,3,3.62A3.46,3.46,0,0,1,74,33.66V35a.64.64,0,0,1-.65.65H72.25A.63.63,0,0,1,71.6,35V33.84A5,5,0,0,1,69.19,33a.88.88,0,0,1-.19-.65l.28-1.11c0-.19.18-.19.28-.28h.18c.19,0,.19,0,.28.18a5.77,5.77,0,0,0,2,.65c.84,0,1.39-.46,1.39-1.11,0-.46-.18-.93-1.57-1.58-1.58-.65-3.16-1.57-3.16-3.43a3.37,3.37,0,0,1,2.51-3.34V21a.63.63,0,0,1,.65-.65l1.57.19m0-.37H72.34a.88.88,0,0,0-.93.93v1.11a3.62,3.62,0,0,0-2.5,3.34c0,2,1.58,3.15,3.34,3.8,1.39.65,1.39.93,1.39,1.11,0,.47-.46.84-1.11.84a3.54,3.54,0,0,1-2-.65A.51.51,0,0,0,70,30.5h-.18c-.19.19-.47.19-.65.65l-.28,1.12c-.19.27,0,.83.28,1.11a12,12,0,0,0,2.22.83v.93a.87.87,0,0,0,.93.93h1.11a.87.87,0,0,0,.93-.93V34a3.87,3.87,0,0,0,2.69-3.62c0-2.41-1.85-3.34-3.15-4-1.58-.65-1.58-.93-1.58-1.11s.19-.65.93-.65a2.9,2.9,0,0,1,1.76.46.51.51,0,0,0,.46.19h.19c.18-.19.46-.19.65-.65l.46-1.11c.19-.28,0-.84-.28-1.12a4.67,4.67,0,0,0-1.76-.65V21c-.55-.37-.83-.83-1.3-.83Z" fill="#4057a9"/><path d="M63.81,35.88a.58.58,0,0,1-.65-.65V34.12a7.92,7.92,0,0,1-2.41-.83,1,1,0,0,1-.19-.84l.28-1.11c.18-.19.18-.28.46-.47h.19a.34.34,0,0,1,.28.19,5.77,5.77,0,0,0,2,.65c.83,0,1.3-.28,1.3-.93,0-.28-.19-.83-1.58-1.3-1.58-.65-3.34-1.57-3.34-3.61a3.37,3.37,0,0,1,2.5-3.34V21.41a.71.71,0,0,1,.65-.65h1.3a.58.58,0,0,1,.65.65v.65a6.52,6.52,0,0,1,1.86.65.76.76,0,0,1,.27.93L67,24.75c-.19.19-.19.28-.46.47h-.19A.34.34,0,0,1,66,25a2.87,2.87,0,0,0-1.76-.46c-.93,0-1.11.46-1.11.65s.18.65,1.57,1.3,3,1.57,3,3.8A3.74,3.74,0,0,1,65,33.75v1.11a.7.7,0,0,1-.65.65h-.83C63.81,35.51,63.81,35.88,63.81,35.88Z" fill="#fff"/><path d="M65,20.58a.63.63,0,0,1,.65.65v1.11c.65.19,1.39.19,1.86.65a.61.61,0,0,1,.18.65l-.46,1.11L67,25h-.19a.32.32,0,0,1-.27-.18,3.2,3.2,0,0,0-1.86-.47c-1.11,0-1.11.65-1.11.93,0,.46.18.83,1.76,1.39,1.39.65,3,1.58,3,3.62a3.46,3.46,0,0,1-2.69,3.34V35a.64.64,0,0,1-.65.65H63.81a.63.63,0,0,1-.65-.65V33.84A5,5,0,0,1,60.75,33a.88.88,0,0,1-.19-.65l.37-1.11c0-.19.19-.19.28-.28h.18c.19,0,.19,0,.28.18a5.77,5.77,0,0,0,2,.65c.84,0,1.4-.46,1.4-1.11,0-.46-.19-.93-1.58-1.58-1.58-.65-3.16-1.57-3.16-3.43a3.37,3.37,0,0,1,2.51-3.34V21a.63.63,0,0,1,.65-.65l1.48.19m0-.37H63.9a.88.88,0,0,0-.93.93v1.11a3.61,3.61,0,0,0-2.5,3.34c0,2,1.57,3.15,3.34,3.8,1.39.65,1.39.93,1.39,1.11,0,.47-.47.84-1.12.84a3.58,3.58,0,0,1-2-.65.49.49,0,0,0-.46-.19h-.19c-.18.19-.46.19-.64.65l-.28,1.12c-.19.27,0,.83.28,1.11a11.69,11.69,0,0,0,2.22.83v.93a.87.87,0,0,0,.93.93H65a.87.87,0,0,0,.93-.93V34a3.87,3.87,0,0,0,2.69-3.62c0-2.41-1.86-3.34-3.15-4-1.58-.65-1.58-.93-1.58-1.11s.18-.65.93-.65a2.92,2.92,0,0,1,1.76.46.5.5,0,0,0,.46.19h.19c.18-.19.46-.19.65-.65l.46-1.11c.19-.28,0-.84-.28-1.12a6,6,0,0,0-1.76-.27v-.84A1.56,1.56,0,0,0,65,20.21Z" fill="#4057a9"/><path d="M55.55,35.88a.58.58,0,0,1-.65-.65V34.12a8,8,0,0,1-2.41-.83,1,1,0,0,1-.19-.84l.28-1.11c.19-.19.19-.28.47-.47h.18a.33.33,0,0,1,.28.19,5.77,5.77,0,0,0,2,.65c.84,0,1.3-.28,1.3-.93,0-.28-.19-.83-1.58-1.3-1.57-.65-3.34-1.57-3.34-3.61a3.37,3.37,0,0,1,2.51-3.34V21.41a.71.71,0,0,1,.65-.65H56.2a.59.59,0,0,1,.65.65v.65a6.52,6.52,0,0,1,1.86.65.76.76,0,0,1,.27.93l-.46,1.11c-.19.19-.19.28-.46.47h-.19c-.19,0-.19,0-.28-.19a2.87,2.87,0,0,0-1.76-.46c-.93,0-1.11.46-1.11.65s.18.65,1.57,1.3,3,1.57,3,3.8a3.74,3.74,0,0,1-2.69,3.43v1.11a.7.7,0,0,1-.65.65h-.65C55.55,35.51,55.55,35.88,55.55,35.88Z" fill="#fff"/><path d="M56.66,20.58a.63.63,0,0,1,.65.65v1.11c.65.19,1.4.19,1.86.65a.61.61,0,0,1,.18.65l-.46,1.11-.28.28h-.18a.33.33,0,0,1-.28-.18,3.2,3.2,0,0,0-1.86-.47c-1.11,0-1.11.65-1.11.93,0,.46.19.83,1.76,1.39,1.39.65,3,1.58,3,3.62a3.46,3.46,0,0,1-2.69,3.34V35a.63.63,0,0,1-.65.65H55.46a.63.63,0,0,1-.65-.65V33.84A5,5,0,0,1,52.4,33a.88.88,0,0,1-.19-.65l.37-1.11c0-.19.19-.19.28-.28h.19a.34.34,0,0,1,.28.18,5.71,5.71,0,0,0,2,.65c.83,0,1.39-.46,1.39-1.11,0-.46-.19-.93-1.58-1.58C53.6,28.46,52,27.54,52,25.68a3.36,3.36,0,0,1,2.5-3.34V21a.63.63,0,0,1,.65-.65l1.48.19m0-.37H55.55a.88.88,0,0,0-.93.93v1.11a3.62,3.62,0,0,0-2.5,3.34c0,2,1.58,3.15,3.34,3.8,1.39.65,1.39.93,1.39,1.11,0,.47-.46.84-1.11.84a3.56,3.56,0,0,1-2-.65.51.51,0,0,0-.47-.19h-.18c-.19.19-.47.19-.65.65l-.28,1.3a1,1,0,0,0,.28,1.11,12.7,12.7,0,0,0,2.22.84v.93a.87.87,0,0,0,.93.92h1.11a.87.87,0,0,0,.93-.92V34.21a3.86,3.86,0,0,0,2.69-3.61c0-2.42-1.85-3.34-3.15-4-1.58-.65-1.58-.93-1.58-1.12s.19-.64.93-.64a2.8,2.8,0,0,1,1.76.46.53.53,0,0,0,.47.18h.18c.19-.18.46-.18.65-.64L60,23.73c.19-.28,0-.83-.27-1.11A3.47,3.47,0,0,0,58,22v-.83c-.46-.47-.83-.93-1.3-.93Z" fill="#4057a9"/><path d="M47.2,35.88a.58.58,0,0,1-.65-.65V34.12a8.12,8.12,0,0,1-2.41-.83,1,1,0,0,1-.18-.84l.28-1.11c.18-.19.18-.28.46-.47h.18c.19,0,.19,0,.28.19a5.77,5.77,0,0,0,2,.65c.84,0,1.3-.28,1.3-.93,0-.28-.18-.83-1.57-1.3-1.58-.65-3.34-1.57-3.34-3.61a3.36,3.36,0,0,1,2.5-3.34V21.41a.71.71,0,0,1,.65-.65H48a.59.59,0,0,1,.65.65v.65a6.35,6.35,0,0,1,1.85.65.75.75,0,0,1,.28.93l-.46,1.11c-.19.19-.19.28-.47.47h-.18a.33.33,0,0,1-.28-.19,2.92,2.92,0,0,0-1.76-.46c-.93,0-1.12.46-1.12.65s.19.65,1.58,1.3,3,1.57,3,3.8a3.74,3.74,0,0,1-2.69,3.43v1.11a.7.7,0,0,1-.65.65h-.83v.37Z" fill="#fff"/><path d="M48.32,20.58a.63.63,0,0,1,.65.65v1.11c.64.19,1.39.19,1.85.65a.62.62,0,0,1,.19.65l-.47,1.3-.28.28h-.18c-.19,0-.19,0-.28-.19A3.29,3.29,0,0,0,48,24.57c-1.12,0-1.12.65-1.12.92,0,.47.19.84,1.76,1.4,1.4.65,3,1.57,3,3.61a3.45,3.45,0,0,1-2.69,3.34v1.3a.63.63,0,0,1-.65.65H47.3a.63.63,0,0,1-.65-.65V34a5,5,0,0,1-2.41-.84.86.86,0,0,1-.19-.65l.28-1.11c0-.18.18-.18.28-.28h.18c.19,0,.19,0,.28.19a9.46,9.46,0,0,0,2.23.28c.83,0,1.39-.47,1.39-1.12,0-.46-.19-.92-1.58-1.57C45.53,28.28,44,27.35,44,25.49a3.36,3.36,0,0,1,2.5-3.33v-1.3a.63.63,0,0,1,.65-.65l1.21.37m0-.37H47.2a.87.87,0,0,0-.92.93v1.11a3.62,3.62,0,0,0-2.51,3.34c0,2,1.58,3.15,3.34,3.8,1.39.65,1.39.93,1.39,1.11,0,.47-.46.84-1.11.84a3.56,3.56,0,0,1-2-.65.51.51,0,0,0-.47-.19H44.7c-.19.19-.46.19-.65.65l-.28,1.12a1.06,1.06,0,0,0,.28,1.11,11.8,11.8,0,0,0,2.23.83v.93a.87.87,0,0,0,.92.93h1.12a.87.87,0,0,0,.92-.93V34a3.87,3.87,0,0,0,2.69-3.62c0-2.41-1.85-3.34-3.15-4-1.58-.65-1.58-.93-1.58-1.11s.19-.65.93-.65a2.87,2.87,0,0,1,1.76.46.51.51,0,0,0,.47.19h.18c.19-.19.47-.19.65-.65l.47-1.11a1.07,1.07,0,0,0-.28-1.12,4.72,4.72,0,0,0-1.77-.65V21c-.46-.37-.83-.83-1.29-.83Z" fill="#4057a9"/><path d="M40.9,59.81a3.49,3.49,0,0,1-3.44,3.44H32.73a3.49,3.49,0,0,1-3.43-3.44V55.08a3.37,3.37,0,0,1,3.43-3.43h4.73a3.37,3.37,0,0,1,3.44,3.43Z" fill="#4057a9"/><path d="M40.9,59.81a3.49,3.49,0,0,1-3.44,3.44H32.73a3.49,3.49,0,0,1-3.43-3.44V55.08a3.37,3.37,0,0,1,3.43-3.43h4.73a3.37,3.37,0,0,1,3.44,3.43Z" fill="none" stroke="#fff" stroke-miterlimit="10" stroke-width="3.5"/><path d="M57.59,59.81a3.48,3.48,0,0,1-3.43,3.44H49.43A3.37,3.37,0,0,1,46,59.81V55.08a3.36,3.36,0,0,1,3.43-3.43h4.73a3.48,3.48,0,0,1,3.43,3.43Z" fill="#4057a9"/><path d="M57.59,59.81a3.48,3.48,0,0,1-3.43,3.44H49.43A3.37,3.37,0,0,1,46,59.81V55.08a3.36,3.36,0,0,1,3.43-3.43h4.73a3.48,3.48,0,0,1,3.43,3.43Z" fill="none" stroke="#fff" stroke-miterlimit="10" stroke-width="3.5"/><path d="M74.57,59.81a3.49,3.49,0,0,1-3.44,3.44H66.4A3.37,3.37,0,0,1,63,59.81V55.08a3.37,3.37,0,0,1,3.43-3.43h4.73a3.37,3.37,0,0,1,3.44,3.43Z" fill="#4057a9"/><path d="M74.57,59.81a3.49,3.49,0,0,1-3.44,3.44H66.4A3.37,3.37,0,0,1,63,59.81V55.08a3.37,3.37,0,0,1,3.43-3.43h4.73a3.37,3.37,0,0,1,3.44,3.43Z" fill="none" stroke="#fff" stroke-miterlimit="10" stroke-width="3.5"/><path d="M91.26,59.81a3.48,3.48,0,0,1-3.43,3.44H83.1a3.37,3.37,0,0,1-3.43-3.44V55.08a3.36,3.36,0,0,1,3.43-3.43h4.73a3.37,3.37,0,0,1,3.43,3.43Z" fill="#4057a9"/><path d="M91.26,59.81a3.48,3.48,0,0,1-3.43,3.44H83.1a3.37,3.37,0,0,1-3.43-3.44V55.08a3.36,3.36,0,0,1,3.43-3.43h4.73a3.37,3.37,0,0,1,3.43,3.43Z" fill="none" stroke="#fff" stroke-miterlimit="10" stroke-width="3.5"/><path d="M32.73,79.76a3.49,3.49,0,0,1-3.43-3.43V71.59a3.49,3.49,0,0,1,3.43-3.43h4.73a3.37,3.37,0,0,1,3.44,3.43v4.74a3.49,3.49,0,0,1-3.44,3.43Z" fill="#4057a9"/><path d="M32.73,79.76a3.49,3.49,0,0,1-3.43-3.43V71.59a3.49,3.49,0,0,1,3.43-3.43h4.73a3.37,3.37,0,0,1,3.44,3.43v4.74a3.49,3.49,0,0,1-3.44,3.43Z" fill="none" stroke="#fff" stroke-miterlimit="10" stroke-width="3.5"/><path d="M32.73,96.64a3.49,3.49,0,0,1-3.43-3.43V88.48A3.37,3.37,0,0,1,32.73,85h4.73a3.38,3.38,0,0,1,3.44,3.44v4.73a3.37,3.37,0,0,1-3.44,3.43Z" fill="#4057a9"/><path d="M32.73,96.64a3.49,3.49,0,0,1-3.43-3.43V88.48A3.37,3.37,0,0,1,32.73,85h4.73a3.38,3.38,0,0,1,3.44,3.44v4.73a3.37,3.37,0,0,1-3.44,3.43Z" fill="none" stroke="#fff" stroke-miterlimit="10" stroke-width="3.5"/><path d="M49.43,79.76A3.37,3.37,0,0,1,46,76.33V71.59a3.48,3.48,0,0,1,3.43-3.43h4.73a3.48,3.48,0,0,1,3.43,3.43v4.74a3.48,3.48,0,0,1-3.43,3.43Z" fill="#4057a9"/><path d="M49.43,79.76A3.37,3.37,0,0,1,46,76.33V71.59a3.48,3.48,0,0,1,3.43-3.43h4.73a3.48,3.48,0,0,1,3.43,3.43v4.74a3.48,3.48,0,0,1-3.43,3.43Z" fill="none" stroke="#fff" stroke-miterlimit="10" stroke-width="3.5"/><path d="M49.43,96.64A3.37,3.37,0,0,1,46,93.21V88.48A3.37,3.37,0,0,1,49.43,85h4.73a3.48,3.48,0,0,1,3.43,3.44v4.73a3.36,3.36,0,0,1-3.43,3.43Z" fill="#4057a9"/><path d="M49.43,96.64A3.37,3.37,0,0,1,46,93.21V88.48A3.37,3.37,0,0,1,49.43,85h4.73a3.48,3.48,0,0,1,3.43,3.44v4.73a3.36,3.36,0,0,1-3.43,3.43Z" fill="none" stroke="#fff" stroke-miterlimit="10" stroke-width="3.5"/><path d="M66.31,79.76a3.37,3.37,0,0,1-3.43-3.43V71.59a3.49,3.49,0,0,1,3.43-3.43H71a3.37,3.37,0,0,1,3.43,3.43v4.74A3.48,3.48,0,0,1,71,79.76Z" fill="#4057a9"/><path d="M66.31,79.76a3.37,3.37,0,0,1-3.43-3.43V71.59a3.49,3.49,0,0,1,3.43-3.43H71a3.37,3.37,0,0,1,3.43,3.43v4.74A3.48,3.48,0,0,1,71,79.76Z" fill="none" stroke="#fff" stroke-miterlimit="10" stroke-width="3.5"/><path d="M85.42,96.64a5.71,5.71,0,0,1-5.84-5.84V73.91a5.7,5.7,0,0,1,5.84-5.84h0a5.7,5.7,0,0,1,5.84,5.84V90.8a5.81,5.81,0,0,1-5.84,5.84Z" fill="#4057a9"/><path d="M85.42,96.64a5.71,5.71,0,0,1-5.84-5.84V73.91a5.7,5.7,0,0,1,5.84-5.84h0a5.7,5.7,0,0,1,5.84,5.84V90.8a5.81,5.81,0,0,1-5.84,5.84Z" fill="none" stroke="#fff" stroke-miterlimit="10" stroke-width="3.5"/><path d="M66.31,96.64a3.37,3.37,0,0,1-3.43-3.43V88.48A3.37,3.37,0,0,1,66.31,85H71a3.37,3.37,0,0,1,3.43,3.44v4.73A3.36,3.36,0,0,1,71,96.64Z" fill="#4057a9"/><path d="M66.31,96.64a3.37,3.37,0,0,1-3.43-3.43V88.48A3.37,3.37,0,0,1,66.31,85H71a3.37,3.37,0,0,1,3.43,3.44v4.73A3.36,3.36,0,0,1,71,96.64Z" fill="none" stroke="#fff" stroke-miterlimit="10" stroke-width="3.5"/></g></svg>