<svg id="Layer_1" data-name="Layer 1" xmlns="http://www.w3.org/2000/svg" width="120" height="120" viewBox="0 0 120 120"><title>help5</title><g id="Layer_1-2" data-name="Layer 1"><path d="M109,81.15a8.89,8.89,0,0,1-8.69,8.69H21.58a8.82,8.82,0,0,1-8.69-8.69V32.41a8.69,8.69,0,0,1,8.69-8.69h78.89a8.75,8.75,0,0,1,8.68,8.69L109,81.15Z" fill="#4057a9" stroke="#fff" stroke-miterlimit="10" stroke-width="4.99"/><path d="M47,51.62a.91.91,0,0,0,.92-.92,1,1,0,0,0-.92-.92H45.8a.91.91,0,0,0-.92.92,1,1,0,0,0,.92.92Z" fill="#fff" stroke="#fff" stroke-miterlimit="10" stroke-width="1.25"/><path d="M51.31,51.62h1.23a.91.91,0,0,0,.92-.92,1,1,0,0,0-.92-.92H51.31a.91.91,0,0,0-.92.92C50.29,51.11,50.6,51.62,51.31,51.62Z" fill="#fff" stroke="#fff" stroke-miterlimit="10" stroke-width="1.25"/><path d="M67.66,41.61h1.23a.91.91,0,0,0,.92-.92,1,1,0,0,0-.92-.92H67.66a.91.91,0,0,0-.92.92C66.54,41,67.15,41.61,67.66,41.61Z" fill="#fff" stroke="#fff" stroke-miterlimit="10" stroke-width="1.25"/><path d="M62.15,41.61h1.22a.91.91,0,0,0,.92-.92,1,1,0,0,0-.92-.92H62.15a.91.91,0,0,0-.92.92A1,1,0,0,0,62.15,41.61Z" fill="#fff" stroke="#fff" stroke-miterlimit="10" stroke-width="1.25"/><path d="M56.73,41.61H58a.91.91,0,0,0,.92-.92,1,1,0,0,0-.92-.92H56.73a.91.91,0,0,0-.92.92A1,1,0,0,0,56.73,41.61Z" fill="#fff" stroke="#fff" stroke-miterlimit="10" stroke-width="1.25"/><path d="M51.31,41.61h1.23a.91.91,0,0,0,.92-.92,1,1,0,0,0-.92-.92H51.31a.91.91,0,0,0-.92.92A.85.85,0,0,0,51.31,41.61Z" fill="#fff" stroke="#fff" stroke-miterlimit="10" stroke-width="1.25"/><path d="M44.77,40.38a.92.92,0,0,0,.92.92h1.23a.91.91,0,0,0,.92-.92,1,1,0,0,0-.92-.92H45.69A1,1,0,0,0,44.77,40.38Z" fill="#fff" stroke="#fff" stroke-miterlimit="10" stroke-width="1.25"/><path d="M57.24,64.09a.91.91,0,0,0-.92.92v1.22a.91.91,0,0,0,.92.92,1.08,1.08,0,0,0,.92-.92V65C58.26,64.5,57.85,64.09,57.24,64.09Z" fill="#fff" stroke="#fff" stroke-miterlimit="10" stroke-width="1.25"/><path d="M58.26,59.69a.91.91,0,0,0-.92-.92.86.86,0,0,0-.92.92v1.23a.91.91,0,0,0,.92.92,1,1,0,0,0,.92-.92Z" fill="#fff" stroke="#fff" stroke-miterlimit="10" stroke-width="1.25"/><path d="M65.11,64.7v1.23a.91.91,0,0,0,.92.92,1,1,0,0,0,.92-.92V64.7a.92.92,0,0,0-1.84,0Z" fill="#fff" stroke="#fff" stroke-miterlimit="10" stroke-width="1.25"/><path d="M76,59.69a.92.92,0,0,0-1.84,0v1.23a.91.91,0,0,0,.92.92,1,1,0,0,0,.92-.92Z" fill="#fff" stroke="#fff" stroke-miterlimit="10" stroke-width="1.25"/><path d="M76,48.66a.92.92,0,1,0-1.84,0v1.22a.91.91,0,0,0,.92.92,1,1,0,0,0,.92-.92Z" fill="#fff" stroke="#fff" stroke-miterlimit="10" stroke-width="1.25"/><path d="M76,54.07a.92.92,0,0,0-1.84,0V55.3a.91.91,0,0,0,.92.92A1,1,0,0,0,76,55.3Z" fill="#fff" stroke="#fff" stroke-miterlimit="10" stroke-width="1.25"/><path d="M75.12,64.09a.91.91,0,0,0-.92.92v1.22a.91.91,0,0,0,.92.92,1,1,0,0,0,.92-.92V65A.86.86,0,0,0,75.12,64.09Z" fill="#fff" stroke="#fff" stroke-miterlimit="10" stroke-width="1.25"/><path d="M86.77,70.93l-4.08-3.47a1.13,1.13,0,0,0-1.54.2,1.14,1.14,0,0,0,.21,1.54l1.84,1.53H76v-.31a.92.92,0,0,0-1.84,0v.51H67.36v-.51a.92.92,0,0,0-1.84,0v.51h-7v-.3a.91.91,0,0,0-.92-.92c-.51,0-1.23.3-1.23.92v.3H49.47V69.81a.91.91,0,0,0-.91-.92,1,1,0,0,0-.92.92v1.12H42.93V34.15L44.47,36a.94.94,0,0,0,.82.3c.3,0,.51-.2.81-.3.51-.31.51-.92.21-1.54l-3.58-4.08h0l-.31-.31a1,1,0,0,0-1.12.31l-3.47,4.08a1.09,1.09,0,1,0,1.73,1.33l1.54-1.84V70.42H38.34a.92.92,0,0,0,0,1.84H41.1v2.66a.92.92,0,1,0,1.83,0V72.26H83.5l-2,1.64c-.51.3-.51.92-.21,1.53a.94.94,0,0,0,.82.31c.31,0,.51-.21.82-.31L87,72h0l.3-.31A3.06,3.06,0,0,0,86.77,70.93Z" fill="#fff" stroke="#fff" stroke-miterlimit="10" stroke-width="1.25"/><path d="M44.88,62.45a3.51,3.51,0,0,0,3.47,3.48,3.46,3.46,0,0,0,3.48-3.48,4.3,4.3,0,0,0-.62-2l5-6.75a2.15,2.15,0,0,0,1.12.21,3.5,3.5,0,0,0,1.74-.51l4.09,3.57a2.14,2.14,0,0,0-.31,1.44,3.51,3.51,0,0,0,3.48,3.47,3.44,3.44,0,0,0,3.47-3.47,3.52,3.52,0,0,0-.92-2.46l6-12.26h.51a3.5,3.5,0,0,0,3.47-3.47,7,7,0,0,0-.3-1.54l4.09-4.08a1.43,1.43,0,0,0,0-1.54,1.43,1.43,0,0,0-1.54,0l-4.08,4.09a2.6,2.6,0,0,0-1.54-.31,3.51,3.51,0,0,0-3.47,3.48A3.44,3.44,0,0,0,73,42.73L67,55h-.51a3.5,3.5,0,0,0-1.74.51l-4.09-3.57a2.12,2.12,0,0,0,.31-1.43,3.48,3.48,0,1,0-7,0,4.44,4.44,0,0,0,.61,2l-5,6.74a2.26,2.26,0,0,0-1.13-.2A3.44,3.44,0,0,0,44.88,62.45Zm30.24-23.3a1.44,1.44,0,1,1-1.43,1.43A1.4,1.4,0,0,1,75.12,39.15ZM66.23,57.24a1.39,1.39,0,0,1,1.43,1.43A1.31,1.31,0,0,1,66.23,60a1.4,1.4,0,0,1-1.43-1.43A1.32,1.32,0,0,1,66.23,57.24Zm-9-8a1.43,1.43,0,1,1-1.43,1.43A1.46,1.46,0,0,1,57.24,49.27Zm-8.89,12a1.43,1.43,0,1,1-1.43,1.43A1.53,1.53,0,0,1,48.35,61.23Z" fill="#fff" stroke="#fff" stroke-miterlimit="10" stroke-width="1.25"/><path d="M116.61,82.28c0,4.8-.61,12.67-7.46,13.89a6.75,6.75,0,0,1-2,.21H12.89a10.58,10.58,0,0,1-3.17-.51C3.9,94.13,3.29,87,3.29,82.48H46.61c3.07,5.72,7.77,6.44,13.29,6.44h0c5.41,0,10.11-.61,13.08-6.44l43.63-.2Z" fill="#4057a9" stroke="#fff" stroke-linejoin="round" stroke-width="4.99"/></g></svg>