<svg id="Layer_1" data-name="Layer 1" xmlns="http://www.w3.org/2000/svg" width="120" height="120" viewBox="0 0 120 120"><title>help8</title><g id="Layer_1-2" data-name="Layer 1"><path d="M94.29,110A6.15,6.15,0,0,1,88,116.25H32A6.15,6.15,0,0,1,25.71,110V10A6.15,6.15,0,0,1,32,3.75H88.21A6.16,6.16,0,0,1,94.46,10l-.17,100Z" fill="#4057a9" stroke="#fff" stroke-miterlimit="10" stroke-width="5"/><path d="M49.58,48.94V39h3.21l.48-3.53H49.58V32.76a1.69,1.69,0,0,1,1.93-1.93h1.92v-3.2c-.48,0-1.44-.16-2.72-.16-3.05,0-4.81,1.76-4.81,4.81v3H42.69v3.53H45.9v9.93H33.72a1.43,1.43,0,0,1-1.44-1.44V25.06a1.43,1.43,0,0,1,1.44-1.44H56a1.44,1.44,0,0,1,1.45,1.44V47.34A1.44,1.44,0,0,1,56,48.78C56.15,48.94,49.58,48.94,49.58,48.94Z" fill="#fff"/><path d="M56.15,23.78a1.44,1.44,0,0,1,1.45,1.44V47.5a1.44,1.44,0,0,1-1.45,1.44H49.74V39.33H53l.48-3.69H49.74v-2.4c0-1.12.32-1.93,1.93-1.93h1.92V28c-.32,0-1.44-.16-2.88-.16-2.89,0-4.81,1.76-4.81,5v2.72H42.69v3.69H45.9v9.61h-12a1.43,1.43,0,0,1-1.44-1.44V25.06a1.43,1.43,0,0,1,1.44-1.44l22.27.16m0-.32H33.88a1.72,1.72,0,0,0-1.6,1.6V47.34a1.88,1.88,0,0,0,1.6,1.76H46.22V38.85H43V35.64h3.21v-3.2c0-2.89,1.76-4.65,4.49-4.65,1.12,0,2.08.16,2.56.16v2.72H51.51c-1.93,0-2.09,1.12-2.09,2.09v2.72h3.69l-.32,3.21H49.42V49.1h6.73a1.75,1.75,0,0,0,1.61-1.76V25.06a1.72,1.72,0,0,0-1.61-1.6Z" fill="#4057a9"/><path d="M63.85,48.94A1.44,1.44,0,0,1,62.4,47.5V25.06a1.44,1.44,0,0,1,1.45-1.44H86.12a1.43,1.43,0,0,1,1.44,1.44V47.34a1.43,1.43,0,0,1-1.44,1.44C86.12,48.94,63.85,48.94,63.85,48.94ZM68,41.25a7.64,7.64,0,0,0,4.17,1A8.77,8.77,0,0,0,81,33.4v-.48h0c.48-.32.8-.8,1.29-1.13a3.1,3.1,0,0,1-1.45.33l-.8.16.64-.32a4.48,4.48,0,0,0,1.12-1.29,6.69,6.69,0,0,1-1.6.64H80v-.16a3.1,3.1,0,0,0-2.08-1,3.16,3.16,0,0,0-3,3.05,1,1,0,0,0,.16.64v.32h-.32a9.37,9.37,0,0,1-6.41-3.05A1.75,1.75,0,0,0,68,32.44,3.06,3.06,0,0,0,69.46,35l.48.32h-.48A4.91,4.91,0,0,1,68.17,35a2.74,2.74,0,0,0,2.41,2.56h0a1.74,1.74,0,0,1-.8.16h-.32a3.19,3.19,0,0,0,2.72,1.93h.48l-.32.32A8.06,8.06,0,0,1,68,41.25Z" fill="#fff"/><path d="M86.12,23.78a1.43,1.43,0,0,1,1.44,1.44V47.5a1.43,1.43,0,0,1-1.44,1.44H63.85A1.44,1.44,0,0,1,62.4,47.5V25.06a1.44,1.44,0,0,1,1.45-1.44l22.27.16M74.9,33.88a9.53,9.53,0,0,1-6.41-3.21,2.39,2.39,0,0,0-.32,1.45,2.87,2.87,0,0,0,1.45,2.56,4.67,4.67,0,0,1-1.45-.32h0a3.23,3.23,0,0,0,2.57,3,2,2,0,0,1-1,.16h-.65A2.82,2.82,0,0,0,72,39.65a6.67,6.67,0,0,1-3.85,1.44h-.8a10,10,0,0,0,4.81,1.44A8.76,8.76,0,0,0,81,33.72V33.4a4.51,4.51,0,0,0,1.45-1.61,7,7,0,0,1-1.77.49,3.3,3.3,0,0,0,1.45-1.77,10.13,10.13,0,0,1-1.93.8,3.16,3.16,0,0,0-2.24-1,3.22,3.22,0,0,0-3.21,3.21c0-.16.16,0,.16.32M86.12,23.46H63.85a1.72,1.72,0,0,0-1.61,1.6V47.34a1.88,1.88,0,0,0,1.61,1.76H86.12a1.75,1.75,0,0,0,1.6-1.76V25.06a1.72,1.72,0,0,0-1.6-1.6ZM75.22,34.2l-.16-.32c0-.32-.16-.48-.16-.64a2.81,2.81,0,0,1,2.73-2.73,2.65,2.65,0,0,1,1.92.8l.16.16h.16a3,3,0,0,1,1.28-.32l-.8.81-1.28.8,1.44-.16a6.93,6.93,0,0,0,.8-.16l-.8.8-.16.16v.48a8.5,8.5,0,0,1-8.65,8.65,8.77,8.77,0,0,1-3.53-.8,6.89,6.89,0,0,0,3.53-1.44l.8-.48h-.8a3.56,3.56,0,0,1-2.57-1.44h.16a1.22,1.22,0,0,0,.81-.16l1.28-.33-1.28-.32a3.16,3.16,0,0,1-2.25-2.24c.32.16.8.16,1,.32h1.13L69.13,35a2.82,2.82,0,0,1-1.28-2.4,2.09,2.09,0,0,1,.16-1,9.37,9.37,0,0,0,6.41,3.05l.8-.48Z" fill="#4057a9"/><circle cx="44.94" cy="72.5" r="3.21" fill="#fff"/><path d="M44.94,69.29a3.21,3.21,0,1,1-3.21,3.21,3.33,3.33,0,0,1,3.21-3.21m0-.16A3.37,3.37,0,1,0,48.3,72.5a3.29,3.29,0,0,0-3.36-3.37Z" fill="#4057a9"/><path d="M33.88,85.16a1.43,1.43,0,0,1-1.44-1.44V61.44A1.43,1.43,0,0,1,33.88,60H56.15a1.44,1.44,0,0,1,1.45,1.44V83.72a1.44,1.44,0,0,1-1.45,1.44ZM44.94,63.37H41.09a10.8,10.8,0,0,0-2.24.32,5.38,5.38,0,0,0-1.61,1,3.32,3.32,0,0,0-1,1.6A5.09,5.09,0,0,0,36,68.49c0,1-.16,1.45-.16,3.85A19.88,19.88,0,0,0,36,76.19a10.8,10.8,0,0,0,.32,2.24,5.33,5.33,0,0,0,1,1.6,3.35,3.35,0,0,0,1.61,1,5.09,5.09,0,0,0,2.24.32h7.69A11,11,0,0,0,51,81a5.33,5.33,0,0,0,1.6-1,3.32,3.32,0,0,0,1-1.6,5.09,5.09,0,0,0,.32-2.24c0-1,.16-1.45.16-3.85a19.88,19.88,0,0,0-.16-3.85,10.8,10.8,0,0,0-.32-2.24,5.33,5.33,0,0,0-1-1.6,3.32,3.32,0,0,0-1.6-1,9.61,9.61,0,0,0-2.25-.32Zm0,16.82H41.25a8.69,8.69,0,0,1-1.76-.32,1.85,1.85,0,0,1-1.12-.8A6.24,6.24,0,0,1,37.56,78a3.73,3.73,0,0,1-.32-1.76V68.81a8.69,8.69,0,0,1,.32-1.76,1.83,1.83,0,0,1,.81-1.12,6.77,6.77,0,0,1,1.12-.8,3.73,3.73,0,0,1,1.76-.32h7.37a8.69,8.69,0,0,1,1.76.32,1.84,1.84,0,0,1,1.13.8,6.77,6.77,0,0,1,.8,1.12,3.73,3.73,0,0,1,.32,1.76v7.38A8.69,8.69,0,0,1,52.31,78a1.85,1.85,0,0,1-.8,1.12,6.49,6.49,0,0,1-1.13.8,3.73,3.73,0,0,1-1.76.32Zm0-12.34a4.65,4.65,0,1,0,4.64,4.65A4.65,4.65,0,0,0,44.94,67.85Zm5.12-1.28a1,1,0,1,0,1,1C50.87,67.05,50.54,66.57,50.06,66.57Z" fill="#fff"/><path d="M56.15,60a1.44,1.44,0,0,1,1.45,1.44V83.72a1.44,1.44,0,0,1-1.45,1.44H33.88a1.43,1.43,0,0,1-1.44-1.44V61.44A1.43,1.43,0,0,1,33.88,60H56.15M44.94,82a18.55,18.55,0,0,0,3.84-.17c1,0,1.6-.32,2.25-.32a5.62,5.62,0,0,0,2.72-2.72,4.74,4.74,0,0,0,.32-2.24v-7.7c0-1-.32-1.6-.32-2.24A5.62,5.62,0,0,0,51,63.85a4.81,4.81,0,0,0-2.25-.32H41.09c-1,0-1.6.32-2.24.32a5.58,5.58,0,0,0-2.73,2.72,4.74,4.74,0,0,0-.32,2.24v7.7c0,1,.32,1.6.32,2.24a5.58,5.58,0,0,0,2.73,2.72,4.74,4.74,0,0,0,2.24.32c1,0,1.44.17,3.85.17m0-17.15h3.68a4.28,4.28,0,0,1,1.76.32,3.92,3.92,0,0,1,1.13.64,2.58,2.58,0,0,1,.64,1.12,3.73,3.73,0,0,1,.32,1.76V76a12,12,0,0,1-.32,1.76,4,4,0,0,1-.64,1.12,2.56,2.56,0,0,1-1.13.64,3.73,3.73,0,0,1-1.76.32H41.25a12,12,0,0,1-1.76-.32,4,4,0,0,1-1.12-.64,2.5,2.5,0,0,1-.65-1.12c-.16-.16-.16-.64-.32-1.6V68.81a12,12,0,0,1,.32-1.76,2,2,0,0,1,.65-1.12,2.58,2.58,0,0,1,1.12-.64A3.73,3.73,0,0,1,41.25,65a18.72,18.72,0,0,1,3.69-.16m5.12,3.84a1.12,1.12,0,1,0-1.12-1.12,1.1,1.1,0,0,0,1.12,1.12m-5.12,8.66a4.81,4.81,0,1,0-4.81-4.81,5,5,0,0,0,4.81,4.81M56.15,59.68H33.88a1.72,1.72,0,0,0-1.6,1.6V83.56a1.88,1.88,0,0,0,1.6,1.76H56.15a1.75,1.75,0,0,0,1.61-1.76V61.44a1.75,1.75,0,0,0-1.61-1.76ZM44.94,81.47H41.09A8.11,8.11,0,0,1,39,81.15a4.59,4.59,0,0,1-1.45-1,3.78,3.78,0,0,1-1-1.44,4.73,4.73,0,0,1-.32-2.08V69a8.11,8.11,0,0,1,.32-2.08,4.54,4.54,0,0,1,1-1.44,3.81,3.81,0,0,1,1.45-1,4.73,4.73,0,0,1,2.08-.32h7.69a8.26,8.26,0,0,1,2.09.32,4.54,4.54,0,0,1,1.44,1,3.78,3.78,0,0,1,1,1.44A4.73,4.73,0,0,1,53.59,69v7.7a8.11,8.11,0,0,1-.32,2.08,4.54,4.54,0,0,1-1,1.44,3.78,3.78,0,0,1-1.44,1,4.79,4.79,0,0,1-2.09.32Zm0-17H41.25a15.49,15.49,0,0,0-1.92.32,1.85,1.85,0,0,0-1.12.8,2,2,0,0,0-.65,1.12,4.05,4.05,0,0,0-.32,1.92V76A15.49,15.49,0,0,0,37.56,78a1.83,1.83,0,0,0,.81,1.12,4.86,4.86,0,0,0,1.12.8,4.05,4.05,0,0,0,1.92.32h7.37a16.09,16.09,0,0,0,1.93-.32,1.85,1.85,0,0,0,1.12-.8,4.86,4.86,0,0,0,.8-1.12A4.05,4.05,0,0,0,53,76V68.65a15.49,15.49,0,0,0-.32-1.92,1.85,1.85,0,0,0-.8-1.12,4.86,4.86,0,0,0-1.12-.8c-.33,0-1-.16-1.93-.32Zm5.12,3.84a.8.8,0,1,1,0-1.6.76.76,0,0,1,.81.8c-.16.48-.49.8-.81.8ZM44.94,77a4.49,4.49,0,1,1,4.48-4.49A4.39,4.39,0,0,1,44.94,77Z" fill="#4057a9"/><path d="M63.85,85.16a1.44,1.44,0,0,1-1.45-1.44V61.44A1.44,1.44,0,0,1,63.85,60H86.12a1.43,1.43,0,0,1,1.44,1.44V83.72a1.43,1.43,0,0,1-1.44,1.44Zm6.25-5.61a1.44,1.44,0,0,1,.8.16,4.44,4.44,0,0,1,1.44.8,5.2,5.2,0,0,0,2.72,1.12,4.22,4.22,0,0,0,2.57-1.12,6.49,6.49,0,0,1,1.44-.8c.32,0,.48-.16.8-.16a2,2,0,0,1,1,.16h.32c.32,0,.32,0,.32-.32a.56.56,0,0,1,.16-.32,1.24,1.24,0,0,0,.16-.48c2.09-.32,2.57-.8,2.57-1.12a.34.34,0,0,0-.32-.32,5.77,5.77,0,0,1-3.69-2.89A2.15,2.15,0,0,1,80,72.82a3.48,3.48,0,0,1,1.28-.8c.16,0,.16,0,.32-.16.33-.16.81-.32.81-.8,0-.32-.48-.64-.81-.64-.16,0-.32.16-.48.16a1.44,1.44,0,0,1-.8.16c-.16,0-.32,0-.32-.16h-.16v-.64a7.58,7.58,0,0,0-.32-3.85A5,5,0,0,0,74.74,63a5.11,5.11,0,0,0-4.8,3.05,13.8,13.8,0,0,0-.32,3.85v.48h-.16a.62.62,0,0,1-.49.16c-.32,0-.48-.16-.8-.16a.5.5,0,0,0-.32-.16c-.32,0-.8.32-.8.48a1.26,1.26,0,0,0,.8.8c.16,0,.16,0,.32.16a2.91,2.91,0,0,1,1.29.8c.16.32-.33,1.12-.33,1.44a5.75,5.75,0,0,1-3.68,2.89.34.34,0,0,0-.32.32c0,.32.48.8,2.56,1.12a.83.83,0,0,1,.32.64c0,.16,0,.32.16.32a.34.34,0,0,0,.32.32h.32A3.5,3.5,0,0,0,70.1,79.55Z" fill="#fff"/><path d="M86.12,60a1.43,1.43,0,0,1,1.44,1.44V83.72a1.43,1.43,0,0,1-1.44,1.44H63.85a1.44,1.44,0,0,1-1.45-1.44V61.44A1.44,1.44,0,0,1,63.85,60H86.12M69.29,71.06c-.48,0-.8-.32-1.28-.32a1.32,1.32,0,0,0-1,.64c0,.32.16.64,1,1,.32.16,1.12.32,1.45.8.32.64-1.45,3.69-4,4a.31.31,0,0,0-.32.32c0,.8,1.92,1.12,2.56,1.28.16.16.16.64.32.8,0,.16.16.32.48.32s.8-.16,1.45-.16h.8c1.12.16,2.24,1.76,4.32,1.76,1.93,0,3-1.6,4.17-1.76H80a2,2,0,0,1,1,.16h.32c.32,0,.32-.16.48-.32.17-.32.17-.8.33-.8.8-.16,2.56-.32,2.56-1.28,0-.32-.16-.32-.32-.32-2.57-.32-4.33-3.37-4-4a2.6,2.6,0,0,1,1.44-.8c.65-.32,1-.64,1-1,0-.48-.64-.8-1-.8s-.8.32-1.28.32c-.16,0-.32,0-.32-.16.16-1.45.32-3.37-.32-4.33a5.65,5.65,0,0,0-5-3.2,5.27,5.27,0,0,0-5,3.2c-.48,1.12-.32,3-.32,4.33a.35.35,0,0,1-.33.32M86.12,59.68H63.85a1.72,1.72,0,0,0-1.61,1.6V83.56a1.88,1.88,0,0,0,1.61,1.76H86.12a1.75,1.75,0,0,0,1.6-1.76V61.44a1.75,1.75,0,0,0-1.6-1.76ZM69.29,71.22c.33,0,.33,0,.49-.16l.16-.16v-.8a6.8,6.8,0,0,1,.32-3.69,5.06,5.06,0,0,1,4.8-2.88,5.23,5.23,0,0,1,4.81,2.88,13.18,13.18,0,0,1,.32,3.69v.8l.16.16a.59.59,0,0,0,.48.16c.32,0,.48-.16.8-.16.16,0,.33-.16.49-.16.32,0,.64.16.64.32,0,.32-.48.48-.8.64-.17,0-.17,0-.33.16-.48.16-1.12.32-1.28.8-.16.32.16,1.12.32,1.44a6.4,6.4,0,0,0,3.85,3,.16.16,0,0,1,.16.16c0,.16-.32.64-2.4.8h-.16l-.16.16c-.17.16-.17.32-.33.64a.56.56,0,0,1-.16.32c0,.16,0,.16-.16.16H81a2.72,2.72,0,0,0-1.12-.16,1.44,1.44,0,0,0-.8.16,3.27,3.27,0,0,0-1.44.8,4.54,4.54,0,0,1-2.57,1,5.06,5.06,0,0,1-2.72-1,6.49,6.49,0,0,0-1.44-.8c-.32,0-.48-.16-.8-.16-.48,0-.81.16-1.13.16h-.32a.16.16,0,0,1-.16-.16.56.56,0,0,0-.16-.32c-.16-.32-.16-.48-.32-.64h-.16c-2.08-.32-2.4-.8-2.4-.8a.16.16,0,0,1,.16-.16,5.71,5.71,0,0,0,3.85-2.89,1.29,1.29,0,0,0-1-2.24c-.16,0-.16,0-.32-.16-.48-.32-.8-.48-.8-.8s.32-.32.64-.32c.16,0,.32,0,.32.16a1.83,1.83,0,0,1,1,0Z" fill="#4057a9"/><line x1="25.54" y1="13.85" x2="94.29" y2="13.85" fill="none" stroke="#fff" stroke-miterlimit="10" stroke-width="3.75"/><line x1="25.54" y1="94.46" x2="94.29" y2="94.46" fill="none" stroke="#fff" stroke-miterlimit="10" stroke-width="3.75"/><line x1="53.75" y1="9.2" x2="66.25" y2="9.2" fill="none" stroke="#fff" stroke-linecap="round" stroke-miterlimit="10" stroke-width="2.5"/><circle cx="60" cy="105.35" r="6.41" fill="#fff"/><path d="M60,99.1a6.25,6.25,0,1,1-6.25,6.25A6.16,6.16,0,0,1,60,99.1m0-.16a6.6,6.6,0,0,0-6.57,6.57,6.57,6.57,0,1,0,13.14,0A6.6,6.6,0,0,0,60,98.94Z" fill="#4057a9"/></g></svg>