<svg id="Layer_1" data-name="Layer 1" xmlns="http://www.w3.org/2000/svg" width="120" height="120" viewBox="0 0 120 120"><title>help2</title><g id="Layer_1-2" data-name="Layer 1"><path d="M116.47,87.45a8.24,8.24,0,0,1-8.3,8.3H11.77a8.24,8.24,0,0,1-8.3-8.3V32.55a8.24,8.24,0,0,1,8.3-8.3h96.56a8.24,8.24,0,0,1,8.3,8.3C116.47,32.55,116.47,87.45,116.47,87.45Z" fill="#4057a9" stroke="#fff" stroke-miterlimit="10" stroke-width="5.11"/><g id="MK_Logo" data-name="MK Logo"><path d="M59.49,53.78h0l1.28-1.28c.16-.16.16-.16.32-.16H71.62c.16,0,.32,0,.32-.16,4-4,11.81-12,12-12L93.65,50s-5.27,5.26-8,8a.57.57,0,0,1-.32.15H81.52l8-8-5.75-5.74L72.9,55.21H60.77c-.16,0-.16,0-.32-.16l-1.12-1.11c.16,0,.16,0,.16-.16Z" fill="#fff"/><path d="M83.75,32.71l17.56,17.55.16.16H97.64c-.16,0-.16,0-.32-.16L83.75,36.7a.16.16,0,0,0-.16-.16h0a.16.16,0,0,1-.16.16L69.87,50.26c-.16.16-.16.16-.32.16H65.88l.15-.16c3-2.87,17.56-17.39,17.72-17.55Z" fill="#fff"/><path d="M83.75,75,66.19,57.45,66,57.29h3.84a.15.15,0,0,1,.15.16L83.75,71.17c0-.16,9.1-9.25,13.57-13.72.16-.16.16-.16.32-.16h3.83a.16.16,0,0,1-.16.16C95.4,63.35,83.91,75,83.75,75Z" fill="#fff"/><path d="M74,57.77l8-8c.16-.16.16-.16.32-.16H86l-8,8,5.75,5.74L94.6,52.5c.16-.16.16-.16.32-.16h11.65a10.44,10.44,0,0,1,1.6,1.44c-.32.31-1.6,1.43-1.6,1.43H96c-.16,0-.32,0-.32.16-.32.32-11.81,12-12,12C80.56,64.15,77.37,61,74,57.77Z" fill="#fff"/></g><line x1="14.33" y1="35.1" x2="57.26" y2="35.1" fill="none" stroke="#fff" stroke-linecap="round" stroke-miterlimit="10" stroke-width="5.11"/><line x1="14.33" y1="44.68" x2="36.03" y2="44.68" fill="none" stroke="#fff" stroke-linecap="round" stroke-miterlimit="10" stroke-width="5.11"/><line x1="14.33" y1="85.06" x2="31.88" y2="85.06" fill="none" stroke="#fff" stroke-linecap="round" stroke-miterlimit="10" stroke-width="5.11"/><line x1="87.9" y1="85.06" x2="105.62" y2="85.06" fill="none" stroke="#fff" stroke-linecap="round" stroke-miterlimit="10" stroke-width="5.11"/><line x1="63.48" y1="85.06" x2="80.88" y2="85.06" fill="none" stroke="#fff" stroke-linecap="round" stroke-miterlimit="10" stroke-width="5.11"/><line x1="38.74" y1="85.06" x2="56.46" y2="85.06" fill="none" stroke="#fff" stroke-linecap="round" stroke-miterlimit="10" stroke-width="5.11"/></g></svg>