<?xml version="1.0" encoding="utf-8"?>
<!-- Generator: Adobe Illustrator 19.0.0, SVG Export Plug-In . SVG Version: 6.00 Build 0)  -->
<svg version="1.1" id="Layer_1" xmlns="http://www.w3.org/2000/svg" xmlns:xlink="http://www.w3.org/1999/xlink" x="0px" y="0px"
	 viewBox="0 0 75 75" style="enable-background:new 0 0 75 75;" xml:space="preserve">
<metadata><?xpacket begin="﻿" id="W5M0MpCehiHzreSzNTczkc9d"?>
<x:xmpmeta xmlns:x="adobe:ns:meta/" x:xmptk="Adobe XMP Core 5.6-c067 79.157747, 2015/03/30-23:40:42        ">
   <rdf:RDF xmlns:rdf="http://www.w3.org/1999/02/22-rdf-syntax-ns#">
      <rdf:Description rdf:about=""/>
   </rdf:RDF>
</x:xmpmeta>
                                                                                                    
                                                                                                    
                                                                                                    
                                                                                                    
                                                                                                    
                                                                                                    
                                                                                                    
                                                                                                    
                                                                                                    
                                                                                                    
                                                                                                    
                                                                                                    
                                                                                                    
                                                                                                    
                                                                                                    
                                                                                                    
                                                                                                    
                                                                                                    
                                                                                                    
                                                                                                    
                           
<?xpacket end="w"?></metadata>
<style type="text/css">
	.st0{fill:#FFFFFF;}
</style>
<g>
	<g id="MK_Logo">
		<g>
			<g>
				<g>
					<path class="st0" d="M52.9,32.9c0,0-2.4,2.4-3.7,3.7l-0.1,0.1h-1.7c0,0,0,0-0.1,0c1.2-1.2,2.4-2.4,3.7-3.7
						c-0.9-0.9-1.8-1.8-2.7-2.7c0,0-4.4,4.4-5,5c-0.1,0.1-0.1,0.1-0.1,0.1h-5.4c-0.1,0-0.1,0-0.1-0.1c-0.2-0.2-0.4-0.4-0.5-0.5v-0.1
						l0.6-0.6c0.1-0.1,0.1-0.1,0.1-0.1h4.9c0.1,0,0.1,0,0.1-0.1c1.8-1.8,5.5-5.6,5.6-5.6C49.9,29.9,51.4,31.5,52.9,32.9z"/>
				</g>
			</g>
			<g>
				<g>
					<path class="st0" d="M56.6,33.1C56.5,33.1,56.5,33.1,56.6,33.1h-1.8c-0.1,0-0.1,0-0.1-0.1c-1.5-1.5-5.7-5.7-6.3-6.3
						c0,0,0-0.1-0.1-0.1c0,0,0,0.1-0.1,0.1c-2.1,2.1-4.1,4.1-6.3,6.3c-0.1,0.1-0.1,0.1-0.1,0.1h-1.7l0.1-0.1c1.4-1.3,8.1-8,8.2-8.1
						C48.5,25,53.9,30.4,56.6,33.1L56.6,33.1z"/>
				</g>
			</g>
			<g>
				<g>
					<path class="st0" d="M56.6,36.4C56.6,36.5,56.5,36.5,56.6,36.4c-2.7,2.7-8.1,8.1-8.2,8.2c-0.1-0.1-6.7-6.7-8.1-8.1l-0.1-0.1
						c0.1,0,0.1,0,0.1,0H42c0,0,0.1,0,0.1,0.1c0.1,0.1,6.3,6.3,6.3,6.3c0-0.1,4.2-4.3,6.3-6.3c0.1-0.1,0.1-0.1,0.1-0.1h1.7
						C56.4,36.4,56.5,36.4,56.6,36.4z"/>
				</g>
			</g>
			<g>
				<g>
					<path class="st0" d="M59.6,34.7c-0.2,0.2-0.7,0.6-0.7,0.6H54c-0.1,0-0.1,0-0.1,0.1c-0.1,0.1-5.5,5.6-5.6,5.6
						c-1.5-1.5-3-3-4.5-4.4c0,0,2.4-2.4,3.7-3.7c0.1-0.1,0.1-0.1,0.1-0.1c0.5,0,1.7,0,1.7,0c-1.2,1.2-2.5,2.5-3.7,3.7
						c0.9,0.9,1.8,1.8,2.7,2.7c0,0,3.4-3.4,5-5c0.1-0.1,0.1-0.1,0.1-0.1h5.4C59,34.1,59.5,34.5,59.6,34.7z"/>
				</g>
			</g>
		</g>
	</g>
	<path class="st0" d="M59.9,19.7H15.2c-3,0-5.3,2.3-5.3,5.1v25.4c0,2.8,2.3,5.1,5.2,5.1h44.7c2.8,0,5.2-2.3,5.2-5.1V24.8
		C64.9,22.1,62.6,19.7,59.9,19.7z M62.3,50.3c0,1.4-1.1,2.5-2.5,2.5H15.1c-1.4,0-2.5-1.1-2.5-2.5V24.9c0-1.4,1.2-2.5,2.7-2.5H60
		c1.3,0,2.4,1.2,2.4,2.5v25.4H62.3z"/>
	<path class="st0" d="M37.5,26.1c0,0.7-0.6,1.3-1.3,1.3H16.4c-0.7,0-1.3-0.6-1.3-1.3c0-0.7,0.6-1.3,1.3-1.3h19.9
		C36.9,24.8,37.5,25.4,37.5,26.1z"/>
	<path class="st0" d="M27.6,30.5c0,0.7-0.6,1.3-1.3,1.3H16.2c-0.7,0-1.3-0.6-1.3-1.3c0-0.7,0.6-1.3,1.3-1.3h10.1
		C27,29.2,27.6,29.8,27.6,30.5z"/>
	<path class="st0" d="M25.7,49.2c0,0.7-0.6,1.3-1.3,1.3h-8.2c-0.7,0-1.3-0.6-1.3-1.3c0-0.7,0.6-1.3,1.3-1.3h8.2
		C25.1,47.9,25.7,48.5,25.7,49.2z"/>
	<path class="st0" d="M59.8,49.2c0,0.7-0.6,1.3-1.3,1.3h-8.2c-0.7,0-1.3-0.6-1.3-1.3c0-0.7,0.6-1.3,1.3-1.3h8.2
		C59.2,47.9,59.8,48.5,59.8,49.2z"/>
	<path class="st0" d="M48.4,49.2c0,0.7-0.6,1.3-1.3,1.3H39c-0.7,0-1.3-0.6-1.3-1.3c0-0.7,0.6-1.3,1.3-1.3h8.1
		C47.8,47.9,48.4,48.5,48.4,49.2z"/>
	<path class="st0" d="M37.1,49.2c0,0.7-0.6,1.3-1.3,1.3h-8.2c-0.7,0-1.3-0.6-1.3-1.3c0-0.7,0.6-1.3,1.3-1.3h8.2
		C36.5,47.9,37.1,48.5,37.1,49.2z"/>
</g>
</svg>
