<?xml version="1.0" encoding="utf-8"?>
<!-- Generator: Adobe Illustrator 22.0.1, SVG Export Plug-In . SVG Version: 6.00 Build 0)  -->
<svg version="1.1" id="Layer_1" xmlns="http://www.w3.org/2000/svg" xmlns:xlink="http://www.w3.org/1999/xlink" x="0px" y="0px"
	 viewBox="0 0 75 75" style="enable-background:new 0 0 75 75;" xml:space="preserve">
<style type="text/css">
	.st0{display:none;fill:#FFFFFF;stroke:#000000;stroke-miterlimit:10;}
	.st1{fill:#FFFFFF;}
</style>
<g>
	<g>
		<path class="st0" d="M68,35.9l-9.7-24.7c-0.3-0.9-1-1.6-1.9-1.9c-0.9-0.4-1.9-0.4-2.8-0.1L9.1,26.6c-0.9,0.3-1.6,1-1.9,1.9
			c-0.4,0.9-0.4,1.9-0.1,2.8L16.7,56c0.3,0.9,1,1.6,1.9,1.9c0.4,0.2,1,0.3,1.5,0.3c0.4,0,0.9-0.1,1.2-0.2L66,40.6
			c1.4-0.6,2.3-1.9,2.3-3.4C68.2,36.8,68.1,36.4,68,35.9z M51.3,14L37.7,34.1L14,28.5L51.3,14z M19.3,53L11,31.5l18.6,4.4L19.3,53z
			 M23.3,53.4l9.9-16.6l4.9,1.1c0.1,0,0.3,0.1,0.4,0.1c0.5,0,1.1-0.3,1.4-0.8l2.8-4.1l18.6,5.5L23.3,53.4z M44.9,30l10.6-15.8
			l8.4,21.4L44.9,30z"/>
	</g>
	<g>
		<g>
			<g>
				<path class="st1" d="M64.7,49.6L64.7,23c0-0.8-0.4-1.5-0.9-2.2c-0.3-0.4-0.7-0.5-1.1-0.6c-0.3-0.1-0.8-0.2-1.1-0.2l-47.9,0
					c-0.8,0-1.5,0.4-2.2,0.8c-0.6,0.6-0.8,1.3-0.9,2.1l0.1,26.5c0,0.8,0.4,1.5,1,2.1c0.5,0.5,1.3,0.9,2.1,0.9l47.9,0
					c1.3,0,2.4-0.8,2.8-2C64.7,50.3,64.7,49.9,64.7,49.6z M59.5,22.5L37.7,37.6L16,22.5L59.5,22.5z M13.3,48.9l0-25.2l17.2,11.9
					L13.3,48.9z M15.7,50.1L32.7,37l4.5,3.1c0.1,0,0.2,0.1,0.3,0.1c0.4,0.2,0.8,0.1,1.1-0.2L43,37l16.9,13L15.7,50.1z M45.1,35.5
					l17.2-11.9l0.1,25.2L45.1,35.5z"/>
			</g>
		</g>
	</g>
</g>
</svg>
