<svg id="Layer_1" data-name="Layer 1" xmlns="http://www.w3.org/2000/svg" viewBox="0 0 105.13 126.41"><title>mk_logo_pattern_bg</title><rect width="105.13" height="126.41" fill="none" opacity="0.3"/><g opacity="0.3"><polygon points="108.09 133.82 122.89 119.02 105.13 101.26 82.44 123.95 62.21 123.95 59.74 126.41 62.21 128.88 84.41 128.88 105.13 108.16 115.99 119.01 101.19 133.82 108.09 133.82" fill="none" stroke="#aeb8da" stroke-miterlimit="10"/><polygon points="102.16 119.01 87.36 133.81 105.13 151.57 127.81 128.88 148.05 128.88 150.51 126.41 148.05 123.95 125.84 123.95 105.12 144.67 94.26 133.82 109.06 119.01 102.16 119.01" fill="none" stroke="#aeb8da" stroke-miterlimit="10"/><polygon points="75.03 119.01 105.13 88.91 135.22 119.01 128.32 119.01 105.13 95.82 81.94 119.01 75.03 119.01" fill="none" stroke="#aeb8da" stroke-miterlimit="10"/></g><g opacity="0.3"><polygon points="2.97 133.82 17.76 119.02 0 101.26 -22.69 123.95 -42.92 123.95 -45.39 126.41 -42.92 128.88 -20.72 128.88 0.01 108.16 10.86 119.01 -3.94 133.82 2.97 133.82" fill="none" stroke="#aeb8da" stroke-miterlimit="10"/><polygon points="-2.97 119.01 -17.76 133.81 0 151.57 22.69 128.88 42.92 128.88 45.39 126.41 42.92 123.95 20.72 123.95 -0.01 144.67 -10.86 133.82 3.94 119.01 -2.97 119.01" fill="none" stroke="#aeb8da" stroke-miterlimit="10"/><polygon points="-30.1 119.01 0.01 88.91 30.1 119.01 23.19 119.01 0.01 95.82 -23.19 119.01 -30.1 119.01" fill="none" stroke="#aeb8da" stroke-miterlimit="10"/></g><g opacity="0.3"><polygon points="108.09 7.4 122.89 -7.39 105.13 -25.16 82.44 -2.47 62.21 -2.47 59.74 0 62.21 2.47 84.41 2.47 105.13 -18.26 115.99 -7.4 101.19 7.4 108.09 7.4" fill="none" stroke="#aeb8da" stroke-miterlimit="10"/><polygon points="102.16 -7.4 87.36 7.39 105.13 25.16 127.81 2.47 148.05 2.47 150.51 0 148.05 -2.47 125.84 -2.47 105.12 18.26 94.26 7.4 109.06 -7.4 102.16 -7.4" fill="none" stroke="#aeb8da" stroke-miterlimit="10"/><polygon points="75.03 7.4 105.13 37.5 135.22 7.4 128.32 7.4 105.13 30.59 81.94 7.4 75.03 7.4" fill="none" stroke="#aeb8da" stroke-miterlimit="10"/></g><g opacity="0.3"><polygon points="55.53 70.61 70.33 55.81 52.56 38.05 29.87 60.74 9.64 60.74 7.18 63.21 9.64 65.67 31.85 65.67 52.57 44.95 63.43 55.81 48.62 70.61 55.53 70.61" fill="none" stroke="#aeb8da" stroke-miterlimit="10"/><polygon points="49.59 55.81 34.8 70.6 52.56 88.36 75.25 65.67 95.48 65.67 97.95 63.21 95.48 60.74 73.28 60.74 52.55 81.46 41.7 70.61 56.5 55.81 49.59 55.81" fill="none" stroke="#aeb8da" stroke-miterlimit="10"/><polygon points="22.46 55.81 52.57 25.71 82.66 55.81 75.75 55.81 52.57 32.62 29.37 55.81 22.46 55.81" fill="none" stroke="#aeb8da" stroke-miterlimit="10"/><polygon points="22.46 70.61 52.57 100.71 82.66 70.61 75.75 70.61 52.57 93.8 29.37 70.61 22.46 70.61" fill="none" stroke="#aeb8da" stroke-miterlimit="10"/></g><g opacity="0.3"><polygon points="2.97 7.4 17.76 -7.39 0 -25.16 -22.69 -2.47 -42.92 -2.47 -45.39 0 -42.92 2.47 -20.72 2.47 0.01 -18.26 10.86 -7.4 -3.94 7.4 2.97 7.4" fill="none" stroke="#aeb8da" stroke-miterlimit="10"/><polygon points="-2.97 -7.4 -17.76 7.39 0 25.16 22.69 2.47 42.92 2.47 45.39 0 42.92 -2.47 20.72 -2.47 -0.01 18.26 -10.86 7.4 3.94 -7.4 -2.97 -7.4" fill="none" stroke="#aeb8da" stroke-miterlimit="10"/><polygon points="-30.1 7.4 0.01 37.5 30.1 7.4 23.19 7.4 0.01 30.59 -23.19 7.4 -30.1 7.4" fill="none" stroke="#aeb8da" stroke-miterlimit="10"/></g></svg>