<?xml version="1.0" encoding="utf-8"?>
<!-- Generator: Adobe Illustrator 16.0.0, SVG Export Plug-In . SVG Version: 6.00 Build 0)  -->
<!DOCTYPE svg PUBLIC "-//W3C//DTD SVG 1.1//EN" "http://www.w3.org/Graphics/SVG/1.1/DTD/svg11.dtd">
<svg version="1.1" id="Layer_2" xmlns="http://www.w3.org/2000/svg" xmlns:xlink="http://www.w3.org/1999/xlink" x="0px" y="0px"
	 width="100px" height="100px" viewBox="0 0 100 100" enable-background="new 0 0 100 100" xml:space="preserve">
<polygon fill-rule="evenodd" clip-rule="evenodd" points="52.508,57.5 67.5,42.508 49.5,24.508 26.508,47.5 6.008,47.5 3.508,50 
	6.008,52.5 28.508,52.5 49.508,31.5 60.508,42.5 45.508,57.5 "/>
<polygon fill-rule="evenodd" clip-rule="evenodd" points="46.492,42.508 31.5,57.5 49.5,75.5 72.492,52.508 92.992,52.508 
	95.492,50.008 92.992,47.508 70.492,47.508 49.492,68.508 38.492,57.508 53.491,42.508 "/>
<polygon fill-rule="evenodd" clip-rule="evenodd" points="19,42.5 49.508,12 80,42.5 73,42.5 49.508,19 26,42.5 "/>
<polygon fill-rule="evenodd" clip-rule="evenodd" points="19,57.5 49.508,88 80,57.5 73,57.5 49.508,81 26,57.5 "/>
</svg>
