<?xml version="1.0" encoding="utf-8"?>
<!-- Generator: Adobe Illustrator 21.0.0, SVG Export Plug-In . SVG Version: 6.00 Build 0)  -->
<svg version="1.1" id="Capa_1" xmlns="http://www.w3.org/2000/svg" xmlns:xlink="http://www.w3.org/1999/xlink" x="0px" y="0px"
	 viewBox="0 0 100 100" style="enable-background:new 0 0 100 100;" xml:space="preserve">
<style type="text/css">
	.st0{display:none;}
	.st1{display:inline;fill:#99A5D0;stroke:#FFFFFF;stroke-width:1.6;stroke-miterlimit:10;}
	.st2{display:inline;fill:#99A5D0;}
	.st3{display:inline;fill:#FFFFFF;}
	.st4{fill:#99A5D0;}
</style>
<g class="st0">
	<path class="st1" d="M87.7,10.2H12.3L2.5,31.9v0.4c0,4.9,4,9,9.2,9.8v47.7h9.7V51.3h19.5v38.6h46.7V42.2c5.6-0.5,9.9-4.7,9.9-9.9
		v-0.4L87.7,10.2z M44.5,86.2V47.6H17.7v38.6h-2.4V42.1c0.2,0,0.3-0.1,0.5-0.1c0.2,0,0.4-0.1,0.5-0.1c0.3-0.1,0.5-0.1,0.8-0.2
		c0.3-0.1,0.5-0.2,0.8-0.3c0.2-0.1,0.5-0.2,0.7-0.3c0.2-0.1,0.4-0.2,0.5-0.3c0.2-0.1,0.3-0.2,0.5-0.3c0.2-0.1,0.3-0.2,0.5-0.3
		c0.2-0.1,0.3-0.2,0.5-0.3c0.2-0.1,0.3-0.2,0.5-0.4c0.2-0.1,0.3-0.3,0.4-0.4c0.1-0.1,0.3-0.3,0.4-0.4c0.2-0.2,0.3-0.4,0.5-0.6
		c0.1-0.1,0.1-0.2,0.2-0.2c0.1,0.2,0.3,0.3,0.4,0.5c0.1,0.1,0.2,0.3,0.4,0.4c0.1,0.1,0.2,0.1,0.2,0.2c0.2,0.2,0.4,0.4,0.7,0.6
		c0.1,0.1,0.1,0.1,0.2,0.1c0.3,0.2,0.5,0.4,0.8,0.6c0.1,0,0.1,0.1,0.2,0.1c0.3,0.2,0.6,0.4,1,0.6c0.1,0.1,0.3,0.1,0.4,0.2
		c0.3,0.1,0.5,0.2,0.8,0.3c0.2,0.1,0.4,0.1,0.6,0.2c0.7,0.2,1.4,0.4,2.1,0.5c0.5,0.1,0.9,0.1,1.4,0.1c3.8,0,7.2-1.8,9.1-4.4
		c2,2.7,5.3,4.4,9.1,4.4s7.2-1.8,9.1-4.4c2,2.7,5.3,4.4,9.1,4.4c0.5,0,0.9,0,1.4-0.1c0.1,0,0.3,0,0.4-0.1c0.3,0,0.6-0.1,1-0.2
		c0,0,0.1,0,0.1,0c0.4-0.1,0.8-0.2,1.2-0.4c0,0,0.1,0,0.1,0c2-0.8,3.8-2.1,5-3.7c0.1,0.1,0.1,0.1,0.2,0.2c0.3,0.4,0.6,0.7,0.9,1
		c0.1,0.1,0.2,0.2,0.4,0.3c1.4,1.2,3.1,2.2,5.1,2.6v44.2L44.5,86.2L44.5,86.2z M86.6,38.6l-0.7-0.1c-0.9-0.1-1.8-0.3-2.6-0.6
		c0,0,0,0,0,0c-0.4-0.2-0.7-0.4-1.1-0.6c-0.1-0.1-0.2-0.1-0.2-0.2c-0.3-0.2-0.5-0.4-0.7-0.6c-0.1-0.1-0.2-0.3-0.4-0.4
		c-0.2-0.2-0.3-0.3-0.4-0.5c-0.1-0.2-0.3-0.4-0.4-0.6c-0.1-0.1-0.2-0.3-0.3-0.4c-0.1-0.3-0.2-0.5-0.3-0.8c0-0.1-0.1-0.2-0.1-0.4
		c-0.1-0.4-0.1-0.8-0.1-1.2h-3.7c0,3.5-3.3,6.3-7.3,6.3S61,35.8,61,32.3h-3.7c0,3.5-3.3,6.3-7.3,6.3s-7.3-2.8-7.3-6.3H39
		c0,3.5-3.3,6.3-7.3,6.3s-7.3-2.8-7.3-6.3l-3.7,0c0,0.4-0.1,0.9-0.1,1.3c-0.7,2.9-3.6,5-7.1,5h-0.1c-3.9,0-7-2.6-7.2-5.9l8.5-18.8
		h70.6l8.5,18.8C93.6,35.9,90.5,38.5,86.6,38.6z M46,74.8h36.5V47.6H46V74.8z M49.7,51.3h29.2v19.9H49.7V51.3z"/>
</g>
<g class="st0">
	<path class="st2" d="M46,47.6v27.2h36.5V47.6H46z M81.7,74H46.8V48.4h34.9V74z M79.7,50.5H48.9V72h30.8V50.5z M78.8,71.2H49.7V51.3
		h29.2V71.2z M46,47.6v27.2h36.5V47.6H46z M81.7,74H46.8V48.4h34.9V74z M79.7,50.5H48.9V72h30.8V50.5z M78.8,71.2H49.7V51.3h29.2
		V71.2z M84.1,41.2c-1.8-0.4-3.4-1.2-4.7-2.4c-0.1-0.1-0.2-0.2-0.3-0.3c-0.3-0.3-0.6-0.6-0.8-0.9c0-0.1-0.1-0.1-0.2-0.2l-0.6-0.9
		l-0.7,0.9c-1.1,1.5-2.7,2.7-4.7,3.5c-0.4,0.1-0.7,0.2-1.1,0.3l-0.1,0c-0.3,0.1-0.6,0.1-0.9,0.2l-0.2,0c-0.1,0-0.1,0-0.2,0
		c-0.4,0-0.9,0.1-1.3,0.1c-3.4,0-6.6-1.5-8.5-4.1l-0.7-0.9l-0.6,0.9c-1.9,2.6-5.1,4.1-8.5,4.1s-6.6-1.5-8.5-4.1l-0.6-0.9l-0.7,0.9
		c-1.9,2.6-5.1,4.1-8.5,4.1c-0.4,0-0.9,0-1.3-0.1c-0.6-0.1-1.2-0.2-1.9-0.4l-0.2-0.1c-0.1,0-0.2-0.1-0.3-0.1
		c-0.2-0.1-0.4-0.2-0.6-0.2L27,40.4c-0.1,0-0.1,0-0.2-0.1c-0.3-0.2-0.6-0.3-0.9-0.5l-0.2-0.1c-0.3-0.2-0.5-0.4-0.8-0.6L24.8,39
		c-0.2-0.2-0.4-0.4-0.6-0.6l-0.1-0.1c0,0-0.1,0-0.1-0.1c-0.1-0.1-0.1-0.2-0.2-0.2l-0.3-0.3c-0.1-0.1-0.2-0.2-0.2-0.3l-0.7-0.9
		L22,37.3c0,0,0,0.1-0.1,0.1l-0.1,0.1c-0.2,0.2-0.3,0.4-0.5,0.5c-0.1,0.1-0.2,0.2-0.4,0.4c-0.1,0.1-0.3,0.2-0.4,0.4
		c-0.1,0.1-0.3,0.2-0.4,0.3c-0.1,0.1-0.3,0.2-0.4,0.3c-0.2,0.1-0.3,0.2-0.5,0.3c-0.2,0.1-0.3,0.2-0.5,0.3l-0.2,0.1
		c-0.1,0.1-0.2,0.1-0.3,0.2c-0.2,0.1-0.3,0.2-0.5,0.2l-0.1,0.1c-0.2,0.1-0.5,0.2-0.7,0.3c-0.2,0.1-0.5,0.2-0.7,0.2
		c-0.1,0-0.2,0-0.3,0.1l-0.4,0.1c-0.1,0-0.2,0-0.3,0.1l-0.7,0.1V87h4V48.4h25.2V87h41V41.3L84.1,41.2z M83.9,86.2H44.5V47.6H17.7
		v38.6h-2.4v-44c0.2,0,0.3-0.1,0.5-0.1c0.2,0,0.4-0.1,0.5-0.1c0.3-0.1,0.5-0.1,0.8-0.2c0.3-0.1,0.5-0.2,0.8-0.3
		c0.2-0.1,0.5-0.2,0.7-0.3c0.2-0.1,0.3-0.2,0.5-0.3c0.2-0.1,0.3-0.2,0.5-0.3c0.2-0.1,0.3-0.2,0.5-0.3c0.1-0.1,0.3-0.2,0.5-0.3
		c0.2-0.1,0.3-0.2,0.5-0.4c0.2-0.1,0.3-0.3,0.4-0.4c0.1-0.1,0.3-0.3,0.4-0.4c0.2-0.2,0.3-0.4,0.5-0.6c0.1-0.1,0.1-0.2,0.2-0.2
		c0.1,0.2,0.3,0.3,0.4,0.5c0.1,0.1,0.2,0.3,0.4,0.5c0.1,0.1,0.2,0.1,0.2,0.2c0.2,0.2,0.5,0.4,0.7,0.7c0.1,0,0.1,0.1,0.2,0.1
		c0.3,0.2,0.5,0.4,0.8,0.6c0.1,0,0.1,0.1,0.2,0.1c0.3,0.2,0.6,0.4,1,0.5c0.1,0.1,0.3,0.1,0.4,0.2c0.3,0.1,0.5,0.2,0.8,0.3
		c0.2,0.1,0.4,0.1,0.6,0.2c0.7,0.2,1.3,0.4,2.1,0.5c0.5,0.1,0.9,0.1,1.4,0.1c3.8,0,7.2-1.8,9.1-4.5c2,2.7,5.3,4.5,9.1,4.5
		s7.2-1.8,9.1-4.5c2,2.7,5.3,4.5,9.1,4.5c0.5,0,0.9,0,1.4-0.1c0.1,0,0.3,0,0.4-0.1c0.3,0,0.7-0.1,1-0.2c0,0,0.1,0,0.1,0
		c0.4-0.1,0.8-0.2,1.2-0.4c0,0,0,0,0.1,0c2-0.8,3.8-2.1,5-3.7c0,0.1,0.1,0.1,0.2,0.2c0.3,0.4,0.6,0.7,0.9,1c0.1,0.1,0.2,0.2,0.4,0.3
		c1.4,1.2,3.1,2.2,5.1,2.6V86.2z M46,74.8h36.5V47.6H46V74.8z M46.8,48.4h34.9V74H46.8V48.4z M48.9,72h30.8V50.5H48.9V72z
		 M49.7,51.3h29.2v19.9H49.7V51.3z M85.8,13H14.2L5.4,32.5l0,0.2c0.2,3.7,3.8,6.6,8.1,6.7c3.8,0,7.1-2.4,7.9-5.6
		c0-0.2,0.1-0.4,0.1-0.6h2.2c0.5,3.5,3.9,6.3,8,6.3c4.2,0,7.6-2.8,8.1-6.3H42c0.5,3.5,3.9,6.3,8,6.3s7.6-2.8,8-6.3h2.2
		c0.5,3.5,3.9,6.3,8.1,6.3c4.1,0,7.6-2.8,8-6.3h2.2c0,0.2,0.1,0.4,0.1,0.6c0,0.1,0.1,0.2,0.1,0.4c0.1,0.3,0.2,0.6,0.3,0.9
		c0.1,0.1,0.1,0.2,0.2,0.4l0.1,0.2c0.1,0.2,0.2,0.4,0.4,0.6c0.1,0.2,0.3,0.3,0.5,0.6l0.1,0.1c0.1,0.1,0.2,0.2,0.3,0.3
		c0.2,0.2,0.5,0.4,0.9,0.7c0.1,0,0.1,0.1,0.2,0.1c0.3,0.2,0.6,0.4,0.9,0.5l0.3,0.1c0.9,0.4,1.9,0.6,2.9,0.7l0.8,0.1h0
		c4.2,0,7.7-3,8-6.7l0-0.2L85.8,13z M86.6,38.6l-0.7-0.1c-1-0.1-1.8-0.3-2.6-0.6v0c-0.4-0.2-0.7-0.3-1.1-0.6c-0.1,0-0.2-0.1-0.2-0.2
		c-0.3-0.2-0.5-0.4-0.7-0.6c-0.1-0.1-0.2-0.2-0.4-0.4c-0.2-0.2-0.3-0.3-0.4-0.5c-0.1-0.2-0.3-0.4-0.4-0.6c-0.1-0.1-0.2-0.3-0.3-0.4
		c-0.1-0.2-0.2-0.5-0.3-0.8c0-0.1-0.1-0.2-0.1-0.4c-0.1-0.4-0.1-0.8-0.1-1.2h-3.7c0,3.5-3.3,6.3-7.3,6.3c-4,0-7.3-2.8-7.3-6.3h-3.7
		c0,3.5-3.3,6.3-7.3,6.3s-7.3-2.8-7.3-6.3H39c0,3.5-3.3,6.3-7.3,6.3c-4,0-7.3-2.8-7.3-6.3h-3.7c0,0.4,0,0.8-0.1,1.3
		c-0.7,2.8-3.6,5-7.1,5h-0.1c-3.9,0-7-2.6-7.2-5.9l8.5-18.8h70.6l8.5,18.8C93.6,36,90.5,38.5,86.6,38.6z M85.8,13H14.2L5.4,32.5
		l0,0.2c0.2,3.7,3.8,6.6,8.1,6.7c3.8,0,7.1-2.4,7.9-5.6c0-0.2,0.1-0.4,0.1-0.6h2.2c0.5,3.5,3.9,6.3,8,6.3c4.2,0,7.6-2.8,8.1-6.3H42
		c0.5,3.5,3.9,6.3,8,6.3s7.6-2.8,8-6.3h2.2c0.5,3.5,3.9,6.3,8.1,6.3c4.1,0,7.6-2.8,8-6.3h2.2c0,0.2,0.1,0.4,0.1,0.6
		c0,0.1,0.1,0.2,0.1,0.4c0.1,0.3,0.2,0.6,0.3,0.9c0.1,0.1,0.1,0.2,0.2,0.4l0.1,0.2c0.1,0.2,0.2,0.4,0.4,0.6c0.1,0.2,0.3,0.3,0.5,0.6
		l0.1,0.1c0.1,0.1,0.2,0.2,0.3,0.3c0.2,0.2,0.5,0.4,0.9,0.7c0.1,0,0.1,0.1,0.2,0.1c0.3,0.2,0.6,0.4,0.9,0.5l0.3,0.1
		c0.9,0.4,1.9,0.6,2.9,0.7l0.8,0.1h0c4.2,0,7.7-3,8-6.7l0-0.2L85.8,13z M86.6,38.6l-0.7-0.1c-1-0.1-1.8-0.3-2.6-0.6v0
		c-0.4-0.2-0.7-0.3-1.1-0.6c-0.1,0-0.2-0.1-0.2-0.2c-0.3-0.2-0.5-0.4-0.7-0.6c-0.1-0.1-0.2-0.2-0.4-0.4c-0.2-0.2-0.3-0.3-0.4-0.5
		c-0.1-0.2-0.3-0.4-0.4-0.6c-0.1-0.1-0.2-0.3-0.3-0.4c-0.1-0.2-0.2-0.5-0.3-0.8c0-0.1-0.1-0.2-0.1-0.4c-0.1-0.4-0.1-0.8-0.1-1.2
		h-3.7c0,3.5-3.3,6.3-7.3,6.3c-4,0-7.3-2.8-7.3-6.3h-3.7c0,3.5-3.3,6.3-7.3,6.3s-7.3-2.8-7.3-6.3H39c0,3.5-3.3,6.3-7.3,6.3
		c-4,0-7.3-2.8-7.3-6.3h-3.7c0,0.4,0,0.8-0.1,1.3c-0.7,2.8-3.6,5-7.1,5h-0.1c-3.9,0-7-2.6-7.2-5.9l8.5-18.8h70.6l8.5,18.8
		C93.6,36,90.5,38.5,86.6,38.6z M79.4,38.8c-0.1-0.1-0.2-0.2-0.3-0.3c-0.3-0.3-0.6-0.6-0.8-0.9c0-0.1-0.1-0.1-0.2-0.2l-0.6-0.9
		l-0.7,0.9c-1.1,1.5-2.7,2.7-4.7,3.5c-0.4,0.1-0.7,0.2-1.1,0.3l-0.1,0c-0.3,0.1-0.6,0.1-0.9,0.2l-0.2,0c-0.1,0-0.1,0-0.2,0
		c-0.4,0-0.9,0.1-1.3,0.1c-3.4,0-6.6-1.5-8.5-4.1l-0.7-0.9l-0.6,0.9c-1.9,2.6-5.1,4.1-8.5,4.1s-6.6-1.5-8.5-4.1l-0.6-0.9l-0.7,0.9
		c-1.9,2.6-5.1,4.1-8.5,4.1c-0.4,0-0.9,0-1.3-0.1c-0.6-0.1-1.2-0.2-1.9-0.4l-0.2-0.1c-0.1,0-0.2-0.1-0.3-0.1
		c-0.2-0.1-0.4-0.2-0.6-0.2L27,40.4c-0.1,0-0.1,0-0.2-0.1c-0.3-0.2-0.6-0.3-0.9-0.5l-0.2-0.1c-0.3-0.2-0.5-0.4-0.8-0.6L24.8,39
		c-0.2-0.2-0.4-0.4-0.6-0.6l-0.1-0.1c0,0-0.1,0-0.1-0.1c-0.1-0.1-0.1-0.2-0.2-0.2l-0.3-0.3c-0.1-0.1-0.2-0.2-0.2-0.3l-0.7-0.9
		L22,37.3c0,0,0,0.1-0.1,0.1l-0.1,0.1c-0.2,0.2-0.3,0.4-0.5,0.5c-0.1,0.1-0.2,0.2-0.4,0.4c-0.1,0.1-0.3,0.2-0.4,0.4
		c-0.1,0.1-0.3,0.2-0.4,0.3c-0.1,0.1-0.3,0.2-0.4,0.3c-0.2,0.1-0.3,0.2-0.5,0.3c-0.2,0.1-0.3,0.2-0.5,0.3l-0.2,0.1
		c-0.1,0.1-0.2,0.1-0.3,0.2c-0.2,0.1-0.3,0.2-0.5,0.2l-0.1,0.1c-0.2,0.1-0.5,0.2-0.7,0.3c-0.2,0.1-0.5,0.2-0.7,0.2
		c-0.1,0-0.2,0-0.3,0.1l-0.4,0.1c-0.1,0-0.2,0-0.3,0.1l-0.7,0.1V87h4V48.4h25.2V87h41V41.3l-0.6-0.1C82.3,40.8,80.7,40,79.4,38.8z
		 M83.9,86.2H44.5V47.6H17.7v38.6h-2.4v-44c0.2,0,0.3-0.1,0.5-0.1c0.2,0,0.4-0.1,0.5-0.1c0.3-0.1,0.5-0.1,0.8-0.2
		c0.3-0.1,0.5-0.2,0.8-0.3c0.2-0.1,0.5-0.2,0.7-0.3c0.2-0.1,0.3-0.2,0.5-0.3c0.2-0.1,0.3-0.2,0.5-0.3c0.2-0.1,0.3-0.2,0.5-0.3
		c0.1-0.1,0.3-0.2,0.5-0.3c0.2-0.1,0.3-0.2,0.5-0.4c0.2-0.1,0.3-0.3,0.4-0.4c0.1-0.1,0.3-0.3,0.4-0.4c0.2-0.2,0.3-0.4,0.5-0.6
		c0.1-0.1,0.1-0.2,0.2-0.2c0.1,0.2,0.3,0.3,0.4,0.5c0.1,0.1,0.2,0.3,0.4,0.5c0.1,0.1,0.2,0.1,0.2,0.2c0.2,0.2,0.5,0.4,0.7,0.7
		c0.1,0,0.1,0.1,0.2,0.1c0.3,0.2,0.5,0.4,0.8,0.6c0.1,0,0.1,0.1,0.2,0.1c0.3,0.2,0.6,0.4,1,0.5c0.1,0.1,0.3,0.1,0.4,0.2
		c0.3,0.1,0.5,0.2,0.8,0.3c0.2,0.1,0.4,0.1,0.6,0.2c0.7,0.2,1.3,0.4,2.1,0.5c0.5,0.1,0.9,0.1,1.4,0.1c3.8,0,7.2-1.8,9.1-4.5
		c2,2.7,5.3,4.5,9.1,4.5s7.2-1.8,9.1-4.5c2,2.7,5.3,4.5,9.1,4.5c0.5,0,0.9,0,1.4-0.1c0.1,0,0.3,0,0.4-0.1c0.3,0,0.7-0.1,1-0.2
		c0,0,0.1,0,0.1,0c0.4-0.1,0.8-0.2,1.2-0.4c0,0,0,0,0.1,0c2-0.8,3.8-2.1,5-3.7c0,0.1,0.1,0.1,0.2,0.2c0.3,0.4,0.6,0.7,0.9,1
		c0.1,0.1,0.2,0.2,0.4,0.3c1.4,1.2,3.1,2.2,5.1,2.6V86.2z M46,74.8h36.5V47.6H46V74.8z M46.8,48.4h34.9V74H46.8V48.4z M48.9,72h30.8
		V50.5H48.9V72z M49.7,51.3h29.2v19.9H49.7V51.3z M87.7,10.2H12.3L2.5,31.9v0.4c0,4.9,4,9,9.2,9.8v47.7h9.7V51.3h19.5v38.6h46.7
		V42.2c5.6-0.5,9.9-4.7,9.9-9.9v-0.4L87.7,10.2z M96.7,32.3c0,4.7-4,8.7-9.2,9.1l-0.7,0.1V89H41.7V50.5H20.6V89h-8.1V41.4l-0.7-0.1
		c-4.9-0.7-8.5-4.5-8.5-9v-0.2L12.8,11h74.3l9.5,21.1V32.3z M14.2,13L5.4,32.5l0,0.2c0.2,3.7,3.8,6.6,8.1,6.7c3.8,0,7.1-2.4,7.9-5.6
		c0-0.2,0.1-0.4,0.1-0.6h2.2c0.5,3.5,3.9,6.3,8,6.3c4.2,0,7.6-2.8,8.1-6.3H42c0.5,3.5,3.9,6.3,8,6.3s7.6-2.8,8-6.3h2.2
		c0.5,3.5,3.9,6.3,8.1,6.3c4.1,0,7.6-2.8,8-6.3h2.2c0,0.2,0.1,0.4,0.1,0.6c0,0.1,0.1,0.2,0.1,0.4c0.1,0.3,0.2,0.6,0.3,0.9
		c0.1,0.1,0.1,0.2,0.2,0.4l0.1,0.2c0.1,0.2,0.2,0.4,0.4,0.6c0.1,0.2,0.3,0.3,0.5,0.6l0.1,0.1c0.1,0.1,0.2,0.2,0.3,0.3
		c0.2,0.2,0.5,0.4,0.9,0.7c0.1,0,0.1,0.1,0.2,0.1c0.3,0.2,0.6,0.4,0.9,0.5l0.3,0.1c0.9,0.4,1.9,0.6,2.9,0.7l0.8,0.1h0
		c4.2,0,7.7-3,8-6.7l0-0.2L85.8,13H14.2z M86.6,38.6l-0.7-0.1c-1-0.1-1.8-0.3-2.6-0.6v0c-0.4-0.2-0.7-0.3-1.1-0.6
		c-0.1,0-0.2-0.1-0.2-0.2c-0.3-0.2-0.5-0.4-0.7-0.6c-0.1-0.1-0.2-0.2-0.4-0.4c-0.2-0.2-0.3-0.3-0.4-0.5c-0.1-0.2-0.3-0.4-0.4-0.6
		c-0.1-0.1-0.2-0.3-0.3-0.4c-0.1-0.2-0.2-0.5-0.3-0.8c0-0.1-0.1-0.2-0.1-0.4c-0.1-0.4-0.1-0.8-0.1-1.2h-3.7c0,3.5-3.3,6.3-7.3,6.3
		c-4,0-7.3-2.8-7.3-6.3h-3.7c0,3.5-3.3,6.3-7.3,6.3s-7.3-2.8-7.3-6.3H39c0,3.5-3.3,6.3-7.3,6.3c-4,0-7.3-2.8-7.3-6.3h-3.7
		c0,0.4,0,0.8-0.1,1.3c-0.7,2.8-3.6,5-7.1,5h-0.1c-3.9,0-7-2.6-7.2-5.9l8.5-18.8h70.6l8.5,18.8C93.6,36,90.5,38.5,86.6,38.6z
		 M79.4,38.8c-0.1-0.1-0.2-0.2-0.3-0.3c-0.3-0.3-0.6-0.6-0.8-0.9c0-0.1-0.1-0.1-0.2-0.2l-0.6-0.9l-0.7,0.9c-1.1,1.5-2.7,2.7-4.7,3.5
		c-0.4,0.1-0.7,0.2-1.1,0.3l-0.1,0c-0.3,0.1-0.6,0.1-0.9,0.2l-0.2,0c-0.1,0-0.1,0-0.2,0c-0.4,0-0.9,0.1-1.3,0.1
		c-3.4,0-6.6-1.5-8.5-4.1l-0.7-0.9l-0.6,0.9c-1.9,2.6-5.1,4.1-8.5,4.1s-6.6-1.5-8.5-4.1l-0.6-0.9l-0.7,0.9c-1.9,2.6-5.1,4.1-8.5,4.1
		c-0.4,0-0.9,0-1.3-0.1c-0.6-0.1-1.2-0.2-1.9-0.4l-0.2-0.1c-0.1,0-0.2-0.1-0.3-0.1c-0.2-0.1-0.4-0.2-0.6-0.2L27,40.4
		c-0.1,0-0.1,0-0.2-0.1c-0.3-0.2-0.6-0.3-0.9-0.5l-0.2-0.1c-0.3-0.2-0.5-0.4-0.8-0.6L24.8,39c-0.2-0.2-0.4-0.4-0.6-0.6l-0.1-0.1
		c0,0-0.1,0-0.1-0.1c-0.1-0.1-0.1-0.2-0.2-0.2l-0.3-0.3c-0.1-0.1-0.2-0.2-0.2-0.3l-0.7-0.9L22,37.3c0,0,0,0.1-0.1,0.1l-0.1,0.1
		c-0.2,0.2-0.3,0.4-0.5,0.5c-0.1,0.1-0.2,0.2-0.4,0.4c-0.1,0.1-0.3,0.2-0.4,0.4c-0.1,0.1-0.3,0.2-0.4,0.3c-0.1,0.1-0.3,0.2-0.4,0.3
		c-0.2,0.1-0.3,0.2-0.5,0.3c-0.2,0.1-0.3,0.2-0.5,0.3l-0.2,0.1c-0.1,0.1-0.2,0.1-0.3,0.2c-0.2,0.1-0.3,0.2-0.5,0.2l-0.1,0.1
		c-0.2,0.1-0.5,0.2-0.7,0.3c-0.2,0.1-0.5,0.2-0.7,0.2c-0.1,0-0.2,0-0.3,0.1l-0.4,0.1c-0.1,0-0.2,0-0.3,0.1l-0.7,0.1V87h4V48.4h25.2
		V87h41V41.3l-0.6-0.1C82.3,40.8,80.7,40,79.4,38.8z M83.9,86.2H44.5V47.6H17.7v38.6h-2.4v-44c0.2,0,0.3-0.1,0.5-0.1
		c0.2,0,0.4-0.1,0.5-0.1c0.3-0.1,0.5-0.1,0.8-0.2c0.3-0.1,0.5-0.2,0.8-0.3c0.2-0.1,0.5-0.2,0.7-0.3c0.2-0.1,0.3-0.2,0.5-0.3
		c0.2-0.1,0.3-0.2,0.5-0.3c0.2-0.1,0.3-0.2,0.5-0.3c0.1-0.1,0.3-0.2,0.5-0.3c0.2-0.1,0.3-0.2,0.5-0.4c0.2-0.1,0.3-0.3,0.4-0.4
		c0.1-0.1,0.3-0.3,0.4-0.4c0.2-0.2,0.3-0.4,0.5-0.6c0.1-0.1,0.1-0.2,0.2-0.2c0.1,0.2,0.3,0.3,0.4,0.5c0.1,0.1,0.2,0.3,0.4,0.5
		c0.1,0.1,0.2,0.1,0.2,0.2c0.2,0.2,0.5,0.4,0.7,0.7c0.1,0,0.1,0.1,0.2,0.1c0.3,0.2,0.5,0.4,0.8,0.6c0.1,0,0.1,0.1,0.2,0.1
		c0.3,0.2,0.6,0.4,1,0.5c0.1,0.1,0.3,0.1,0.4,0.2c0.3,0.1,0.5,0.2,0.8,0.3c0.2,0.1,0.4,0.1,0.6,0.2c0.7,0.2,1.3,0.4,2.1,0.5
		c0.5,0.1,0.9,0.1,1.4,0.1c3.8,0,7.2-1.8,9.1-4.5c2,2.7,5.3,4.5,9.1,4.5s7.2-1.8,9.1-4.5c2,2.7,5.3,4.5,9.1,4.5c0.5,0,0.9,0,1.4-0.1
		c0.1,0,0.3,0,0.4-0.1c0.3,0,0.7-0.1,1-0.2c0,0,0.1,0,0.1,0c0.4-0.1,0.8-0.2,1.2-0.4c0,0,0,0,0.1,0c2-0.8,3.8-2.1,5-3.7
		c0,0.1,0.1,0.1,0.2,0.2c0.3,0.4,0.6,0.7,0.9,1c0.1,0.1,0.2,0.2,0.4,0.3c1.4,1.2,3.1,2.2,5.1,2.6V86.2z M46,74.8h36.5V47.6H46V74.8z
		 M46.8,48.4h34.9V74H46.8V48.4z M48.9,72h30.8V50.5H48.9V72z M49.7,51.3h29.2v19.9H49.7V51.3z M46,47.6v27.2h36.5V47.6H46z
		 M81.7,74H46.8V48.4h34.9V74z M79.7,50.5H48.9V72h30.8V50.5z M78.8,71.2H49.7V51.3h29.2V71.2z M46,47.6v27.2h36.5V47.6H46z
		 M81.7,74H46.8V48.4h34.9V74z M79.7,50.5H48.9V72h30.8V50.5z M78.8,71.2H49.7V51.3h29.2V71.2z"/>
	<path class="st3" d="M48.9,50.5V72h30.8V50.5H48.9z M78,70.4H50.5V52.1H78V70.4z M48.9,50.5V72h30.8V50.5H48.9z M78,70.4H50.5V52.1
		H78V70.4z M84.1,41.2c-1.8-0.4-3.4-1.2-4.7-2.4c-0.1-0.1-0.2-0.2-0.3-0.3c-0.3-0.3-0.6-0.6-0.8-0.9c0-0.1-0.1-0.1-0.2-0.2l-0.6-0.9
		l-0.7,0.9c-1.1,1.5-2.7,2.7-4.7,3.5c-0.4,0.1-0.7,0.2-1.1,0.3l-0.1,0c-0.3,0.1-0.6,0.1-0.9,0.2l-0.2,0c-0.1,0-0.1,0-0.2,0
		c-0.4,0-0.9,0.1-1.3,0.1c-3.4,0-6.6-1.5-8.5-4.1l-0.7-0.9l-0.6,0.9c-1.9,2.6-5.1,4.1-8.5,4.1s-6.6-1.5-8.5-4.1l-0.6-0.9l-0.7,0.9
		c-1.9,2.6-5.1,4.1-8.5,4.1c-0.4,0-0.9,0-1.3-0.1c-0.6-0.1-1.2-0.2-1.9-0.4l-0.2-0.1c-0.1,0-0.2-0.1-0.3-0.1
		c-0.2-0.1-0.4-0.2-0.6-0.2L27,40.4c-0.1,0-0.1,0-0.2-0.1c-0.3-0.2-0.6-0.3-0.9-0.5l-0.2-0.1c-0.3-0.2-0.5-0.4-0.8-0.6L24.8,39
		c-0.2-0.2-0.4-0.4-0.6-0.6l-0.1-0.1c0,0-0.1,0-0.1-0.1c-0.1-0.1-0.1-0.2-0.2-0.2l-0.3-0.3c-0.1-0.1-0.2-0.2-0.2-0.3l-0.7-0.9
		L22,37.3c0,0,0,0.1-0.1,0.1l-0.1,0.1c-0.2,0.2-0.3,0.4-0.5,0.5c-0.1,0.1-0.2,0.2-0.4,0.4c-0.1,0.1-0.3,0.2-0.4,0.4
		c-0.1,0.1-0.3,0.2-0.4,0.3c-0.1,0.1-0.3,0.2-0.4,0.3c-0.2,0.1-0.3,0.2-0.5,0.3c-0.2,0.1-0.3,0.2-0.5,0.3l-0.2,0.1
		c-0.1,0.1-0.2,0.1-0.3,0.2c-0.2,0.1-0.3,0.2-0.5,0.2l-0.1,0.1c-0.2,0.1-0.5,0.2-0.7,0.3c-0.2,0.1-0.5,0.2-0.7,0.2
		c-0.1,0-0.2,0-0.3,0.1l-0.4,0.1c-0.1,0-0.2,0-0.3,0.1l-0.7,0.1V87h4V48.4h25.2V87h41V41.3L84.1,41.2z M46.8,74V48.4h34.9V74H46.8z
		 M83.1,75.6v9.8H45.3v-9.8H83.1z M83.1,46.8H16.9v38.6h-0.8V42.8h0c0.1,0,0.3-0.1,0.4-0.1c0.3-0.1,0.5-0.2,0.8-0.2
		c0.3-0.1,0.6-0.2,0.8-0.3l0.1,0c0.2-0.1,0.4-0.2,0.6-0.3c0.1-0.1,0.3-0.1,0.4-0.2l0.2-0.1c0.2-0.1,0.4-0.2,0.5-0.3
		c0.2-0.1,0.4-0.2,0.6-0.4c0.2-0.1,0.3-0.2,0.5-0.4c0.2-0.1,0.3-0.3,0.5-0.4c0.2-0.2,0.3-0.3,0.5-0.5c0.1-0.1,0.2-0.2,0.4-0.4
		c0-0.1,0.1-0.1,0.1-0.1c0.1,0.1,0.1,0.2,0.2,0.2c0.1,0.1,0.1,0.1,0.2,0.2c0.2,0.2,0.5,0.5,0.7,0.7c0,0,0.1,0.1,0.2,0.2
		c0.3,0.2,0.6,0.5,0.9,0.7c0,0,0.1,0.1,0.2,0.1c0.3,0.2,0.7,0.4,1,0.6c0.1,0,0.2,0.1,0.3,0.1l0.3,0.1c0.2,0.1,0.4,0.2,0.7,0.3
		c0.1,0,0.3,0.1,0.4,0.1l0.2,0.1c0.8,0.2,1.5,0.4,2.2,0.5c0.5,0.1,1,0.1,1.5,0.1c3.6,0,6.9-1.5,9.1-4c2.2,2.5,5.6,4,9.1,4
		c3.6,0,6.9-1.5,9.1-4c2.2,2.5,5.6,4,9.1,4c0.5,0,1,0,1.5-0.1c0.1,0,0.2,0,0.3,0l0.1,0c0.3,0,0.7-0.1,1-0.2l0.1,0
		c0.5-0.1,0.9-0.2,1.2-0.4l0.1,0c1.9-0.7,3.5-1.8,4.7-3.2c0.2,0.2,0.3,0.4,0.5,0.5c0.1,0.1,0.2,0.2,0.4,0.4c1.4,1.2,3,2.1,4.8,2.6
		V46.8z M48.9,72h30.8V50.5H48.9V72z M50.5,52.1H78v18.3H50.5V52.1z M85.8,13H14.2L5.4,32.5l0,0.2c0.2,3.7,3.8,6.6,8.1,6.7
		c3.8,0,7.1-2.4,7.9-5.6c0-0.2,0.1-0.4,0.1-0.6h2.2c0.5,3.5,3.9,6.3,8,6.3c4.2,0,7.6-2.8,8.1-6.3H42c0.5,3.5,3.9,6.3,8,6.3
		s7.6-2.8,8-6.3h2.2c0.5,3.5,3.9,6.3,8.1,6.3c4.1,0,7.6-2.8,8-6.3h2.2c0,0.2,0.1,0.4,0.1,0.6c0,0.1,0.1,0.2,0.1,0.4
		c0.1,0.3,0.2,0.6,0.3,0.9c0.1,0.1,0.1,0.2,0.2,0.4l0.1,0.2c0.1,0.2,0.2,0.4,0.4,0.6c0.1,0.2,0.3,0.3,0.5,0.6l0.1,0.1
		c0.1,0.1,0.2,0.2,0.3,0.3c0.2,0.2,0.5,0.4,0.9,0.7c0.1,0,0.1,0.1,0.2,0.1c0.3,0.2,0.6,0.4,0.9,0.5l0.3,0.1c0.9,0.4,1.9,0.6,2.9,0.7
		l0.8,0.1h0c4.2,0,7.7-3,8-6.7l0-0.2L85.8,13z M86.7,37.8l-0.7-0.1c-0.8-0.1-1.5-0.2-2.2-0.5l-0.1-0.1c-0.3-0.1-0.6-0.3-0.9-0.5
		l-0.2-0.1c-0.2-0.2-0.4-0.3-0.6-0.5c-0.1-0.1-0.2-0.2-0.2-0.2l-0.1-0.2c-0.1-0.1-0.2-0.2-0.3-0.4c-0.1-0.1-0.2-0.3-0.3-0.5
		l-0.1-0.2c0-0.1-0.1-0.1-0.1-0.2c-0.1-0.2-0.2-0.5-0.2-0.7c0-0.1,0-0.1-0.1-0.2c0,0,0-0.1,0-0.1c-0.1-0.3-0.1-0.7-0.1-1v-0.8h-5.3
		v0.8c0,3-2.9,5.5-6.5,5.5c-3.6,0-6.5-2.5-6.5-5.5v-0.8h-5.3v0.8c0,3-2.9,5.5-6.5,5.5s-6.5-2.5-6.5-5.5v-0.8h-5.3v0.8
		c0,3-2.9,5.5-6.5,5.5c-3.6,0-6.5-2.5-6.5-5.5v-0.8l-5.3,0v0.8c0,0.4,0,0.7-0.1,1.1c-0.6,2.5-3.3,4.4-6.4,4.4c-3.3,0-6.1-2.2-6.4-5
		l8.2-18.2h69.6L93,32.8C92.7,35.6,90,37.7,86.7,37.8z M85.8,13H14.2L5.4,32.5l0,0.2c0.2,3.7,3.8,6.6,8.1,6.7c3.8,0,7.1-2.4,7.9-5.6
		c0-0.2,0.1-0.4,0.1-0.6h2.2c0.5,3.5,3.9,6.3,8,6.3c4.2,0,7.6-2.8,8.1-6.3H42c0.5,3.5,3.9,6.3,8,6.3s7.6-2.8,8-6.3h2.2
		c0.5,3.5,3.9,6.3,8.1,6.3c4.1,0,7.6-2.8,8-6.3h2.2c0,0.2,0.1,0.4,0.1,0.6c0,0.1,0.1,0.2,0.1,0.4c0.1,0.3,0.2,0.6,0.3,0.9
		c0.1,0.1,0.1,0.2,0.2,0.4l0.1,0.2c0.1,0.2,0.2,0.4,0.4,0.6c0.1,0.2,0.3,0.3,0.5,0.6l0.1,0.1c0.1,0.1,0.2,0.2,0.3,0.3
		c0.2,0.2,0.5,0.4,0.9,0.7c0.1,0,0.1,0.1,0.2,0.1c0.3,0.2,0.6,0.4,0.9,0.5l0.3,0.1c0.9,0.4,1.9,0.6,2.9,0.7l0.8,0.1h0
		c4.2,0,7.7-3,8-6.7l0-0.2L85.8,13z M86.7,37.8l-0.7-0.1c-0.8-0.1-1.5-0.2-2.2-0.5l-0.1-0.1c-0.3-0.1-0.6-0.3-0.9-0.5l-0.2-0.1
		c-0.2-0.2-0.4-0.3-0.6-0.5c-0.1-0.1-0.2-0.2-0.2-0.2l-0.1-0.2c-0.1-0.1-0.2-0.2-0.3-0.4c-0.1-0.1-0.2-0.3-0.3-0.5l-0.1-0.2
		c0-0.1-0.1-0.1-0.1-0.2c-0.1-0.2-0.2-0.5-0.2-0.7c0-0.1,0-0.1-0.1-0.2c0,0,0-0.1,0-0.1c-0.1-0.3-0.1-0.7-0.1-1v-0.8h-5.3v0.8
		c0,3-2.9,5.5-6.5,5.5c-3.6,0-6.5-2.5-6.5-5.5v-0.8h-5.3v0.8c0,3-2.9,5.5-6.5,5.5s-6.5-2.5-6.5-5.5v-0.8h-5.3v0.8
		c0,3-2.9,5.5-6.5,5.5c-3.6,0-6.5-2.5-6.5-5.5v-0.8l-5.3,0v0.8c0,0.4,0,0.7-0.1,1.1c-0.6,2.5-3.3,4.4-6.4,4.4c-3.3,0-6.1-2.2-6.4-5
		l8.2-18.2h69.6L93,32.8C92.7,35.6,90,37.7,86.7,37.8z M79.4,38.8c-0.1-0.1-0.2-0.2-0.3-0.3c-0.3-0.3-0.6-0.6-0.8-0.9
		c0-0.1-0.1-0.1-0.2-0.2l-0.6-0.9l-0.7,0.9c-1.1,1.5-2.7,2.7-4.7,3.5c-0.4,0.1-0.7,0.2-1.1,0.3l-0.1,0c-0.3,0.1-0.6,0.1-0.9,0.2
		l-0.2,0c-0.1,0-0.1,0-0.2,0c-0.4,0-0.9,0.1-1.3,0.1c-3.4,0-6.6-1.5-8.5-4.1l-0.7-0.9l-0.6,0.9c-1.9,2.6-5.1,4.1-8.5,4.1
		s-6.6-1.5-8.5-4.1l-0.6-0.9l-0.7,0.9c-1.9,2.6-5.1,4.1-8.5,4.1c-0.4,0-0.9,0-1.3-0.1c-0.6-0.1-1.2-0.2-1.9-0.4l-0.2-0.1
		c-0.1,0-0.2-0.1-0.3-0.1c-0.2-0.1-0.4-0.2-0.6-0.2L27,40.4c-0.1,0-0.1,0-0.2-0.1c-0.3-0.2-0.6-0.3-0.9-0.5l-0.2-0.1
		c-0.3-0.2-0.5-0.4-0.8-0.6L24.8,39c-0.2-0.2-0.4-0.4-0.6-0.6l-0.1-0.1c0,0-0.1,0-0.1-0.1c-0.1-0.1-0.1-0.2-0.2-0.2l-0.3-0.3
		c-0.1-0.1-0.2-0.2-0.2-0.3l-0.7-0.9L22,37.3c0,0,0,0.1-0.1,0.1l-0.1,0.1c-0.2,0.2-0.3,0.4-0.5,0.5c-0.1,0.1-0.2,0.2-0.4,0.4
		c-0.1,0.1-0.3,0.2-0.4,0.4c-0.1,0.1-0.3,0.2-0.4,0.3c-0.1,0.1-0.3,0.2-0.4,0.3c-0.2,0.1-0.3,0.2-0.5,0.3c-0.2,0.1-0.3,0.2-0.5,0.3
		l-0.2,0.1c-0.1,0.1-0.2,0.1-0.3,0.2c-0.2,0.1-0.3,0.2-0.5,0.2l-0.1,0.1c-0.2,0.1-0.5,0.2-0.7,0.3c-0.2,0.1-0.5,0.2-0.7,0.2
		c-0.1,0-0.2,0-0.3,0.1l-0.4,0.1c-0.1,0-0.2,0-0.3,0.1l-0.7,0.1V87h4V48.4h25.2V87h41V41.3l-0.6-0.1C82.3,40.8,80.7,40,79.4,38.8z
		 M46.8,74V48.4h34.9V74H46.8z M83.1,75.6v9.8H45.3v-9.8H83.1z M83.1,46.8H16.9v38.6h-0.8V42.8h0c0.1,0,0.3-0.1,0.4-0.1
		c0.3-0.1,0.5-0.2,0.8-0.2c0.3-0.1,0.6-0.2,0.8-0.3l0.1,0c0.2-0.1,0.4-0.2,0.6-0.3c0.1-0.1,0.3-0.1,0.4-0.2l0.2-0.1
		c0.2-0.1,0.4-0.2,0.5-0.3c0.2-0.1,0.4-0.2,0.6-0.4c0.2-0.1,0.3-0.2,0.5-0.4c0.2-0.1,0.3-0.3,0.5-0.4c0.2-0.2,0.3-0.3,0.5-0.5
		c0.1-0.1,0.2-0.2,0.4-0.4c0-0.1,0.1-0.1,0.1-0.1c0.1,0.1,0.1,0.2,0.2,0.2c0.1,0.1,0.1,0.1,0.2,0.2c0.2,0.2,0.5,0.5,0.7,0.7
		c0,0,0.1,0.1,0.2,0.2c0.3,0.2,0.6,0.5,0.9,0.7c0,0,0.1,0.1,0.2,0.1c0.3,0.2,0.7,0.4,1,0.6c0.1,0,0.2,0.1,0.3,0.1l0.3,0.1
		c0.2,0.1,0.4,0.2,0.7,0.3c0.1,0,0.3,0.1,0.4,0.1l0.2,0.1c0.8,0.2,1.5,0.4,2.2,0.5c0.5,0.1,1,0.1,1.5,0.1c3.6,0,6.9-1.5,9.1-4
		c2.2,2.5,5.6,4,9.1,4c3.6,0,6.9-1.5,9.1-4c2.2,2.5,5.6,4,9.1,4c0.5,0,1,0,1.5-0.1c0.1,0,0.2,0,0.3,0l0.1,0c0.3,0,0.7-0.1,1-0.2
		l0.1,0c0.5-0.1,0.9-0.2,1.2-0.4l0.1,0c1.9-0.7,3.5-1.8,4.7-3.2c0.2,0.2,0.3,0.4,0.5,0.5c0.1,0.1,0.2,0.2,0.4,0.4
		c1.4,1.2,3,2.1,4.8,2.6V46.8z M48.9,72h30.8V50.5H48.9V72z M50.5,52.1H78v18.3H50.5V52.1z M88.2,9.4H11.8L1.7,31.7v0.6
		c0,5.1,3.8,9.4,9.2,10.5v47.9h11.3V52.1h17.9v38.6h48.3V42.9c5.7-0.8,9.9-5.3,9.9-10.6v-0.6L88.2,9.4z M96.7,32.3
		c0,4.7-4,8.7-9.2,9.1l-0.7,0.1V89H41.7V50.5H20.6V89h-8.1V41.4l-0.7-0.1c-4.9-0.7-8.5-4.5-8.5-9v-0.2L12.8,11h74.3l9.5,21.1V32.3z
		 M14.2,13L5.4,32.5l0,0.2c0.2,3.7,3.8,6.6,8.1,6.7c3.8,0,7.1-2.4,7.9-5.6c0-0.2,0.1-0.4,0.1-0.6h2.2c0.5,3.5,3.9,6.3,8,6.3
		c4.2,0,7.6-2.8,8.1-6.3H42c0.5,3.5,3.9,6.3,8,6.3s7.6-2.8,8-6.3h2.2c0.5,3.5,3.9,6.3,8.1,6.3c4.1,0,7.6-2.8,8-6.3h2.2
		c0,0.2,0.1,0.4,0.1,0.6c0,0.1,0.1,0.2,0.1,0.4c0.1,0.3,0.2,0.6,0.3,0.9c0.1,0.1,0.1,0.2,0.2,0.4l0.1,0.2c0.1,0.2,0.2,0.4,0.4,0.6
		c0.1,0.2,0.3,0.3,0.5,0.6l0.1,0.1c0.1,0.1,0.2,0.2,0.3,0.3c0.2,0.2,0.5,0.4,0.9,0.7c0.1,0,0.1,0.1,0.2,0.1c0.3,0.2,0.6,0.4,0.9,0.5
		l0.3,0.1c0.9,0.4,1.9,0.6,2.9,0.7l0.8,0.1h0c4.2,0,7.7-3,8-6.7l0-0.2L85.8,13H14.2z M86.7,37.8l-0.7-0.1c-0.8-0.1-1.5-0.2-2.2-0.5
		l-0.1-0.1c-0.3-0.1-0.6-0.3-0.9-0.5l-0.2-0.1c-0.2-0.2-0.4-0.3-0.6-0.5c-0.1-0.1-0.2-0.2-0.2-0.2l-0.1-0.2
		c-0.1-0.1-0.2-0.2-0.3-0.4c-0.1-0.1-0.2-0.3-0.3-0.5l-0.1-0.2c0-0.1-0.1-0.1-0.1-0.2c-0.1-0.2-0.2-0.5-0.2-0.7c0-0.1,0-0.1-0.1-0.2
		c0,0,0-0.1,0-0.1c-0.1-0.3-0.1-0.7-0.1-1v-0.8h-5.3v0.8c0,3-2.9,5.5-6.5,5.5c-3.6,0-6.5-2.5-6.5-5.5v-0.8h-5.3v0.8
		c0,3-2.9,5.5-6.5,5.5s-6.5-2.5-6.5-5.5v-0.8h-5.3v0.8c0,3-2.9,5.5-6.5,5.5c-3.6,0-6.5-2.5-6.5-5.5v-0.8l-5.3,0v0.8
		c0,0.4,0,0.7-0.1,1.1c-0.6,2.5-3.3,4.4-6.4,4.4c-3.3,0-6.1-2.2-6.4-5l8.2-18.2h69.6L93,32.8C92.7,35.6,90,37.7,86.7,37.8z
		 M79.4,38.8c-0.1-0.1-0.2-0.2-0.3-0.3c-0.3-0.3-0.6-0.6-0.8-0.9c0-0.1-0.1-0.1-0.2-0.2l-0.6-0.9l-0.7,0.9c-1.1,1.5-2.7,2.7-4.7,3.5
		c-0.4,0.1-0.7,0.2-1.1,0.3l-0.1,0c-0.3,0.1-0.6,0.1-0.9,0.2l-0.2,0c-0.1,0-0.1,0-0.2,0c-0.4,0-0.9,0.1-1.3,0.1
		c-3.4,0-6.6-1.5-8.5-4.1l-0.7-0.9l-0.6,0.9c-1.9,2.6-5.1,4.1-8.5,4.1s-6.6-1.5-8.5-4.1l-0.6-0.9l-0.7,0.9c-1.9,2.6-5.1,4.1-8.5,4.1
		c-0.4,0-0.9,0-1.3-0.1c-0.6-0.1-1.2-0.2-1.9-0.4l-0.2-0.1c-0.1,0-0.2-0.1-0.3-0.1c-0.2-0.1-0.4-0.2-0.6-0.2L27,40.4
		c-0.1,0-0.1,0-0.2-0.1c-0.3-0.2-0.6-0.3-0.9-0.5l-0.2-0.1c-0.3-0.2-0.5-0.4-0.8-0.6L24.8,39c-0.2-0.2-0.4-0.4-0.6-0.6l-0.1-0.1
		c0,0-0.1,0-0.1-0.1c-0.1-0.1-0.1-0.2-0.2-0.2l-0.3-0.3c-0.1-0.1-0.2-0.2-0.2-0.3l-0.7-0.9L22,37.3c0,0,0,0.1-0.1,0.1l-0.1,0.1
		c-0.2,0.2-0.3,0.4-0.5,0.5c-0.1,0.1-0.2,0.2-0.4,0.4c-0.1,0.1-0.3,0.2-0.4,0.4c-0.1,0.1-0.3,0.2-0.4,0.3c-0.1,0.1-0.3,0.2-0.4,0.3
		c-0.2,0.1-0.3,0.2-0.5,0.3c-0.2,0.1-0.3,0.2-0.5,0.3l-0.2,0.1c-0.1,0.1-0.2,0.1-0.3,0.2c-0.2,0.1-0.3,0.2-0.5,0.2l-0.1,0.1
		c-0.2,0.1-0.5,0.2-0.7,0.3c-0.2,0.1-0.5,0.2-0.7,0.2c-0.1,0-0.2,0-0.3,0.1l-0.4,0.1c-0.1,0-0.2,0-0.3,0.1l-0.7,0.1V87h4V48.4h25.2
		V87h41V41.3l-0.6-0.1C82.3,40.8,80.7,40,79.4,38.8z M46.8,74V48.4h34.9V74H46.8z M83.1,75.6v9.8H45.3v-9.8H83.1z M83.1,46.8H16.9
		v38.6h-0.8V42.8h0c0.1,0,0.3-0.1,0.4-0.1c0.3-0.1,0.5-0.2,0.8-0.2c0.3-0.1,0.6-0.2,0.8-0.3l0.1,0c0.2-0.1,0.4-0.2,0.6-0.3
		c0.1-0.1,0.3-0.1,0.4-0.2l0.2-0.1c0.2-0.1,0.4-0.2,0.5-0.3c0.2-0.1,0.4-0.2,0.6-0.4c0.2-0.1,0.3-0.2,0.5-0.4
		c0.2-0.1,0.3-0.3,0.5-0.4c0.2-0.2,0.3-0.3,0.5-0.5c0.1-0.1,0.2-0.2,0.4-0.4c0-0.1,0.1-0.1,0.1-0.1c0.1,0.1,0.1,0.2,0.2,0.2
		c0.1,0.1,0.1,0.1,0.2,0.2c0.2,0.2,0.5,0.5,0.7,0.7c0,0,0.1,0.1,0.2,0.2c0.3,0.2,0.6,0.5,0.9,0.7c0,0,0.1,0.1,0.2,0.1
		c0.3,0.2,0.7,0.4,1,0.6c0.1,0,0.2,0.1,0.3,0.1l0.3,0.1c0.2,0.1,0.4,0.2,0.7,0.3c0.1,0,0.3,0.1,0.4,0.1l0.2,0.1
		c0.8,0.2,1.5,0.4,2.2,0.5c0.5,0.1,1,0.1,1.5,0.1c3.6,0,6.9-1.5,9.1-4c2.2,2.5,5.6,4,9.1,4c3.6,0,6.9-1.5,9.1-4c2.2,2.5,5.6,4,9.1,4
		c0.5,0,1,0,1.5-0.1c0.1,0,0.2,0,0.3,0l0.1,0c0.3,0,0.7-0.1,1-0.2l0.1,0c0.5-0.1,0.9-0.2,1.2-0.4l0.1,0c1.9-0.7,3.5-1.8,4.7-3.2
		c0.2,0.2,0.3,0.4,0.5,0.5c0.1,0.1,0.2,0.2,0.4,0.4c1.4,1.2,3,2.1,4.8,2.6V46.8z M48.9,72h30.8V50.5H48.9V72z M50.5,52.1H78v18.3
		H50.5V52.1z M48.9,50.5V72h30.8V50.5H48.9z M78,70.4H50.5V52.1H78V70.4z M48.9,50.5V72h30.8V50.5H48.9z M78,70.4H50.5V52.1H78V70.4
		z M84.1,41.2c-1.8-0.4-3.4-1.2-4.7-2.4c-0.1-0.1-0.2-0.2-0.3-0.3c-0.3-0.3-0.6-0.6-0.8-0.9c0-0.1-0.1-0.1-0.2-0.2l-0.6-0.9
		l-0.7,0.9c-1.1,1.5-2.7,2.7-4.7,3.5c-0.4,0.1-0.7,0.2-1.1,0.3l-0.1,0c-0.3,0.1-0.6,0.1-0.9,0.2l-0.2,0c-0.1,0-0.1,0-0.2,0
		c-0.4,0-0.9,0.1-1.3,0.1c-3.4,0-6.6-1.5-8.5-4.1l-0.7-0.9l-0.6,0.9c-1.9,2.6-5.1,4.1-8.5,4.1s-6.6-1.5-8.5-4.1l-0.6-0.9l-0.7,0.9
		c-1.9,2.6-5.1,4.1-8.5,4.1c-0.4,0-0.9,0-1.3-0.1c-0.6-0.1-1.2-0.2-1.9-0.4l-0.2-0.1c-0.1,0-0.2-0.1-0.3-0.1
		c-0.2-0.1-0.4-0.2-0.6-0.2L27,40.4c-0.1,0-0.1,0-0.2-0.1c-0.3-0.2-0.6-0.3-0.9-0.5l-0.2-0.1c-0.3-0.2-0.5-0.4-0.8-0.6L24.8,39
		c-0.2-0.2-0.4-0.4-0.6-0.6l-0.1-0.1c0,0-0.1,0-0.1-0.1c-0.1-0.1-0.1-0.2-0.2-0.2l-0.3-0.3c-0.1-0.1-0.2-0.2-0.2-0.3l-0.7-0.9
		L22,37.3c0,0,0,0.1-0.1,0.1l-0.1,0.1c-0.2,0.2-0.3,0.4-0.5,0.5c-0.1,0.1-0.2,0.2-0.4,0.4c-0.1,0.1-0.3,0.2-0.4,0.4
		c-0.1,0.1-0.3,0.2-0.4,0.3c-0.1,0.1-0.3,0.2-0.4,0.3c-0.2,0.1-0.3,0.2-0.5,0.3c-0.2,0.1-0.3,0.2-0.5,0.3l-0.2,0.1
		c-0.1,0.1-0.2,0.1-0.3,0.2c-0.2,0.1-0.3,0.2-0.5,0.2l-0.1,0.1c-0.2,0.1-0.5,0.2-0.7,0.3c-0.2,0.1-0.5,0.2-0.7,0.2
		c-0.1,0-0.2,0-0.3,0.1l-0.4,0.1c-0.1,0-0.2,0-0.3,0.1l-0.7,0.1V87h4V48.4h25.2V87h41V41.3L84.1,41.2z M46.8,74V48.4h34.9V74H46.8z
		 M83.1,75.6v9.8H45.3v-9.8H83.1z M83.1,46.8H16.9v38.6h-0.8V42.8h0c0.1,0,0.3-0.1,0.4-0.1c0.3-0.1,0.5-0.2,0.8-0.2
		c0.3-0.1,0.6-0.2,0.8-0.3l0.1,0c0.2-0.1,0.4-0.2,0.6-0.3c0.1-0.1,0.3-0.1,0.4-0.2l0.2-0.1c0.2-0.1,0.4-0.2,0.5-0.3
		c0.2-0.1,0.4-0.2,0.6-0.4c0.2-0.1,0.3-0.2,0.5-0.4c0.2-0.1,0.3-0.3,0.5-0.4c0.2-0.2,0.3-0.3,0.5-0.5c0.1-0.1,0.2-0.2,0.4-0.4
		c0-0.1,0.1-0.1,0.1-0.1c0.1,0.1,0.1,0.2,0.2,0.2c0.1,0.1,0.1,0.1,0.2,0.2c0.2,0.2,0.5,0.5,0.7,0.7c0,0,0.1,0.1,0.2,0.2
		c0.3,0.2,0.6,0.5,0.9,0.7c0,0,0.1,0.1,0.2,0.1c0.3,0.2,0.7,0.4,1,0.6c0.1,0,0.2,0.1,0.3,0.1l0.3,0.1c0.2,0.1,0.4,0.2,0.7,0.3
		c0.1,0,0.3,0.1,0.4,0.1l0.2,0.1c0.8,0.2,1.5,0.4,2.2,0.5c0.5,0.1,1,0.1,1.5,0.1c3.6,0,6.9-1.5,9.1-4c2.2,2.5,5.6,4,9.1,4
		c3.6,0,6.9-1.5,9.1-4c2.2,2.5,5.6,4,9.1,4c0.5,0,1,0,1.5-0.1c0.1,0,0.2,0,0.3,0l0.1,0c0.3,0,0.7-0.1,1-0.2l0.1,0
		c0.5-0.1,0.9-0.2,1.2-0.4l0.1,0c1.9-0.7,3.5-1.8,4.7-3.2c0.2,0.2,0.3,0.4,0.5,0.5c0.1,0.1,0.2,0.2,0.4,0.4c1.4,1.2,3,2.1,4.8,2.6
		V46.8z M48.9,72h30.8V50.5H48.9V72z M50.5,52.1H78v18.3H50.5V52.1z M85.8,13H14.2L5.4,32.5l0,0.2c0.2,3.7,3.8,6.6,8.1,6.7
		c3.8,0,7.1-2.4,7.9-5.6c0-0.2,0.1-0.4,0.1-0.6h2.2c0.5,3.5,3.9,6.3,8,6.3c4.2,0,7.6-2.8,8.1-6.3H42c0.5,3.5,3.9,6.3,8,6.3
		s7.6-2.8,8-6.3h2.2c0.5,3.5,3.9,6.3,8.1,6.3c4.1,0,7.6-2.8,8-6.3h2.2c0,0.2,0.1,0.4,0.1,0.6c0,0.1,0.1,0.2,0.1,0.4
		c0.1,0.3,0.2,0.6,0.3,0.9c0.1,0.1,0.1,0.2,0.2,0.4l0.1,0.2c0.1,0.2,0.2,0.4,0.4,0.6c0.1,0.2,0.3,0.3,0.5,0.6l0.1,0.1
		c0.1,0.1,0.2,0.2,0.3,0.3c0.2,0.2,0.5,0.4,0.9,0.7c0.1,0,0.1,0.1,0.2,0.1c0.3,0.2,0.6,0.4,0.9,0.5l0.3,0.1c0.9,0.4,1.9,0.6,2.9,0.7
		l0.8,0.1h0c4.2,0,7.7-3,8-6.7l0-0.2L85.8,13z M86.7,37.8l-0.7-0.1c-0.8-0.1-1.5-0.2-2.2-0.5l-0.1-0.1c-0.3-0.1-0.6-0.3-0.9-0.5
		l-0.2-0.1c-0.2-0.2-0.4-0.3-0.6-0.5c-0.1-0.1-0.2-0.2-0.2-0.2l-0.1-0.2c-0.1-0.1-0.2-0.2-0.3-0.4c-0.1-0.1-0.2-0.3-0.3-0.5
		l-0.1-0.2c0-0.1-0.1-0.1-0.1-0.2c-0.1-0.2-0.2-0.5-0.2-0.7c0-0.1,0-0.1-0.1-0.2c0,0,0-0.1,0-0.1c-0.1-0.3-0.1-0.7-0.1-1v-0.8h-5.3
		v0.8c0,3-2.9,5.5-6.5,5.5c-3.6,0-6.5-2.5-6.5-5.5v-0.8h-5.3v0.8c0,3-2.9,5.5-6.5,5.5s-6.5-2.5-6.5-5.5v-0.8h-5.3v0.8
		c0,3-2.9,5.5-6.5,5.5c-3.6,0-6.5-2.5-6.5-5.5v-0.8l-5.3,0v0.8c0,0.4,0,0.7-0.1,1.1c-0.6,2.5-3.3,4.4-6.4,4.4c-3.3,0-6.1-2.2-6.4-5
		l8.2-18.2h69.6L93,32.8C92.7,35.6,90,37.7,86.7,37.8z M48.9,50.5V72h30.8V50.5H48.9z M78,70.4H50.5V52.1H78V70.4z M48.9,50.5V72
		h30.8V50.5H48.9z M78,70.4H50.5V52.1H78V70.4z M84.1,41.2c-1.8-0.4-3.4-1.2-4.7-2.4c-0.1-0.1-0.2-0.2-0.3-0.3
		c-0.3-0.3-0.6-0.6-0.8-0.9c0-0.1-0.1-0.1-0.2-0.2l-0.6-0.9l-0.7,0.9c-1.1,1.5-2.7,2.7-4.7,3.5c-0.4,0.1-0.7,0.2-1.1,0.3l-0.1,0
		c-0.3,0.1-0.6,0.1-0.9,0.2l-0.2,0c-0.1,0-0.1,0-0.2,0c-0.4,0-0.9,0.1-1.3,0.1c-3.4,0-6.6-1.5-8.5-4.1l-0.7-0.9l-0.6,0.9
		c-1.9,2.6-5.1,4.1-8.5,4.1s-6.6-1.5-8.5-4.1l-0.6-0.9l-0.7,0.9c-1.9,2.6-5.1,4.1-8.5,4.1c-0.4,0-0.9,0-1.3-0.1
		c-0.6-0.1-1.2-0.2-1.9-0.4l-0.2-0.1c-0.1,0-0.2-0.1-0.3-0.1c-0.2-0.1-0.4-0.2-0.6-0.2L27,40.4c-0.1,0-0.1,0-0.2-0.1
		c-0.3-0.2-0.6-0.3-0.9-0.5l-0.2-0.1c-0.3-0.2-0.5-0.4-0.8-0.6L24.8,39c-0.2-0.2-0.4-0.4-0.6-0.6l-0.1-0.1c0,0-0.1,0-0.1-0.1
		c-0.1-0.1-0.1-0.2-0.2-0.2l-0.3-0.3c-0.1-0.1-0.2-0.2-0.2-0.3l-0.7-0.9L22,37.3c0,0,0,0.1-0.1,0.1l-0.1,0.1
		c-0.2,0.2-0.3,0.4-0.5,0.5c-0.1,0.1-0.2,0.2-0.4,0.4c-0.1,0.1-0.3,0.2-0.4,0.4c-0.1,0.1-0.3,0.2-0.4,0.3c-0.1,0.1-0.3,0.2-0.4,0.3
		c-0.2,0.1-0.3,0.2-0.5,0.3c-0.2,0.1-0.3,0.2-0.5,0.3l-0.2,0.1c-0.1,0.1-0.2,0.1-0.3,0.2c-0.2,0.1-0.3,0.2-0.5,0.2l-0.1,0.1
		c-0.2,0.1-0.5,0.2-0.7,0.3c-0.2,0.1-0.5,0.2-0.7,0.2c-0.1,0-0.2,0-0.3,0.1l-0.4,0.1c-0.1,0-0.2,0-0.3,0.1l-0.7,0.1V87h4V48.4h25.2
		V87h41V41.3L84.1,41.2z M46.8,74V48.4h34.9V74H46.8z M83.1,75.6v9.8H45.3v-9.8H83.1z M83.1,46.8H16.9v38.6h-0.8V42.8h0
		c0.1,0,0.3-0.1,0.4-0.1c0.3-0.1,0.5-0.2,0.8-0.2c0.3-0.1,0.6-0.2,0.8-0.3l0.1,0c0.2-0.1,0.4-0.2,0.6-0.3c0.1-0.1,0.3-0.1,0.4-0.2
		l0.2-0.1c0.2-0.1,0.4-0.2,0.5-0.3c0.2-0.1,0.4-0.2,0.6-0.4c0.2-0.1,0.3-0.2,0.5-0.4c0.2-0.1,0.3-0.3,0.5-0.4
		c0.2-0.2,0.3-0.3,0.5-0.5c0.1-0.1,0.2-0.2,0.4-0.4c0-0.1,0.1-0.1,0.1-0.1c0.1,0.1,0.1,0.2,0.2,0.2c0.1,0.1,0.1,0.1,0.2,0.2
		c0.2,0.2,0.5,0.5,0.7,0.7c0,0,0.1,0.1,0.2,0.2c0.3,0.2,0.6,0.5,0.9,0.7c0,0,0.1,0.1,0.2,0.1c0.3,0.2,0.7,0.4,1,0.6
		c0.1,0,0.2,0.1,0.3,0.1l0.3,0.1c0.2,0.1,0.4,0.2,0.7,0.3c0.1,0,0.3,0.1,0.4,0.1l0.2,0.1c0.8,0.2,1.5,0.4,2.2,0.5
		c0.5,0.1,1,0.1,1.5,0.1c3.6,0,6.9-1.5,9.1-4c2.2,2.5,5.6,4,9.1,4c3.6,0,6.9-1.5,9.1-4c2.2,2.5,5.6,4,9.1,4c0.5,0,1,0,1.5-0.1
		c0.1,0,0.2,0,0.3,0l0.1,0c0.3,0,0.7-0.1,1-0.2l0.1,0c0.5-0.1,0.9-0.2,1.2-0.4l0.1,0c1.9-0.7,3.5-1.8,4.7-3.2
		c0.2,0.2,0.3,0.4,0.5,0.5c0.1,0.1,0.2,0.2,0.4,0.4c1.4,1.2,3,2.1,4.8,2.6V46.8z M48.9,72h30.8V50.5H48.9V72z M50.5,52.1H78v18.3
		H50.5V52.1z M48.9,50.5V72h30.8V50.5H48.9z M78,70.4H50.5V52.1H78V70.4z M48.9,50.5V72h30.8V50.5H48.9z M78,70.4H50.5V52.1H78V70.4
		z M85.8,13H14.2L5.4,32.5l0,0.2c0.2,3.7,3.8,6.6,8.1,6.7c3.8,0,7.1-2.4,7.9-5.6c0-0.2,0.1-0.4,0.1-0.6h2.2c0.5,3.5,3.9,6.3,8,6.3
		c4.2,0,7.6-2.8,8.1-6.3H42c0.5,3.5,3.9,6.3,8,6.3s7.6-2.8,8-6.3h2.2c0.5,3.5,3.9,6.3,8.1,6.3c4.1,0,7.6-2.8,8-6.3h2.2
		c0,0.2,0.1,0.4,0.1,0.6c0,0.1,0.1,0.2,0.1,0.4c0.1,0.3,0.2,0.6,0.3,0.9c0.1,0.1,0.1,0.2,0.2,0.4l0.1,0.2c0.1,0.2,0.2,0.4,0.4,0.6
		c0.1,0.2,0.3,0.3,0.5,0.6l0.1,0.1c0.1,0.1,0.2,0.2,0.3,0.3c0.2,0.2,0.5,0.4,0.9,0.7c0.1,0,0.1,0.1,0.2,0.1c0.3,0.2,0.6,0.4,0.9,0.5
		l0.3,0.1c0.9,0.4,1.9,0.6,2.9,0.7l0.8,0.1h0c4.2,0,7.7-3,8-6.7l0-0.2L85.8,13z M86.7,37.8l-0.7-0.1c-0.8-0.1-1.5-0.2-2.2-0.5
		l-0.1-0.1c-0.3-0.1-0.6-0.3-0.9-0.5l-0.2-0.1c-0.2-0.2-0.4-0.3-0.6-0.5c-0.1-0.1-0.2-0.2-0.2-0.2l-0.1-0.2
		c-0.1-0.1-0.2-0.2-0.3-0.4c-0.1-0.1-0.2-0.3-0.3-0.5l-0.1-0.2c0-0.1-0.1-0.1-0.1-0.2c-0.1-0.2-0.2-0.5-0.2-0.7c0-0.1,0-0.1-0.1-0.2
		c0,0,0-0.1,0-0.1c-0.1-0.3-0.1-0.7-0.1-1v-0.8h-5.3v0.8c0,3-2.9,5.5-6.5,5.5c-3.6,0-6.5-2.5-6.5-5.5v-0.8h-5.3v0.8
		c0,3-2.9,5.5-6.5,5.5s-6.5-2.5-6.5-5.5v-0.8h-5.3v0.8c0,3-2.9,5.5-6.5,5.5c-3.6,0-6.5-2.5-6.5-5.5v-0.8l-5.3,0v0.8
		c0,0.4,0,0.7-0.1,1.1c-0.6,2.5-3.3,4.4-6.4,4.4c-3.3,0-6.1-2.2-6.4-5l8.2-18.2h69.6L93,32.8C92.7,35.6,90,37.7,86.7,37.8z"/>
</g>
<path class="st4" d="M86.3,11H13.7c-0.5,0-1,0.3-1.2,0.8L3.3,32.1v0.2c0,4.5,3.6,8.3,8.5,9l0.7,0.1v46.3c0,0.7,0.6,1.4,1.4,1.4h5.4
	c0.7,0,1.4-0.6,1.4-1.4V51.4c0-0.7,0.1-0.9,0.9-0.9h19.3c0.7,0,0.9,0.1,0.9,0.9v36.3c0,0.7,0.6,1.4,1.4,1.4h42.4
	c0.7,0,1.4-0.6,1.4-1.4V41.5l0.7-0.1c5.2-0.4,9.2-4.4,9.2-9.1v-0.2l-9.2-20.3C87.3,11.3,86.8,11,86.3,11z M83.8,87H44.6
	c-0.7,0-0.9-0.1-0.9-0.9V49.8c0-0.7-0.6-1.4-1.4-1.4H19.9c-0.7,0-1.4,0.6-1.4,1.4v36.3c0,0.7-0.2,0.9-0.9,0.9h-2.2
	c-0.7,0-0.9-0.1-0.9-0.9V41.4l0.7-0.1c0.1,0,0.2,0,0.3-0.1l0.4-0.1c0.1,0,0.2,0,0.3-0.1c0.2-0.1,0.5-0.1,0.7-0.2
	c0.2-0.1,0.5-0.2,0.7-0.3l0.1-0.1c0.2-0.1,0.3-0.1,0.5-0.2c0.1,0,0.2-0.1,0.3-0.2l0.2-0.1c0.2-0.1,0.3-0.2,0.5-0.3
	c0.2-0.1,0.3-0.2,0.5-0.3c0.1-0.1,0.3-0.2,0.4-0.3c0.1-0.1,0.3-0.2,0.4-0.3c0.1-0.1,0.3-0.2,0.4-0.4c0.2-0.2,0.3-0.3,0.4-0.4
	c0.2-0.2,0.3-0.4,0.5-0.5l0.1-0.1c0,0,0-0.1,0.1-0.1l0.6-0.9l0.7,0.9c0.1,0.1,0.2,0.2,0.2,0.3l0.3,0.3c0.1,0.1,0.1,0.2,0.2,0.2
	c0,0,0.1,0.1,0.1,0.1l0.1,0.1c0.2,0.2,0.4,0.4,0.6,0.6l0.2,0.1c0.2,0.2,0.5,0.4,0.8,0.6l0.2,0.1c0.3,0.2,0.6,0.3,0.9,0.5
	c0.1,0,0.1,0,0.2,0.1l0.4,0.2c0.2,0.1,0.4,0.2,0.6,0.2c0.1,0,0.2,0.1,0.3,0.1l0.2,0.1c0.7,0.2,1.3,0.4,1.9,0.4
	c0.4,0,0.9,0.1,1.3,0.1c3.4,0,6.6-1.5,8.5-4.1l0.7-0.9l0.6,0.9c1.9,2.6,5.1,4.1,8.5,4.1s6.6-1.5,8.5-4.1l0.6-0.9l0.7,0.9
	c1.9,2.6,5.1,4.1,8.5,4.1c0.4,0,0.9,0,1.3-0.1c0,0,0.1,0,0.2,0l0.2,0c0.3,0,0.6-0.1,0.9-0.2l0.1,0c0.3-0.1,0.7-0.2,1.1-0.3
	c2-0.7,3.6-1.9,4.7-3.5l0.7-0.9l0.6,0.9c0.1,0.1,0.1,0.1,0.2,0.2c0.2,0.3,0.5,0.6,0.8,0.9c0.1,0.1,0.2,0.2,0.3,0.3
	c1.3,1.2,2.9,2,4.7,2.4l0.6,0.1v44.8C84.7,86.9,84.5,87,83.8,87z M94.6,32.7c-0.2,3.7-3.8,6.6-8,6.7h0l-0.8-0.1
	c-1-0.1-2-0.3-2.9-0.7l-0.3-0.1c-0.3-0.1-0.6-0.3-0.9-0.5c-0.1,0-0.1-0.1-0.2-0.1c-0.3-0.2-0.6-0.5-0.9-0.7
	c-0.1-0.1-0.2-0.2-0.3-0.3l-0.1-0.1c-0.2-0.2-0.4-0.4-0.5-0.6c-0.1-0.2-0.7-0.7-1.1-2.1c-0.2-0.6-0.7-1-1.3-1h0
	c-0.6,0-1.1,0.4-1.3,1c-0.9,3-4.1,5.3-7.8,5.3c-3.8,0-6.9-2.2-7.8-5.3c-0.2-0.6-0.7-1-1.3-1l0,0c-0.6,0-1.1,0.4-1.3,1
	c-0.9,3-4.1,5.3-7.8,5.3s-6.9-2.2-7.8-5.3c-0.2-0.6-0.7-1-1.3-1l0,0c-0.6,0-1.1,0.4-1.3,1c-0.9,3-4.1,5.3-7.8,5.3
	c-3.8,0-6.9-2.2-7.8-5.3c-0.2-0.6-0.7-1-1.3-1h0c-0.6,0-1.1,0.4-1.3,1c-0.9,3-4.4,5.3-7.8,5.3c-4.3,0-7.9-3-8.1-6.7l0-0.2l8.5-18.7
	c0.2-0.5,0.7-0.8,1.2-0.8H85c0.5,0,1,0.3,1.2,0.8l8.4,18.7L94.6,32.7z"/>
<path class="st4" d="M46.8,50.4V72c0,1.1,0.9,2,2,2h30.9c1.1,0,2-0.9,2-2V50.4c0-1.1-0.9-2-2-2H48.8C47.7,48.4,46.8,49.3,46.8,50.4z
	 M78.6,72H49.9c-1.1,0-1,0.1-1-1V51.5c0-1.1-0.1-1,1-1h28.8c1.1,0,1-0.1,1,1V71C79.7,72.1,79.8,72,78.6,72z"/>
</svg>
