<?xml version="1.0" encoding="utf-8"?>
<!-- Generator: Adobe Illustrator 21.0.0, SVG Export Plug-In . SVG Version: 6.00 Build 0)  -->
<svg version="1.1" id="Layer_1" xmlns="http://www.w3.org/2000/svg" xmlns:xlink="http://www.w3.org/1999/xlink" x="0px" y="0px"
	 viewBox="0 0 100 100" style="enable-background:new 0 0 100 100;" xml:space="preserve">
<style type="text/css">
	.st0{fill:#FFFFFF;stroke:#99A5D0;stroke-width:2;stroke-linejoin:round;stroke-miterlimit:10;}
	.st1{fill:#99A5D0;}
	.st2{fill:#FFFFFF;}
</style>
<polygon class="st0" points="5,40 5,30.2 50,4.5 95,30.2 95,40 "/>
<path class="st0" d="M5,95.5V89c0-2.9,2.2-5.3,5-5.3l80,0c2.8,0,5,2.4,5,5.3v6.5H5z"/>
<g>
	<line class="st0" x1="13.5" y1="40" x2="13.5" y2="83.1"/>
	<line class="st0" x1="26.5" y1="40" x2="26.5" y2="83.1"/>
</g>
<g>
	<line class="st0" x1="43.5" y1="40" x2="43.5" y2="83.1"/>
	<line class="st0" x1="56.5" y1="40" x2="56.5" y2="83.1"/>
</g>
<g>
	<line class="st0" x1="73.5" y1="40" x2="73.5" y2="83.1"/>
	<line class="st0" x1="86.5" y1="40" x2="86.5" y2="83.1"/>
</g>
<g>
	<path class="st1" d="M49.4,35.7c-0.3,0-0.5-0.2-0.5-0.5v-2.4l-0.4-0.1c-1.4-0.2-2.8-0.6-3.6-1.2c-0.2-0.1-0.2-0.3-0.1-0.5l0.7-1.9
		c0-0.1,0.2-0.2,0.3-0.3c0.1,0,0.1,0,0.1,0c0.1,0,0.2,0,0.2,0.1c1.1,0.7,2.5,1.1,3.8,1.1c1.7,0,2.8-0.9,2.8-2.3
		c0-1.2-0.8-2.1-2.9-2.9c-2.5-1-4.9-2.3-4.9-5.2c0-2.3,1.4-4.1,3.8-4.8l0.4-0.1v-2.4c0-0.3,0.2-0.5,0.5-0.5h1.7
		c0.3,0,0.5,0.2,0.5,0.5v2.3l0.4,0.1c1.1,0.1,2.1,0.4,3,1c0.2,0.1,0.3,0.3,0.2,0.5l-0.7,1.8c0,0.1-0.1,0.2-0.3,0.3c0,0-0.1,0-0.1,0
		c-0.1,0-0.2,0-0.3-0.1c-0.4-0.2-1.5-0.9-3.3-0.9c-2.4,0-2.5,1.6-2.5,1.9c0,1.1,0.7,1.7,3.2,2.8c2.1,0.9,4.6,2.3,4.6,5.5
		c0,2.4-1.5,4.3-4,5l-0.4,0.1v2.5c0,0.3-0.2,0.5-0.5,0.5H49.4z"/>
	<path class="st2" d="M51.3,12.5v1.8v0.9l0.9,0.1c1,0.1,1.9,0.4,2.7,0.9l-0.7,1.7c-0.4-0.3-1.6-0.9-3.5-0.9c-2.2,0-3,1.3-3,2.4
		c0,1.5,1.1,2.2,3.5,3.2c3,1.2,4.3,2.7,4.3,5c0,2.2-1.4,3.9-3.6,4.5l-0.7,0.2v0.8v2.1l-1.7,0v-1.9v-0.9l-0.9-0.1
		c-1.3-0.2-2.6-0.6-3.3-1.1l0.6-1.8c1.1,0.7,2.6,1.2,4,1.2c2,0,3.3-1.1,3.3-2.8c0-1.4-0.9-2.4-3.2-3.3c-2.4-0.9-4.5-2.2-4.5-4.8
		c0-2.1,1.3-3.7,3.5-4.3l0.7-0.2v-0.8v-2H51.3 M54.3,17.9L54.3,17.9C54.3,17.9,54.3,17.9,54.3,17.9L54.3,17.9 M45.9,29.3L45.9,29.3
		L45.9,29.3 M51.3,11.5h-1.7c-0.5,0-1,0.4-1,1v2c-2.6,0.7-4.2,2.7-4.2,5.3c0,3.2,2.6,4.7,5.2,5.7c2.2,0.9,2.5,1.7,2.5,2.4
		c0,1.1-1,1.8-2.3,1.8c-1.2,0-2.5-0.4-3.5-1c-0.2-0.1-0.3-0.2-0.5-0.2c-0.1,0-0.2,0-0.3,0.1c-0.3,0.1-0.5,0.3-0.6,0.6l-0.6,1.9
		c-0.2,0.4,0,0.8,0.3,1.1c1,0.7,2.4,1.2,3.9,1.3v1.9c0,0.5,0.4,1,1,1h1.8c0.5,0,1-0.4,1-1v-2.1c2.7-0.7,4.4-2.9,4.4-5.5
		c0-3.5-2.6-5-4.9-6c-2.4-1-2.8-1.5-2.8-2.3c0-0.3,0.1-1.4,2-1.4c1.6,0,2.6,0.6,3,0.8c0.2,0.1,0.3,0.1,0.5,0.1c0.1,0,0.2,0,0.3-0.1
		c0.3-0.1,0.5-0.3,0.6-0.6l0.7-1.8c0.2-0.4,0-0.9-0.4-1.1c-0.9-0.6-2-0.9-3.2-1v-1.8C52.3,11.9,51.9,11.5,51.3,11.5L51.3,11.5z"/>
</g>
</svg>
