<?xml version="1.0" encoding="utf-8"?>
<!-- Generator: Adobe Illustrator 21.1.0, SVG Export Plug-In . SVG Version: 6.00 Build 0)  -->
<svg version="1.1" id="Layer_1" xmlns="http://www.w3.org/2000/svg" xmlns:xlink="http://www.w3.org/1999/xlink" x="0px" y="0px"
	 viewBox="0 0 100 100" style="enable-background:new 0 0 100 100;" xml:space="preserve">
<style type="text/css">
	.st0{fill:#FFFFFF;}
</style>
<g id="XMLID_291_">
	<g id="MK_Logo">
		<g id="XMLID_302_">
			<g id="XMLID_329_">
				<g id="XMLID_330_">
					<path class="st0" d="M36.6,54.1V56c-0.4,0.4-0.8,0.8-1.1,1.1c0,0,0,0-0.1,0h-0.9l0,0c0.7-0.7,1.3-1.3,2-2c-0.5-0.5-1-1-1.5-1.5
						c0,0-2.4,2.4-2.8,2.8c0,0,0,0-0.1,0h-3c0,0,0,0-0.1,0c-0.1-0.1-0.2-0.2-0.3-0.3c0,0,0,0,0-0.1l0.3-0.3c0,0,0,0,0.1,0h2.7h0.1
						c1-1,3-3.1,3-3.1C35.6,53,36.1,53.6,36.6,54.1z"/>
				</g>
			</g>
			<g id="XMLID_326_">
				<g id="XMLID_327_">
					<path class="st0" d="M36.6,52.1v1c-0.7-0.7-1.4-1.4-1.5-1.5l0,0l0,0l-3.5,3.5c0,0,0,0-0.1,0h-1l0,0c0.7-0.7,4.4-4.4,4.5-4.5
						C35.1,50.6,35.7,51.3,36.6,52.1z"/>
				</g>
			</g>
			<g id="XMLID_306_">
				<g id="XMLID_324_">
					<path class="st0" d="M35.1,60.4c0,0,0.7-0.7,1.5-1.5v1c-0.8,0.9-1.5,1.5-1.5,1.5s-3.7-3.7-4.5-4.5l0,0l0,0h0.9l0,0
						C31.6,57,35.1,60.4,35.1,60.4z"/>
				</g>
			</g>
			<g id="XMLID_303_">
				<g id="XMLID_304_">
					<path class="st0" d="M36.6,56.9v1c-0.8,0.8-1.5,1.5-1.5,1.5c-0.8-0.8-1.6-1.6-2.5-2.4c0,0,1.3-1.3,2-2c0,0,0,0,0.1,0
						c0.3,0,0.9,0,0.9,0c-0.7,0.7-1.4,1.4-2,2c0.5,0.5,1,1,1.5,1.5C35.1,58.4,35.8,57.7,36.6,56.9z"/>
				</g>
			</g>
		</g>
	</g>
	<path class="st0" d="M15.3,50.6v14c0,0.8,0.6,1.4,1.4,1.4h19.9v1.4H16.7c-1.6,0-2.8-1.3-2.8-2.8v-14c0-1.6,1.3-2.8,2.9-2.8h19.8
		v1.4H16.8C16,49.2,15.3,49.8,15.3,50.6z"/>
	<path class="st0" d="M29,51.2c0,0.4-0.3,0.7-0.7,0.7h-11c-0.4,0-0.7-0.3-0.7-0.7s0.3-0.7,0.7-0.7h11C28.7,50.5,29,50.8,29,51.2z"/>
	<path class="st0" d="M23.6,53.7c0,0.4-0.2,0.6-0.6,0.7h-0.1h-5.5c-0.4,0-0.7-0.3-0.7-0.7S17,53,17.4,53h5.5H23
		C23.4,53,23.6,53.3,23.6,53.7z"/>
	<path class="st0" d="M22.6,64c0,0.4-0.3,0.7-0.7,0.7h-4.5c-0.4,0-0.7-0.3-0.7-0.7c0-0.4,0.3-0.7,0.7-0.7h4.5
		C22.3,63.2,22.6,63.6,22.6,64z"/>
	<path class="st0" d="M36.1,63.2h0.4v1.4h-0.4c-0.4,0-0.7-0.3-0.7-0.7C35.4,63.6,35.7,63.2,36.1,63.2z"/>
	<path class="st0" d="M35.1,64c0,0.4-0.3,0.7-0.7,0.7H30c-0.4,0-0.7-0.3-0.7-0.7c0-0.4,0.3-0.7,0.7-0.7h4.4
		C34.7,63.2,35.1,63.6,35.1,64z"/>
	<path class="st0" d="M28.8,64c0,0.4-0.3,0.7-0.7,0.7h-4.5c-0.2,0-0.5-0.1-0.6-0.3c-0.1-0.1-0.1-0.3-0.1-0.4s0-0.3,0.1-0.4
		c0.1-0.2,0.3-0.3,0.6-0.3h4.5C28.5,63.2,28.8,63.6,28.8,64z"/>
</g>
<path class="st0" d="M69.6,38.1H53.7V27.5h6.2c0.6,0,1-0.5,1-1v-4c0-0.5-0.5-1-1-1H48.7c-0.6,0-1,0.5-1,1v15.6H30.2
	c-4.9,0-8.9,3.8-9.2,8.7h2c0-0.1,0-0.1,0-0.2c0-0.1,0-0.2,0-0.2v-0.1c0-0.1,0-0.1,0-0.2l0,0l0,0c0-0.1,0-0.2,0-0.2
	c0-0.1,0-0.2,0.1-0.4c0-0.2,0.1-0.4,0.2-0.5c0-0.1,0-0.1,0.1-0.2c0.1-0.1,0.1-0.3,0.2-0.4c0.1-0.3,0.3-0.6,0.5-0.9v-0.1
	c0.1-0.1,0.2-0.3,0.3-0.4c0.1-0.1,0.1-0.1,0.2-0.2c0.2-0.3,0.5-0.5,0.8-0.8c0.1-0.1,0.1-0.1,0.2-0.1l0,0c0.1-0.1,0.2-0.1,0.2-0.2
	l0,0c0.1-0.1,0.2-0.2,0.3-0.2c0,0,0,0,0.1,0c0.1-0.1,0.2-0.1,0.3-0.2c0.2-0.1,0.4-0.2,0.6-0.3c0.1,0,0.2-0.1,0.3-0.1
	c0.2-0.1,0.3-0.1,0.5-0.2c0.2-0.1,0.4-0.1,0.6-0.2c0.2,0,0.5-0.1,0.7-0.1s0.5,0,0.7,0h0.2c4,0,7.2,3.2,7.2,7.2v21.1H21v1
	c0,0.6,0.5,1,1,1h55.7c0.5,0,1-0.5,1-1V47.3C78.8,42.2,74.6,38.1,69.6,38.1z M49.7,24c0-0.3,0.2-0.5,0.5-0.5h8.2
	c0.3,0,0.5,0.2,0.5,0.5v1c0,0.3-0.2,0.5-0.5,0.5h-5.7c-0.6,0-1,0.5-1,1v19.8c0,0.3-0.2,0.5-0.5,0.5h-1c-0.3,0-0.5-0.2-0.5-0.5V24z
	 M76.8,68.4H39.6V47.3c0-2.9-1.3-5.5-3.5-7.2h11.5v7.7c0,0.6,0.4,1,1,1h4c0.5,0,1-0.5,1-1v-7.7h15.9c4,0,7.2,3.2,7.2,7.2v21.1H76.8z
	"/>
</svg>
