<?xml version="1.0" encoding="utf-8"?>
<!-- Generator: Adobe Illustrator 21.1.0, SVG Export Plug-In . SVG Version: 6.00 Build 0)  -->
<svg version="1.1" id="Layer_1" xmlns="http://www.w3.org/2000/svg" xmlns:xlink="http://www.w3.org/1999/xlink" x="0px" y="0px"
	 viewBox="0 0 100 100" style="enable-background:new 0 0 100 100;" xml:space="preserve">
<style type="text/css">
	.st0{fill:#FFFFFF;}
</style>
<g>
	<path class="st0" d="M59.3,25H31.6c-0.7,0-1.2,0.5-1.2,1.2v47.6c0,0.7,0.5,1.2,1.2,1.2h36.9c0.7,0,1.2-0.5,1.2-1.2V35.3L59.3,25z
		 M60.5,34.1v-4.9l5,4.9H60.5z M32.8,72.6V27.4H58v8c0,0.7,0.5,1.2,1.2,1.2h8v36C67.2,72.6,32.8,72.6,32.8,72.6z"/>
	<path class="st0" d="M61.7,51.7H38.4c-0.7,0-1.2,0.5-1.2,1.2s0.5,1.2,1.2,1.2h23.2c0.7,0,1.3-0.5,1.3-1.2S62.4,51.7,61.7,51.7z"/>
	<path class="st0" d="M61.7,58.3H38.4c-0.7,0-1.2,0.5-1.2,1.2s0.5,1.2,1.2,1.2h23.2c0.7,0,1.3-0.5,1.3-1.2S62.4,58.3,61.7,58.3z"/>
	<path class="st0" d="M61.7,45.2H38.4c-0.7,0-1.2,0.5-1.2,1.2s0.5,1.2,1.2,1.2h23.2c0.7,0,1.3-0.6,1.3-1.2
		C62.9,45.7,62.4,45.2,61.7,45.2z"/>
	<path class="st0" d="M50,65.2H38.4c-0.7,0-1.2,0.5-1.2,1.2s0.5,1.2,1.2,1.2H50c0.7,0,1.2-0.5,1.2-1.2S50.7,65.2,50,65.2z"/>
	<path class="st0" d="M37.8,34.3c-0.3,0.3-0.5,0.8-0.5,1.4c0,0.9,0.3,1.6,0.8,2c0.5,0.5,1.2,0.8,2.2,0.8c0.8,0,1.5-0.2,2.2-0.8
		c0.5-0.5,0.8-1.2,0.8-2c0-0.5-0.1-0.9-0.5-1.4c-0.2-0.2-0.5-0.5-0.8-0.6c0.3-0.2,0.5-0.5,0.6-0.7c0.2-0.3,0.3-0.8,0.3-1.2
		c0-0.8-0.2-1.4-0.7-1.9c-0.4-0.4-1.2-0.7-2-0.7s-1.4,0.2-2,0.7c-0.5,0.4-0.8,1.1-0.8,1.9c0,0.5,0.1,0.8,0.3,1.2
		c0.2,0.3,0.4,0.5,0.6,0.7C38.2,33.9,38,34,37.8,34.3z M40.1,34.4c0.5,0,0.8,0.1,1,0.3c0.3,0.3,0.4,0.6,0.4,1c0,0.5-0.1,0.7-0.4,0.9
		c0,0,0,0-0.1,0c-0.2,0.2-0.5,0.3-1,0.3s-0.8-0.1-1.1-0.4c-0.2-0.1-0.3-0.4-0.3-0.9s0.1-0.8,0.3-1S39.6,34.4,40.1,34.4z M39.4,30.8
		c0.2-0.3,0.6-0.3,0.8-0.3c0.3,0,0.6,0.2,0.8,0.3c0.2,0.2,0.3,0.5,0.3,0.9s-0.1,0.6-0.4,0.9c-0.2,0.3-0.6,0.3-0.8,0.3
		c-0.4,0-0.6-0.1-0.9-0.4C39.1,32.4,39,32,39,31.8C39,31.4,39.1,31.1,39.4,30.8z"/>
	<path class="st0" d="M47,38.4c1,0,1.8-0.3,2.2-1c0.4-0.6,0.6-1.6,0.6-2.9V33c0-1.4-0.4-2.3-0.7-2.8c-0.4-0.7-1.2-1-2.2-1
		s-1.8,0.3-2.2,1c-0.4,0.6-0.6,1.6-0.6,2.9v1.4c0,1.4,0.4,2.3,0.7,2.8C45.2,38,46,38.4,47,38.4z M45.5,34.6v-1.7
		c0-0.9,0.1-1.4,0.4-1.8c0.2-0.3,0.5-0.5,1-0.5c0.4,0,0.7,0.2,1,0.5c0.2,0.3,0.4,0.9,0.4,1.9v1.8c0,0.9-0.1,1.4-0.3,1.8
		c-0.3,0.3-0.6,0.5-1,0.5s-0.7-0.2-1-0.6C45.7,36.1,45.5,35.5,45.5,34.6z"/>
	<path class="st0" d="M51.3,31.9l1.9-0.7V38c0,0.1,0.1,0.2,0.2,0.2h1.1c0.1,0,0.2-0.1,0.2-0.2v-8.6c0-0.1-0.1-0.2-0.2-0.2h-0.2h-0.1
		l-3.1,1.2c-0.1,0-0.2,0.1-0.2,0.2v1c0,0.1,0,0.2,0.1,0.2C51.1,32,51.2,32,51.3,31.9z"/>
</g>
</svg>
