<?xml version="1.0" encoding="utf-8"?>
<!-- Generator: Adobe Illustrator 21.1.0, SVG Export Plug-In . SVG Version: 6.00 Build 0)  -->
<svg version="1.1" id="Layer_1" xmlns="http://www.w3.org/2000/svg" xmlns:xlink="http://www.w3.org/1999/xlink" x="0px" y="0px"
	 viewBox="0 0 100 100" style="enable-background:new 0 0 100 100;" xml:space="preserve">
<style type="text/css">
	.st0{fill:#FFFFFF;}
</style>
<g id="XMLID_597_">
	<g id="XMLID_602_">
		<path id="XMLID_629_" class="st0" d="M31.2,56.7l-2.1,0.4c-0.2,0-0.4,0.1-0.4-0.2c0-0.1,0-0.2,0.1-0.3c0.3-0.1,0.3-0.2,0.2-0.5
			l-0.8-4.4c0-0.1,0-0.4-0.2-0.4c-0.2,0-0.3,0-0.4-0.2c0-0.2,0.2-0.3,0.3-0.3l2.2-0.4L31.2,56.7z M30.5,50.3
			c1.4-0.3,2.8,0.5,3.3,2.7c0.4,2-0.8,3.4-2.2,3.6l-0.1-0.5c0.5-0.2,0.4-0.6,0.4-1l-0.6-3.6c-0.1-0.3-0.2-0.8-0.7-0.8L30.5,50.3z"/>
		<path id="XMLID_624_" class="st0" d="M34.1,49.7l2.2-0.4l1.1,6.3L35.2,56c0,0-0.3,0-0.4-0.2c0-0.1,0-0.2,0.1-0.3
			c0.3-0.1,0.3-0.2,0.2-0.5l-0.8-4.4c-0.1-0.3-0.1-0.4-0.4-0.4c-0.1,0-0.2-0.1-0.2-0.2C33.8,49.8,34,49.7,34.1,49.7z M36.7,49.2
			l1.9-0.3l0.3,1.7c0,0,0,0.2-0.2,0.2c-0.1,0-0.2-0.1-0.3-0.2c-0.3-0.6-0.8-1-1.6-1L36.7,49.2z M37.2,52c0.3-0.2,0.4-0.5,0.5-0.8
			c0-0.2,0-0.3,0.2-0.3c0.3,0,0.3,0.3,0.3,0.3l0.3,1.8c0,0.1,0.1,0.4-0.2,0.4c-0.2,0-0.3-0.1-0.3-0.2c-0.1-0.3-0.3-0.6-0.7-0.6
			L37.2,52z M37.7,55c0.7-0.2,1.1-0.8,1.2-1.5c0-0.1,0.1-0.3,0.2-0.3c0.3,0,0.3,0.2,0.3,0.2l0.3,1.7l-1.9,0.3L37.7,55z"/>
		<path id="XMLID_620_" class="st0" d="M43,54.7c-1.9,0.3-3-1-3.3-2.7c-0.3-1.9,0.5-3.5,2.1-3.9l0.1,0.5c-0.4,0.2-0.5,0.5-0.4,0.9
			l0.7,4c0.1,0.4,0.3,0.7,0.7,0.7L43,54.7z M42.2,48.1c0.3,0,1,0.2,1.2,0.1c0.1,0,0.2-0.1,0.2-0.2c0-0.1,0.1-0.2,0.2-0.2
			c0.3,0,0.3,0.2,0.3,0.3l0.3,1.9c0,0,0.1,0.3-0.2,0.4c-0.2,0-0.3-0.1-0.4-0.2c-0.3-0.7-0.8-1.5-1.6-1.5L42.2,48.1z M44.7,52.4
			c0.2,0,0.3,0.1,0.3,0.2c0.1,0.7-0.7,1.9-1.6,2l-0.1-0.5c0.6-0.3,1.1-0.8,1.2-1.4C44.5,52.6,44.5,52.4,44.7,52.4z"/>
		<path id="XMLID_617_" class="st0" d="M48.5,53.6L46.2,54c0,0-0.3,0-0.4-0.2c0-0.1,0-0.2,0.1-0.3c0.3-0.1,0.3-0.2,0.2-0.5l-0.8-4.4
			c-0.1-0.3-0.1-0.4-0.4-0.4c-0.1,0-0.2-0.1-0.2-0.2c0-0.2,0.2-0.3,0.3-0.3l2.4-0.4c0,0,0.3,0,0.4,0.2c0,0.1,0,0.2-0.1,0.3
			c-0.3,0.1-0.3,0.2-0.2,0.5L48.5,53.6z M48.7,53.1c0.7-0.2,0.9-0.9,1-1.7c0-0.2,0.1-0.3,0.3-0.3c0.2,0,0.2,0.1,0.3,0.3l0.3,1.9
			l-1.8,0.3L48.7,53.1z"/>
		<path id="XMLID_615_" class="st0" d="M53.3,51.8c0.1,0.3,0.1,0.4,0.4,0.4c0.1,0,0.2,0.1,0.2,0.2c0,0.2-0.2,0.3-0.3,0.3l-2.4,0.4
			c0,0-0.3,0-0.4-0.2c0-0.1,0-0.2,0.1-0.3c0.3-0.1,0.3-0.2,0.2-0.5l-0.8-4.4c-0.1-0.3-0.1-0.4-0.4-0.4c-0.1,0-0.2-0.1-0.2-0.2
			c0-0.2,0.2-0.3,0.3-0.3l2.4-0.4c0,0,0.3,0,0.4,0.2c0,0.1,0,0.2-0.1,0.3c-0.3,0.1-0.3,0.2-0.2,0.5L53.3,51.8z"/>
		<path id="XMLID_611_" class="st0" d="M54.5,47.7L54.5,47.7l0.6,0.8l0.4,2.5c0.3,1,0.8,0.6,0.9,1c0,0.3-0.3,0.3-0.4,0.3l-1,0.2
			c-0.1,0-0.4,0.1-0.5-0.2c-0.1-0.4,0.5-0.1,0.5-1.2L54.5,47.7z M59.3,49.6l0.4,2l-1.3,0.2l-4-4.8c-0.2-0.2-0.2-0.3-0.5-0.4
			c-0.2,0-0.3,0-0.3-0.2c0-0.3,0.2-0.3,0.4-0.3l2.2-0.4L59.3,49.6z M58.4,47c-0.2-1.2-0.8-0.8-0.9-1.1c0-0.2,0.2-0.3,0.3-0.3
			l1.1-0.2c0.1,0,0.4,0,0.4,0.2c0.1,0.4-0.7,0.2-0.5,1.4l0.4,2l0,0l-0.6-0.8L58.4,47z"/>
		<path id="XMLID_606_" class="st0" d="M60.2,45.1l2.2-0.4l1.1,6.3l-2.2,0.4c0,0-0.3,0-0.4-0.2c0-0.1,0-0.2,0.1-0.3
			c0.3-0.1,0.3-0.2,0.2-0.5L60.5,46c-0.1-0.3-0.1-0.4-0.4-0.4c-0.1,0-0.2-0.1-0.2-0.2C59.9,45.1,60.2,45.1,60.2,45.1z M62.8,44.6
			l1.9-0.3L65,46c0,0,0,0.2-0.2,0.2c-0.1,0-0.2-0.1-0.3-0.2c-0.3-0.6-0.8-1-1.6-1L62.8,44.6z M63.3,47.4c0.3-0.2,0.4-0.5,0.5-0.8
			c0-0.2,0-0.3,0.2-0.3c0.3,0,0.3,0.3,0.3,0.3l0.3,1.8c0,0.1,0.1,0.4-0.2,0.4c-0.2,0-0.3-0.1-0.3-0.2c-0.1-0.3-0.3-0.6-0.7-0.6
			L63.3,47.4z M63.8,50.4c0.7-0.2,1.1-0.8,1.2-1.5c0-0.1,0.1-0.3,0.2-0.3c0.3,0,0.3,0.2,0.3,0.2l0.3,1.7l-1.9,0.3L63.8,50.4z"/>
		<path id="XMLID_603_" class="st0" d="M69,50l-2.1,0.4c-0.2,0-0.4,0.1-0.4-0.2c0-0.1,0-0.2,0.1-0.3c0.3-0.1,0.3-0.2,0.2-0.5L66,45
			c0-0.1,0-0.4-0.2-0.4c-0.2,0-0.3,0-0.4-0.2c0-0.2,0.2-0.3,0.3-0.3l2.2-0.4L69,50z M68.2,43.6c1.4-0.3,2.8,0.5,3.3,2.7
			c0.4,2-0.8,3.4-2.2,3.6l-0.1-0.5c0.5-0.2,0.4-0.6,0.4-1L69,44.9c-0.1-0.3-0.2-0.8-0.7-0.8L68.2,43.6z"/>
	</g>
	<g id="XMLID_600_">
		
			<rect id="XMLID_601_" x="26" y="55.2" transform="matrix(0.9847 -0.1745 0.1745 0.9847 -9.0346 9.7805)" class="st0" width="50.2" height="2.2"/>
	</g>
	<g id="XMLID_598_">
		
			<rect id="XMLID_599_" x="23.8" y="42.6" transform="matrix(0.9847 -0.1745 0.1745 0.9847 -6.8784 9.1998)" class="st0" width="50.2" height="2.2"/>
	</g>
</g>
</svg>
