<?xml version="1.0" encoding="utf-8"?>
<!-- Generator: Adobe Illustrator 21.0.0, SVG Export Plug-In . SVG Version: 6.00 Build 0)  -->
<svg version="1.1" id="logo" xmlns="http://www.w3.org/2000/svg" xmlns:xlink="http://www.w3.org/1999/xlink" x="0px" y="0px"
	 viewBox="0 0 30 30" style="enable-background:new 0 0 30 30;" xml:space="preserve">
<style type="text/css">
	.st0{fill:#0CAA41;}
</style>
<path class="st0" d="M0,0v30h30V0H0z M22.8,23.6c0,0.9-0.4,1.7-1,2.3c-0.6,0.6-1.4,1-2.3,1H9.7c-0.9,0-1.7-0.4-2.3-1
	c-0.6-0.6-1-1.4-1-2.3h13.1V10.1c0-0.1,0.1-0.1,0.1-0.1h3c0.1,0,0.1,0.1,0.1,0.1V23.6z M9.7,7.1v13.5c0,0.1-0.1,0.1-0.1,0.1h-3
	c-0.1,0-0.1,0-0.1-0.1V7.1c0-0.9,0.4-1.7,1-2.3c0.6-0.6,1.4-1,2.3-1h9.8c1.8,0,3.3,1.5,3.3,3.3H9.7z"/>
</svg>
