<?xml version="1.0" encoding="utf-8"?>
<!-- Generator: Adobe Illustrator 21.0.0, SVG Export Plug-In . SVG Version: 6.00 Build 0)  -->
<svg version="1.1" id="Layer_1" xmlns="http://www.w3.org/2000/svg" xmlns:xlink="http://www.w3.org/1999/xlink" x="0px" y="0px"
	 viewBox="0 0 100 100" style="enable-background:new 0 0 100 100;" xml:space="preserve">
<style type="text/css">
	.st0{fill:#99A5D0;stroke:#FFFFFF;stroke-width:1.85;stroke-linecap:round;stroke-linejoin:round;stroke-miterlimit:10;}
	.st1{fill:#99A5D0;stroke:#FFFFFF;stroke-width:1.15;stroke-linecap:round;stroke-linejoin:round;stroke-miterlimit:10;}
</style>
<g>
	<g>
		<path class="st0" d="M77.3,54.7c-5.3,0-9.6,4.3-9.6,9.6c0,5.3,4.3,9.6,9.6,9.6c5.3,0,9.6-4.3,9.6-9.6
			C86.9,59.1,82.6,54.7,77.3,54.7z M77.3,70.1c-3.2,0-5.8-2.6-5.8-5.8c0-3.2,2.6-5.8,5.8-5.8c3.2,0,5.8,2.6,5.8,5.8
			C83.1,67.5,80.5,70.1,77.3,70.1z"/>
	</g>
</g>
<g>
	<g>
		<path class="st0" d="M22,54.7c-5.3,0-9.6,4.3-9.6,9.6c0,5.3,4.3,9.6,9.6,9.6s9.6-4.3,9.6-9.6C31.6,59.1,27.3,54.7,22,54.7z
			 M22,70.1c-3.2,0-5.8-2.6-5.8-5.8c0-3.2,2.6-5.8,5.8-5.8c3.2,0,5.8,2.6,5.8,5.8C27.7,67.5,25.2,70.1,22,70.1z"/>
	</g>
</g>
<g>
	<g>
		<path class="st1" d="M96.9,56.2v-9.8c0-0.7-0.4-1.3-1.1-1.5l-9.2-3.1c-3.5-5.9-8.2-11.5-18.8-13.3c0,0,0,0-0.1,0
			c-19.4-2.7-34,1.7-43.4,13c-10.8,0.2-22,3.6-22,9.8v4.9c-0.9,0-1.6,0.7-1.6,1.6v6.5c0,0.9,0.7,1.6,1.6,1.6h6.5
			c0.9,0,1.6-0.7,1.6-1.6c0-6.3,5.1-11.4,11.4-11.4c6.3,0,11.4,5.1,11.4,11.4c0,0.9,0.7,1.6,1.6,1.6h29.3c0.9,0,1.6-0.7,1.6-1.6
			c0-6.3,5.1-11.4,11.4-11.4c6.3,0,11.4,5.1,11.4,11.4c0,0.9,0.7,1.6,1.6,1.6h6.5c0.9,0,1.6-0.7,1.6-1.6v-6.5
			C98.6,56.9,97.8,56.2,96.9,56.2z M75.8,34.8c2.8,1.7,4.9,4,6.8,6.8h-6.8L75.8,34.8z M56.2,31c3.5,0,7.2,0.2,11.2,0.7
			c2,0.3,3.7,0.8,5.2,1.4l-0.1,8.4H56.2V31z M52.9,31.1v10.4H28.8C34.9,35.3,42.8,31.8,52.9,31.1z M95.3,62.7h-3.3
			c-0.8-7.3-7-13-14.6-13c-7.5,0-13.8,5.7-14.6,13H36.5c-0.8-7.3-7-13-14.6-13c-7.5,0-13.8,5.7-14.6,13H4v-3.3
			c0.9,0,1.6-0.7,1.6-1.6v-4.9h1.6c0.9,0,1.6-0.7,1.6-1.6c0-0.9-0.7-1.6-1.6-1.6H6.4c2.2-2.4,9-4.9,18.8-4.9h60.1l8.4,2.8v2.1H92
			c-0.9,0-1.6,0.7-1.6,1.6c0,0.9,0.7,1.6,1.6,1.6h1.6v4.9c0,0.9,0.7,1.6,1.6,1.6V62.7z"/>
	</g>
</g>
</svg>
