<?xml version="1.0" encoding="utf-8"?>
<!-- Generator: Adobe Illustrator 21.0.0, SVG Export Plug-In . SVG Version: 6.00 Build 0)  -->
<svg version="1.1" id="Layer_1" xmlns="http://www.w3.org/2000/svg" xmlns:xlink="http://www.w3.org/1999/xlink" x="0px" y="0px"
	 viewBox="0 0 100 100" style="enable-background:new 0 0 100 100;" xml:space="preserve">
<style type="text/css">
	.st0{fill:#FFFFFF;stroke:#99A5D0;stroke-width:2;stroke-linejoin:round;stroke-miterlimit:10;}
	.st1{fill:#FFFFFF;stroke:#99A5D0;stroke-width:2;stroke-miterlimit:10;}
	.st2{fill:#99A5D0;stroke:#FFFFFF;stroke-width:0.5;stroke-miterlimit:10;}
</style>
<polygon class="st0" points="1.8,52.5 11.2,34 88.2,34 98.2,52.5 "/>
<polygon class="st0" points="4.9,90.9 4.9,85.2 12.5,85.2 12.5,52.5 86.7,52.5 86.7,85.2 94.4,85.2 94.4,90.9 "/>
<rect x="20.2" y="59.7" class="st0" width="9.8" height="15.5"/>
<rect x="34.6" y="59.7" class="st0" width="9.8" height="15.5"/>
<rect x="50.9" y="63.6" class="st0" width="13.4" height="22.6"/>
<rect x="68.3" y="63.6" class="st0" width="13.4" height="22.6"/>
<g>
	<path class="st1" d="M44.4,16.2c0,2.2-1,4.2-2.6,5.5c-1.3,1-2.9,1.7-4.6,1.7c-1.8,0-3.4-0.6-4.6-1.7c-1.6-1.3-2.6-3.3-2.6-5.5
		c0-4,3.2-7.2,7.2-7.2C41.2,9.1,44.4,12.3,44.4,16.2z"/>
	<path class="st1" d="M46.9,34H27.6c0-1.8,0-10.6,5-12.3c1.3,1,2.9,1.7,4.6,1.7c1.8,0,3.4-0.6,4.6-1.7C44,23.9,46.9,32.2,46.9,34z"
		/>
</g>
<g>
	<path class="st0" d="M68.7,16.2c0,2.2-1,4.2-2.6,5.5c-1.3,1-2.9,1.7-4.6,1.7c-1.8,0-3.4-0.6-4.6-1.7c-1.6-1.3-2.6-3.3-2.6-5.5
		c0-4,3.2-7.2,7.2-7.2C65.5,9.1,68.7,12.3,68.7,16.2z"/>
	<path class="st0" d="M51.9,34h19.2c0-1.8,0-10.6-5-12.3c-1.3,1-2.9,1.7-4.6,1.7c-1.8,0-3.4-0.6-4.6-1.7
		C54.8,23.9,51.9,32.2,51.9,34z"/>
</g>
<g>
	<path class="st0" d="M58.6,20c0,2.8-1.3,5.4-3.3,7.1c-1.6,1.3-3.7,2.2-5.9,2.2c-2.3,0-4.3-0.8-5.9-2.2c-2-1.7-3.3-4.2-3.3-7.1
		c0-5.1,4.1-9.2,9.2-9.2C54.5,10.8,58.6,14.9,58.6,20z"/>
	<path class="st0" d="M58.4,34h-18c0-2.3,0.3-4.2,3.1-6.9c1.6,1.3,3.7,2.2,5.9,2.2c2.3,0,4.3-0.8,5.9-2.2
		C58.1,29.9,58.4,31.7,58.4,34z"/>
</g>
<g>
	<g>
		<g>
			<path class="st2" d="M44.9,48.3c-0.8,0-1.5-0.1-2.1-0.4s-1.2-0.6-1.6-1.1c-0.5-0.5-0.8-1.1-1-1.8c-0.2-0.7-0.3-1.4-0.3-2.3
				c0-1.7,0.4-3.1,1.3-4.1c0.5-0.5,1-0.9,1.6-1.1c0.6-0.2,1.3-0.4,2.1-0.4c0.6,0,1.2,0.1,1.7,0.2c0.5,0.1,1,0.4,1.4,0.7
				c0.5,0.4,0.9,0.8,1.1,1.3c0.2,0.5,0.3,1,0.3,1c0.1,0.3-0.2,0.6-0.5,0.6h-1c-0.4,0-0.7-0.3-0.8-0.6c0,0-0.1-0.4-0.5-0.8
				s-0.9-0.5-1.6-0.5c-0.4,0-0.8,0.1-1.1,0.2c-0.3,0.2-0.6,0.4-0.9,0.7c-0.2,0.3-0.4,0.7-0.5,1.1c-0.1,0.5-0.2,1-0.2,1.5
				c0,0.6,0.1,1.1,0.2,1.5c0.1,0.4,0.3,0.8,0.5,1.1c0.2,0.3,0.5,0.5,0.8,0.7c0.3,0.2,0.7,0.2,1.1,0.2c0.7,0,1.2-0.2,1.6-0.5
				C46.9,45.5,47,45,47,45c0.1-0.3,0.5-0.6,0.8-0.6h1c0.4,0,0.6,0.3,0.5,0.6c0,0-0.1,0.6-0.3,1c-0.2,0.5-0.6,0.9-1,1.3
				c-0.4,0.3-0.9,0.6-1.4,0.7C46.1,48.2,45.6,48.3,44.9,48.3z"/>
		</g>
		<g>
			<path class="st2" d="M55.7,48.3c-0.6,0-1.2-0.1-1.7-0.2c-0.5-0.1-0.9-0.3-1.2-0.5c-0.3-0.2-0.6-0.5-0.8-0.7
				c-0.2-0.3-0.4-0.6-0.5-1c-0.1-0.3-0.2-0.7-0.2-1.1c0-0.4-0.1-0.8-0.1-1.3V38c0-0.4,0.3-0.6,0.6-0.6h1c0.4,0,0.6,0.3,0.6,0.6v4.9
				c0,0.4,0,0.9,0,1.3c0,0,0,0.3,0.1,0.6c0.1,0.3,0.2,0.6,0.4,0.9s0.4,0.4,0.7,0.5c0.3,0.1,0.6,0.2,1,0.2c0.4,0,0.7,0,1-0.1
				c0.3-0.1,0.5-0.3,0.7-0.5c0.2-0.2,0.3-0.5,0.4-0.9c0.1-0.4,0.1-0.8,0.1-1.3V38c0-0.4,0.3-0.6,0.6-0.6h1c0.4,0,0.6,0.3,0.6,0.6
				v4.9c0,0.4,0,0.9,0,1.3c0,0,0,0.1,0,0.5s-0.1,0.7-0.2,1.1c-0.1,0.4-0.3,0.7-0.4,1c-0.2,0.3-0.5,0.6-0.8,0.8
				c-0.3,0.2-0.7,0.4-1.2,0.5C57,48.2,56.4,48.3,55.7,48.3z"/>
		</g>
	</g>
</g>
</svg>
