<?xml version="1.0" encoding="utf-8"?>
<!-- Generator: Adobe Illustrator 21.0.0, SVG Export Plug-In . SVG Version: 6.00 Build 0)  -->
<svg version="1.1" id="Capa_1" xmlns="http://www.w3.org/2000/svg" xmlns:xlink="http://www.w3.org/1999/xlink" x="0px" y="0px"
	 viewBox="0 0 100 100" style="enable-background:new 0 0 100 100;" xml:space="preserve">
<style type="text/css">
	.st0{fill:#99A5D0;stroke:#FFFFFF;stroke-width:1.5;stroke-linecap:round;stroke-miterlimit:10;}
	.st1{fill:#99A5D0;stroke:#FFFFFF;stroke-width:1.3;stroke-linecap:round;stroke-linejoin:round;stroke-miterlimit:10;}
	.st2{fill:#99A5D0;stroke:#FFFFFF;stroke-linecap:round;stroke-linejoin:round;stroke-miterlimit:10;}
</style>
<g>
	<g>
		<path class="st0" d="M95.7,74c0-0.1-0.1-0.2-0.1-0.4c-1-2.7-3.6-4.5-6.5-4.5c-0.8,0-1.6,0.1-2.3,0.4c-1.6,0.6-3.7,1.3-6.1,2.1
			V42.5l1.3,1.2c0.7,0.6,1.8,0.6,2.4,0l5.7-5.3c0.4-0.3,0.6-0.8,0.6-1.3c0-0.5-0.2-1-0.6-1.3L56.6,4.5c-0.7-0.6-1.8-0.6-2.4,0
			L20.6,35.7c-0.4,0.3-0.6,0.8-0.6,1.3c0,0.5,0.2,1,0.6,1.3l5.7,5.3c0.3,0.3,0.8,0.5,1.2,0.5c0.4,0,0.9-0.2,1.2-0.5l1.3-1.2v20.3
			c-2.1,1.9-4.8,2.4-8.5,2.4v-3.8c0-1-0.8-1.8-1.8-1.8h-14c-1,0-1.8,0.8-1.8,1.8v32.8c0,1,0.8,1.8,1.8,1.8h14c1,0,1.8-0.8,1.8-1.8
			v-5.8h5.9c3.9,0,7.8,1.7,11.5,3.3c3.7,1.6,7.2,3.1,10.6,3.1c0,0,0.1,0,0.1,0c4.8-0.2,16.1-1.9,37-10.4c1.7-0.7,3.4-1.4,5.1-2.1
			l0,0C95.1,81,96.7,77.4,95.7,74z M18,67C18,67,18,67,18,67v19.7v5.8h-3.4V73.7c0-1-0.8-1.8-1.8-1.8S11,72.8,11,73.7v18.7H7.6V63.2
			H18V67z M27.6,39.9L24.5,37L55.3,8.3L86.2,37l-3.1,2.9L56.6,15.1c-0.7-0.6-1.8-0.6-2.5,0L27.6,39.9z M65.8,60.8
			C65.8,60.8,65.8,60.8,65.8,60.8l-22.9-2.3c0,0,0,0,0,0c-0.2,0-0.4,0-0.5-0.1c0,0-0.1,0-0.1,0c-0.2,0-0.3,0-0.5,0c0,0,0,0-0.1,0
			c-2.8-0.1-5.6,0.5-8,1.8v-3.3v-3.6V39.1l21.7-20.2L77,39.1v33.7c-6.2,1.9-14.3,4-20.2,4.3c0,0,0,0-0.1,0c-0.2,0-0.3,0-0.5,0
			c0,0-0.1,0-0.1,0c-0.2,0-0.4,0-0.5,0c-2.4,0-3.3-1.8-3.6-3.4c2.2,0,3.9,0,5.3,0c1.8,0,3,0,3.7,0c0.1,0,0.1,0,0.1,0
			c0,0,0.1,0,0.1,0c0.2,0,0.3,0,0.4,0l0,0c3,0,5.8-1.5,7.3-3.9c0.1-0.2,0.2-0.3,0.3-0.5c0-0.1,0.1-0.1,0.1-0.2c0.7-1.2,1-2.6,1-4
			C70.5,63.8,69.9,61.3,65.8,60.8z M90.4,79.1c-0.7,0.3-1.4,0.6-2.1,0.9l-1.3-2.2c-0.5-0.9-1.6-1.2-2.4-0.7
			c-0.9,0.5-1.2,1.6-0.7,2.4l1.1,1.9c-20.1,8.1-30.7,9.8-35.3,10c-2.7,0-5.8-1.4-9.2-2.8c-3.9-1.7-8.4-3.6-13-3.6h-5.9V68.8
			c3.7,0,7.9-0.5,11.1-3.5c0.1-0.1,0.3-0.3,0.4-0.4c0.1-0.1,0.2-0.1,0.2-0.2c0.1-0.1,0.2-0.1,0.3-0.2c0.1-0.1,0.2-0.1,0.3-0.2
			c0.1-0.1,0.1-0.1,0.2-0.2c0.1-0.1,0.2-0.2,0.4-0.2c0.1,0,0.1-0.1,0.2-0.1c0.1-0.1,0.3-0.2,0.4-0.3c0,0,0.1,0,0.1-0.1
			c0.2-0.1,0.3-0.2,0.5-0.3c0,0,0,0,0,0c1.3-0.6,2.8-1,4.2-1.2h0c0.2,0,0.4,0,0.6,0c0,0,0.1,0,0.1,0c0.2,0,0.4,0,0.5,0
			c0.1,0,0.2,0,0.2,0c0.1,0,0.3,0,0.4,0c0.2,0,0.4,0,0.7,0.1c0,0,0,0,0,0l15.3,1.6v2.9c0,1,0.8,1.8,1.8,1.8c1,0,1.8-0.8,1.8-1.8
			v-2.5l3.9,0.4c0.3,0,0.5,0.1,0.7,0.1c0.8,0.2,0.8,0.5,0.8,0.7c0,0.9-0.2,1.7-0.6,2.4c-0.1,0.1-0.1,0.2-0.2,0.3
			c-0.1,0.2-0.3,0.4-0.4,0.5c-0.1,0.1-0.2,0.2-0.2,0.2c-1,0.9-2.3,1.5-3.7,1.5c-0.1,0-0.2,0-0.4,0c0,0-0.1,0-0.1,0s-0.1,0-0.1,0
			c-0.8,0-2.5,0-5,0c-1.6,0-3.6,0-6,0l0,0c-0.5,0-0.9,0.2-1.3,0.5c-0.3,0.3-0.5,0.8-0.5,1.3c0.1,5.3,3,8.7,7.4,8.7
			c0.2,0,0.4,0,0.6,0c0,0,0.1,0,0.1,0c0.2,0,0.3,0,0.5,0c0,0,0.1,0,0.1,0c9.9-0.4,24.9-5.5,31-7.7c0.4-0.1,0.7-0.2,1.1-0.2
			c1.4,0,2.6,0.9,3.1,2.2c0,0.1,0,0.1,0.1,0.2C92.8,76.7,92,78.4,90.4,79.1z"/>
	</g>
</g>
<g>
	<g>
		<path class="st1" d="M14.6,67.5c0-0.1-0.1-0.2-0.1-0.3c0-0.1-0.1-0.2-0.2-0.3c-0.1-0.1-0.1-0.2-0.2-0.3c-0.1-0.1-0.2-0.2-0.3-0.2
			c-0.1-0.1-0.2-0.1-0.3-0.2c-0.1,0-0.2-0.1-0.3-0.1c-0.2,0-0.5,0-0.7,0c-0.1,0-0.2,0.1-0.3,0.1c-0.1,0-0.2,0.1-0.3,0.2
			c-0.1,0.1-0.2,0.1-0.3,0.2c-0.1,0.1-0.2,0.2-0.2,0.3c-0.1,0.1-0.1,0.2-0.2,0.3c0,0.1-0.1,0.2-0.1,0.3c0,0.1,0,0.2,0,0.4
			c0,0.1,0,0.2,0,0.4c0,0.1,0.1,0.2,0.1,0.3c0,0.1,0.1,0.2,0.2,0.3c0.1,0.1,0.1,0.2,0.2,0.3s0.2,0.2,0.3,0.2
			c0.1,0.1,0.2,0.1,0.3,0.2c0.1,0,0.2,0.1,0.3,0.1s0.2,0,0.4,0c0.1,0,0.2,0,0.4,0c0.1,0,0.2-0.1,0.3-0.1c0.1,0,0.2-0.1,0.3-0.2
			c0.1-0.1,0.2-0.1,0.3-0.2c0.1-0.1,0.2-0.2,0.2-0.3c0.1-0.1,0.1-0.2,0.2-0.3c0-0.1,0.1-0.2,0.1-0.3c0-0.1,0-0.2,0-0.4
			C14.6,67.7,14.6,67.6,14.6,67.5z"/>
	</g>
</g>
<path class="st2" d="M48.6,44.2c3.4,0,6.1-2.8,6.1-6.1s-2.8-6.1-6.1-6.1c-3.4,0-6.1,2.8-6.1,6.1S45.3,44.2,48.6,44.2z M48.6,35
	c1.7,0,3.1,1.4,3.1,3.1s-1.4,3.1-3.1,3.1c-1.7,0-3.1-1.4-3.1-3.1C45.6,36.4,46.9,35,48.6,35z"/>
<path class="st2" d="M62.2,45.4c-3.4,0-6.1,2.8-6.1,6.1c0,3.4,2.8,6.1,6.1,6.1c3.4,0,6.1-2.8,6.1-6.1C68.3,48.2,65.5,45.5,62.2,45.4
	z M62.2,54.6c-1.7,0-3.1-1.4-3.1-3.1c0-1.7,1.4-3.1,3.1-3.1c1.7,0,3.1,1.4,3.1,3.1C65.2,53.3,63.8,54.6,62.2,54.6z"/>
<path class="st2" d="M44,57.7c0.5,0,0.8-0.2,1.1-0.5l22.7-22.7c0.6-0.6,0.6-1.5,0-2.1c-0.6-0.6-1.5-0.6-2.1,0L43,55.1
	c-0.6,0.6-0.6,1.5,0,2.1C43.3,57.6,43.6,57.7,44,57.7z"/>
</svg>
